<?xml version="1.0" encoding="UTF-8"?><svg id="b" xmlns="http://www.w3.org/2000/svg" viewBox="0 0 595.79 679.89"><g id="c"><g><g><path d="m16.46,579.16v-134.52h2.93l89.53,103.12v-103.12h13.26v134.52h-3.02l-88.8-101.86v101.86h-13.9Z"/><path d="m218.97,441.26c20.37,0,37.43,6.8,51.15,20.39,13.73,13.6,20.59,30.33,20.59,50.21s-6.85,36.4-20.54,50.11c-13.7,13.72-30.4,20.58-50.1,20.58s-36.79-6.83-50.51-20.48c-13.73-13.66-20.59-30.18-20.59-49.57,0-12.92,3.13-24.9,9.38-35.94,6.25-11.03,14.78-19.68,25.58-25.93,10.8-6.25,22.48-9.37,35.05-9.37Zm.59,13.08c-9.95,0-19.39,2.59-28.3,7.78-8.92,5.19-15.88,12.17-20.88,20.96-5.01,8.79-7.51,18.58-7.51,29.38,0,15.99,5.54,29.49,16.62,40.5,11.08,11.01,24.44,16.52,40.07,16.52,10.44,0,20.1-2.53,28.99-7.6,8.88-5.06,15.81-11.99,20.79-20.78,4.98-8.79,7.47-18.55,7.47-29.29s-2.49-20.33-7.47-28.97c-4.98-8.63-11.98-15.54-21.02-20.73-9.04-5.19-18.62-7.78-28.76-7.78Z"/><path d="m318.06,444.64h26.52c10.67,0,18.87,1.27,24.6,3.79,5.73,2.53,10.26,6.42,13.58,11.66,3.32,5.24,4.98,11.07,4.98,17.47,0,5.98-1.46,11.42-4.37,16.32-2.91,4.91-7.19,8.89-12.83,11.93,6.99,2.38,12.37,5.17,16.14,8.37,3.77,3.2,6.7,7.07,8.8,11.61,2.1,4.54,3.15,9.46,3.15,14.77,0,10.79-3.95,19.92-11.84,27.39-7.9,7.47-18.49,11.2-31.78,11.2h-36.95v-134.52Zm13.17,13.17v43.07h7.7c9.35,0,16.22-.87,20.62-2.61,4.4-1.74,7.88-4.48,10.45-8.23,2.57-3.75,3.85-7.91,3.85-12.48,0-6.16-2.15-10.99-6.46-14.49-4.31-3.5-11.17-5.26-20.57-5.26h-15.58Zm0,56.61v51.58h16.67c9.83,0,17.04-.96,21.62-2.88,4.58-1.92,8.26-4.92,11.04-9.01,2.78-4.08,4.17-8.5,4.17-13.26,0-5.97-1.95-11.19-5.86-15.64-3.91-4.45-9.28-7.5-16.11-9.14-4.58-1.1-12.55-1.65-23.92-1.65h-7.61Z"/><path d="m425.24,444.64h13.44v121.54h51.76v12.99h-65.2v-134.52Z"/><path d="m511.84,444.64h77.09v13.17h-63.65v42.16h63.1v13.17h-63.1v52.86h63.1v13.17h-76.54v-134.52Z"/></g><g><path d="m196.07,614h6.84v41.94h25.93v5.95h-32.77v-47.89Z"/><path d="m280.07,649.92h-25.45l-5.27,11.97h-7.05l21.69-47.89h6.77l21.76,47.89h-7.18l-5.27-11.97Zm-2.4-5.47l-10.33-23.47-10.33,23.47h20.66Z"/><path d="m353.47,648.96c0,8.21-6.23,12.93-18.34,12.93h-22.85v-47.89h21.48c11.02,0,17.17,4.65,17.17,12.38,0,5.2-2.67,8.83-6.43,10.67,5.41,1.51,8.96,5.54,8.96,11.91Zm-34.35-29.42v15.33h14.03c6.98,0,10.95-2.6,10.95-7.66s-3.97-7.66-10.95-7.66h-14.03Zm27.44,28.87c0-5.54-4.11-8.01-11.7-8.01h-15.74v15.94h15.74c7.59,0,11.7-2.39,11.7-7.94Z"/><path d="m372.33,656.42l2.53-5.34c3.56,3.22,9.65,5.54,15.8,5.54,8.28,0,11.84-3.22,11.84-7.39,0-11.7-29.01-4.31-29.01-22.1,0-7.39,5.75-13.68,18.34-13.68,5.61,0,11.43,1.5,15.39,4.24l-2.26,5.47c-4.17-2.67-8.89-3.9-13.14-3.9-8.14,0-11.63,3.42-11.63,7.59,0,11.7,29.01,4.38,29.01,21.96,0,7.32-5.88,13.62-18.54,13.62-7.32,0-14.5-2.46-18.34-6.02Z"/></g><g><path d="m150.96,250.19c-8.71-5.59-20.38-6.58-27.92-13.79-2.09-2-3.76-4.39-5.41-6.77,1.61.99,3.63,1.05,5.49.74,1.86-.31,3.65-.97,5.52-1.29,2.8-.49,5.73-.23,8.4.76-2.47-2.07-5.41-3.48-8.45-4.51-2.84-.96-6.36-1.11-9-2.5-2.68-1.41-5.45-2.93-7.98-4.62-1.39-.93-2.74-1.93-4.02-3-.48-.4-3.05-3.29-3.48-3.22,4.93-.77,10.45-1.94,15.39-2.72-2.42.38-6.27-1.21-8.58-1.9-2.7-.81-5.25-1.97-7.79-3.2-5.3-2.58-10.27-5.84-14.73-9.7,3.81.51,7.61-.8,11.45-1.12,3.83-.32,7.75.37,11.24,1.98-2.42-3.51-6.4-5.61-10.42-7-4.02-1.4-8.24-2.23-12.15-3.92-5.01-2.16-9.4-5.71-12.57-10.15,3.8,1.97,8.35.15,12.62-.2,3.01-.25,6.08.28,8.83,1.52-5.38-4.3-12.21-6.22-18.7-8.53-6.49-2.31-13.15-5.36-17.06-11.03,3.37,1.73,7.41.48,11.18.19,3.7-.28,7.47.42,10.82,2.01-12.44-5.93-25.26-12.15-34.22-22.63,4.67-.27,9.38.26,13.87,1.56-2.52-2.18-5.65-3.47-8.56-5.08-3.99-2.21-6.9-5.78-9.81-9.21-3.59-4.24-6.72-8.89-9.29-13.82,3.47.72,7.05.89,10.52,1.61-6.19-3.95-11.22-9.44-15.43-15.4-2.11-2.98-3.93-6.17-5.43-9.5-1.42-3.15-1.89-6.96-3.41-9.97,2.47,4.88,10.33,5.16,12.39,10.23C19.64,60.1,13.14,29.65,15.91,0c2.64,8.82,6.32,17.34,10.92,25.31,4.99,8.64,9.09,17.59,14.55,25.9,2.8,4.27,5.29,8.75,7.44,13.39,2.05,4.43,3.07,9.49,5.22,13.79-2.74-5.49,1.56-12.49-.93-18.09,7.7,8.71,12.36,20.07,12.98,31.68,1.86-5.52,3.29-9.41,1.78-15.19.21.8,2.16,2.17,2.75,2.84,1.05,1.19,2.03,2.43,2.94,3.72,1.82,2.58,3.36,5.37,4.59,8.28,1.19,2.81,2,5.7,2.65,8.68.6,2.76,1.99,5.14,2.74,7.88.23-4.17,2.36-7.99,2.4-12.17,0,.57,2.77,2.73,3.24,3.24,1.13,1.22,2.22,2.49,3.25,3.8,2.06,2.62,3.92,5.4,5.54,8.32,3.34,6.01,5.8,12.05,6.66,18.96-1.9-6.86,6.58-13.44,4.69-20.31,6.25,9.59,10.23,20.64,11.52,32.01.39,3.45.59,7.1,2.45,10.03-.4-3.36-.13-6.79.78-10.05,1.16-4.16,3.37-8.46,2.06-12.57,2.22,2.79,4.18,5.79,5.85,8.94,1.41,2.66,1.99,5.46,3.24,8.18,2.65,5.8,5.76,13.4,5.73,19.89.02-3.42.05-6.94,1.31-10.11,1.23-3.09,3.62-6.2,2.6-9.36,4.53,8.35,8.76,16.85,12.69,25.49,1.34,2.95,2.66,5.94,3.35,9.1.66,3.02.78,6.23,2.2,8.98-1.24-5.65,3.76-11.19,2.82-16.89.31,1.86,3.33,4.82,4.29,6.6,1.04,1.93,1.44,3.94,2.37,5.89,2.3,4.84,3.93,9.82,4.45,15.19.25,2.59.29,5.29,1.42,7.63-1.35-4.74,2.55-9.63,1.81-14.5,7.95,10.45,12.62,23.35,13.2,36.46-2.18-6.22,4.63-12.89,2.68-19.19,6.58,6.79,9.61,14.64,13.82,22.81,4.39,8.5,5.59,18.28,10.65,26.61,3.84,6.32,7.53,14.54,12.77,19.75,53.62,53.23,112.67,85.09,185.33,105.29,4.17,1.16,13.14,2.5,16.32,5.44,3.18,2.94,4.72,6.2,2.25,9.75-3.93,5.63-12.79,1.64-19.32-.49-70.7-23.05-135.96-61.63-192.35-110.11-28-24.07-53.86-50.59-77.55-78.9-23.9-28.56-49.94-54.67-70.98-85.76,16.82,38.99,118.23,158.27,181.62,200.37-14.19-1.04-28.18-9.87-40.1-17.63-11.92-7.76-23.36-16.52-36.54-21.89-5.02-2.05-10.02-3.77-14.83-6.27-4.6-2.39-8.86-5.46-12.59-9.07,5,2.79,11.52-.72,16.91,1.24-4.12-4.24-10.41-5.26-16.03-7.08-8.61-2.79-16.44-7.98-22.36-14.83,6.64,2.06,14.45-2.15,20.52,1.22-.87-.73-1.79-1.4-2.74-2.01Z" style="fill-rule:evenodd;"/><path d="m453.33,250.19c8.71-5.59,20.38-6.58,27.92-13.79,2.09-2,3.76-4.39,5.41-6.77-1.61.99-3.63,1.05-5.49.74-1.86-.31-3.65-.97-5.52-1.29-2.8-.49-5.73-.23-8.4.76,2.47-2.07,5.41-3.48,8.45-4.51,2.84-.96,6.36-1.11,9-2.5,2.68-1.41,5.45-2.93,7.98-4.62,1.39-.93,2.74-1.93,4.02-3,.48-.4,3.05-3.29,3.48-3.22-4.93-.77-10.45-1.94-15.39-2.72,2.42.38,6.27-1.21,8.58-1.9,2.7-.81,5.25-1.97,7.79-3.2,5.3-2.58,10.27-5.84,14.73-9.7-3.81.51-7.61-.8-11.45-1.12-3.83-.32-7.75.37-11.24,1.98,2.42-3.51,6.4-5.61,10.42-7,4.02-1.4,8.24-2.23,12.15-3.92,5.01-2.16,9.4-5.71,12.57-10.15-3.8,1.97-8.35.15-12.62-.2-3.01-.25-6.08.28-8.83,1.52,5.38-4.3,12.21-6.22,18.7-8.53,6.49-2.31,13.15-5.36,17.06-11.03-3.37,1.73-7.41.48-11.18.19-3.7-.28-7.47.42-10.82,2.01,12.44-5.93,25.26-12.15,34.22-22.63-4.67-.27-9.38.26-13.87,1.56,2.52-2.18,5.65-3.47,8.56-5.08,3.99-2.21,6.9-5.78,9.81-9.21,3.59-4.24,6.72-8.89,9.29-13.82-3.47.72-7.05.89-10.52,1.61,6.19-3.95,11.22-9.44,15.43-15.4,2.11-2.98,3.93-6.17,5.43-9.5,1.42-3.15,1.89-6.96,3.41-9.97-2.47,4.88-10.33,5.16-12.39,10.23,14.63-25.94,21.13-56.39,18.37-86.04-2.64,8.82-6.32,17.34-10.92,25.31-4.99,8.64-9.09,17.59-14.55,25.9-2.8,4.27-5.29,8.75-7.44,13.39-2.05,4.43-3.07,9.49-5.22,13.79,2.74-5.49-1.56-12.49.93-18.09-7.7,8.71-12.36,20.07-12.98,31.68-1.85-5.52-3.29-9.41-1.78-15.19-.21.8-2.16,2.17-2.75,2.84-1.05,1.19-2.03,2.43-2.94,3.72-1.82,2.58-3.36,5.37-4.59,8.28-1.19,2.81-2,5.7-2.65,8.68-.6,2.76-1.99,5.14-2.74,7.88-.23-4.17-2.36-7.99-2.4-12.17,0,.57-2.77,2.73-3.24,3.24-1.13,1.22-2.22,2.49-3.25,3.8-2.06,2.62-3.92,5.4-5.54,8.32-3.34,6.01-5.8,12.05-6.66,18.96,1.9-6.86-6.58-13.44-4.69-20.31-6.25,9.59-10.23,20.64-11.52,32.01-.39,3.45-.59,7.1-2.45,10.03.4-3.36.13-6.79-.78-10.05-1.16-4.16-3.37-8.46-2.06-12.57-2.22,2.79-4.18,5.79-5.85,8.94-1.41,2.66-1.99,5.46-3.24,8.18-2.65,5.8-5.76,13.4-5.73,19.89-.02-3.42-.05-6.94-1.31-10.11-1.23-3.09-3.62-6.2-2.6-9.36-4.53,8.35-8.76,16.85-12.69,25.49-1.34,2.95-2.66,5.94-3.35,9.1-.66,3.02-.78,6.23-2.2,8.98,1.24-5.65-3.76-11.19-2.82-16.89-.31,1.86-3.33,4.82-4.29,6.6-1.04,1.93-1.44,3.94-2.37,5.89-2.3,4.84-3.93,9.82-4.45,15.19-.25,2.59-.29,5.29-1.42,7.63,1.35-4.74-2.55-9.63-1.81-14.5-7.95,10.45-12.62,23.35-13.2,36.46,2.18-6.22-4.63-12.89-2.68-19.19-6.58,6.79-9.61,14.64-13.82,22.81-4.39,8.5-5.59,18.28-10.65,26.61-3.84,6.32-7.53,14.54-12.77,19.75-53.62,53.23-112.67,85.09-185.33,105.29-4.17,1.16-13.14,2.5-16.32,5.44s-4.72,6.2-2.25,9.75c3.93,5.63,12.79,1.64,19.32-.49,70.7-23.05,135.96-61.63,192.35-110.11,28-24.07,53.86-50.59,77.55-78.9,23.9-28.56,49.94-54.67,70.98-85.76-16.82,38.99-118.23,158.27-181.62,200.37,14.18-1.04,28.18-9.87,40.1-17.63,11.92-7.76,23.36-16.52,36.54-21.89,5.02-2.05,10.02-3.77,14.83-6.27,4.6-2.39,8.86-5.46,12.59-9.07-5,2.79-11.52-.72-16.91,1.24,4.12-4.24,10.41-5.26,16.03-7.08,8.61-2.79,16.44-7.98,22.36-14.83-6.64,2.06-14.45-2.15-20.52,1.22.87-.73,1.79-1.4,2.74-2.01Z" style="fill-rule:evenodd;"/></g></g></g></svg>