<?xml version="1.0" encoding="UTF-8"?><svg id="Layer_1" xmlns="http://www.w3.org/2000/svg" viewBox="0 0 600 116.7"><path d="m10.1,57.7C3.5,51.4,0,43,0,33.6S3.5,15.7,10.1,9.5C16.4,3.3,25.2,0,35,0s20,3.9,25.8,11.2l-7.7,7.4c-4.6-5.3-10.6-8-17.8-8-13.6,0-23.6,9.7-23.6,23s10,23.1,23.6,23.1,13.2-2.7,17.8-8.1l7.7,7.4c-6,7.3-15.2,11.3-25.9,11.3s-18.6-3.4-24.8-9.6Z" fill="currentColor" style="stroke-width:0px;"/><path d="m95.3,66.6h-12.2L113,.7h10.6l30,65.9h-12.4l-7.6-17.3h-30.7l-7.6,17.3Zm22.9-52.2l-11,25.1h22.1l-11.1-25.1Z" fill="currentColor" style="stroke-width:0px;"/><path d="m190.7,66.6h-11.6V.7h9.3l36.1,44.8V.7h11.6v65.9h-9.3l-36.2-44.9v44.9Z" fill="currentColor" style="stroke-width:0px;"/><path d="m284.8,66.6h-11.6V.7h9.3l36.1,44.8V.7h11.6v65.9h-9.3l-36.2-44.9v44.9Z" fill="currentColor" style="stroke-width:0px;"/><path d="m367.8,66.6h-12.2L385.5.7h10.6l30,65.9h-12.5l-7.6-17.3h-30.7l-7.6,17.3Zm22.9-52.2l-11,25.1h22.1l-11-25.1Z" fill="currentColor" style="stroke-width:0px;"/><path d="m523.7,38V.7h11.6v37c0,12.7,5.5,19,16.6,19s16.7-6.2,16.7-19V.7h11.4v37.3c0,18.6-10.2,29.3-28.1,29.3s-28.1-10.7-28.1-29.3Z" fill="currentColor" style="stroke-width:0px;"/><path d="m486.3,28.9h-9.3v-9.3c0-4.4-6.9-4.5-6.9,0v9.3h-9.3c-4.5,0-4.5,6.9,0,6.9h9.3v9.3c0,4.4,6.9,4.5,6.9,0v-9.3h9.3c4.5,0,4.5-6.9,0-6.9Z" fill="currentColor" style="stroke-width:0px;"/><path d="m119.4,116.4v-29.1h11.9c3.1,0,5.8.6,8.2,1.8,4.6,2.5,7.4,7.1,7.4,12.7s-.7,5.4-2,7.6c-2.6,4.4-7.5,7-13.6,7h-11.9Zm3.1-26.5v23.8h8.6c2.6,0,4.8-.5,6.7-1.5,3.8-2,6-5.7,6-10.4s-.6-4.4-1.6-6.2c-2.1-3.5-6-5.7-11.1-5.7h-8.6Z" fill="currentColor" style="stroke-width:0px;"/><path d="m163,116.4h-3.1v-29.1h3.1v29.1Z" fill="currentColor" style="stroke-width:0px;"/><path d="m177.1,112.9l1.2-2.4c2,2,5.8,3.5,9.6,3.5s3.3-.2,4.5-.7c2.3-.9,3.3-2.5,3.3-4.4s-.4-2-1-2.7c-1.3-1.4-3.6-2.1-6.1-2.7-5.5-1.3-10.9-2.5-10.9-8.4s.4-2.8,1.2-4c1.5-2.4,4.6-4,9.6-4s6.7,1,9,2.6l-1,2.5c-2.5-1.7-5.4-2.4-8-2.4s-3.2.2-4.3.7c-2.3,1-3.3,2.6-3.3,4.6s.3,2.1,1,2.7c1.3,1.4,3.5,2.1,6.1,2.7,5.6,1.3,10.9,2.6,10.9,8.4s-.4,2.7-1.1,3.9c-1.5,2.4-4.7,4-9.7,4s-8.6-1.6-10.8-3.8Z" fill="currentColor" style="stroke-width:0px;"/><path d="m215.9,116.4h-3.1v-29.1h12.1c2.5,0,4.6.4,6.4,1.1,3.5,1.6,5.5,4.6,5.5,8.8s-.5,3.8-1.4,5.3c-1.9,3-5.5,4.7-10.5,4.7h-9v9.2Zm0-26.5v14.6h9c5.8,0,8.9-2.6,8.9-7.3s-3.1-7.3-8.9-7.3h-9Z" fill="currentColor" style="stroke-width:0px;"/><path d="m272,116.4h-22v-29.1h22.1v2.7h-19.1v10.7h17.2v2.6h-17.2v10.5h19v2.7Z" fill="currentColor" style="stroke-width:0px;"/><path d="m289.2,116.4h-3.1v-29.1h2.5l18.7,23.6v-23.6h3.1v29.1h-2.5l-18.7-23.6v23.6Z" fill="currentColor" style="stroke-width:0px;"/><path d="m324.5,112.9l1.2-2.4c2,2,5.8,3.5,9.6,3.5s3.3-.2,4.5-.7c2.3-.9,3.3-2.5,3.3-4.4s-.4-2-1-2.7c-1.3-1.4-3.6-2.1-6.1-2.7-5.5-1.3-10.9-2.5-10.9-8.4s.4-2.8,1.2-4c1.5-2.4,4.6-4,9.6-4s6.7,1,9,2.6l-1,2.5c-2.5-1.7-5.4-2.4-8-2.4s-3.2.2-4.3.7c-2.3,1-3.3,2.6-3.3,4.6s.3,2.1,1,2.7c1.3,1.4,3.5,2.1,6.1,2.7,5.6,1.3,10.9,2.6,10.9,8.4s-.4,2.7-1.1,3.9c-1.5,2.4-4.7,4-9.7,4s-8.6-1.6-10.8-3.8Z" fill="currentColor" style="stroke-width:0px;"/><path d="m360.5,116.4h-3.2l13.3-29.1h3.1l13.3,29.1h-3.3l-3.8-8.4h-15.6l-3.8,8.4Zm11.6-25.9l-6.7,15h13.4l-6.7-15Z" fill="currentColor" style="stroke-width:0px;"/><path d="m402.6,116.4h-3.1v-29.1h12.1c2.5,0,4.6.4,6.4,1.1,3.5,1.6,5.5,4.6,5.5,8.8s-.5,3.8-1.4,5.3c-1.3,2.1-3.4,3.4-6.2,4.2l6.9,9.7h-3.4l-6.5-9.2c-.4,0-.8,0-1.3,0h-9v9.2Zm0-26.5v14.6h9c5.8,0,8.9-2.6,8.9-7.3s-3.1-7.3-8.9-7.3h-9Z" fill="currentColor" style="stroke-width:0px;"/><path d="m448.9,116.4h-3.1v-10.1l-11.7-19.1h3.3l10,16.4,10-16.4h3.1l-11.7,19.1v10.1Z" fill="currentColor" style="stroke-width:0px;"/><path d="m591.2.7v1h-2.7v7.2h-1.1V1.7h-2.7v-1h6.6Z" fill="currentColor" style="stroke-width:0px;"/><path d="m592.2.7h1.6l2.3,6.9,2.3-6.9h1.6v8.2h-1.1v-4.8c0-.2,0-.4,0-.8s0-.8,0-1.2l-2.3,6.9h-1.1l-2.4-6.9v.2c0,.2,0,.5,0,.9s0,.7,0,.9v4.8h-1.1V.7Z" fill="currentColor" style="stroke-width:0px;"/></svg>