<svg xmlns="http://www.w3.org/2000/svg" id="Layer_1" viewBox="0 0 50 13.38"><path d="m3.71,6.39h.12s.03,0,.03,0c.09.01.18.03.27.06l.02-.04h.1s.03,0,.03,0c.02,0,.05.02.08.03.07.03.14.06.19.09l.02-.03h.11s.05.02.05.02c.08.03.15.08.23.13v-.02s.02,0,.02,0v-.02c-.1-.04-.19-.09-.27-.15l-.07-.05v-.09c-.07-.05-.16-.11-.24-.18l-.07-.07.03-.07c-.08-.06-.15-.12-.22-.18l-.06-.06.02-.1c-.08-.07-.14-.16-.19-.24l-.04-.06.02-.07c-.07-.08-.13-.17-.18-.26l-.04-.06.03-.08c-.04-.06-.07-.11-.11-.17-.1.29-.15.6-.15.93,0,.27.04.54.11.79.04,0,.09,0,.13.01l.03-.06Z" fill="#ecf8fd"></path><path d="m5.65,8.35h-.06s-.05,0-.05,0c-.03.03-.06.05-.09.07.23.08.47.12.72.14v-.71s-.07.09-.1.13c-.04.05-.08.1-.15.1h0c-.07.09-.15.17-.24.24l-.04.03Z" fill="#ecf8fd"></path><path d="m5.84,5.95v-.02c-.03-.07-.07-.15-.1-.24l-.02-.02c.03.09.06.18.08.27h.04Z" fill="#ecf8fd"></path><path d="m4.73,7.91l.11-.14.02-.02h.02s-.09,0-.09,0l-.05-.08c-.1.02-.2.02-.29.02h-.09l-.04-.08s-.04,0-.07,0c-.01,0-.03,0-.04,0,.13.14.27.27.42.38.04-.03.08-.06.12-.08h0Z" fill="#ecf8fd"></path><path d="m8.44,7.61l-.03.08h-.1c-.1,0-.2,0-.3-.02l-.03.06h-.1s-.03,0-.04,0c0,0,.09.04.09.04v.1c.07.03.13.08.19.12.15-.11.29-.24.42-.38-.01,0-.02,0-.03,0-.02,0-.04,0-.07,0Z" fill="#ecf8fd"></path><path d="m4.02,4.08h.1s.04.04.04.04c.07.07.15.14.21.21h.04s.03,0,.03,0l.04.02c.09.09.17.17.24.25h.03s.05,0,.05,0l.05.05c.07.08.13.16.19.24h.03s.06,0,.06,0l.05.06c.05.08.1.17.14.26h.1s.04.1.04.1c.05.07.09.16.12.25h.08l.02.03.04-.04v-.08c-.03-.08-.06-.17-.08-.26v-.06s.03-.07.03-.07c-.03-.08-.05-.18-.07-.28,0-.04,0-.07,0-.11l.03-.09h0c-.02-.09-.02-.18-.03-.27v-.14s.07,0,.07,0c0-.1,0-.2,0-.3v-.12s.08,0,.08,0c0-.09.01-.19.02-.29v-.11s.09,0,.09,0c0-.11.02-.22.05-.33v-.04s.08-.07.08-.07h0c0-.06.02-.13.04-.19-.88.09-1.64.58-2.12,1.28.03.02.06.04.08.07Z" fill="#ecf8fd"></path><path d="m6.73,2.92h.05l.03.11c.02.11.04.22.05.32h.06l.03.13c.02.09.02.19.03.29h.05l.03.13c.01.1.01.2,0,.29h.06v.14c0,.11,0,.21-.02.3l.06.08-.02.08c-.01.1-.04.2-.07.29l.05.07-.02.07c-.02.1-.06.2-.1.29l.04.06-.03.08c-.03.1-.08.19-.12.27v.02s.05,0,.05,0c.02-.09.04-.17.07-.25v-.03l.05-.06.04-.04h.05c.03-.11.07-.2.12-.29l.04-.06h.09c.04-.09.09-.18.14-.27l.04-.06h.08s.03,0,.03,0c.05-.08.12-.16.18-.23l.04-.04h.06s.04,0,.04,0c.07-.09.14-.16.22-.23l.04-.03h.1c.07-.08.14-.15.22-.21l.04-.03h.06s.04,0,.04,0c.03-.03.05-.04.08-.06-.47-.7-1.23-1.18-2.11-1.28.01.06.03.12.04.19Z" fill="#ecf8fd"></path><path d="m9.15,4.72c-.04.06-.07.12-.11.16l.03.06-.04.07c-.06.1-.12.18-.19.27l.03.05-.04.08c-.06.09-.13.17-.2.24,0,0,.04.09.04.09l-.07.08c-.08.07-.15.13-.22.18l.03.06-.07.08c-.08.07-.16.13-.25.18v.09s-.08.05-.08.05c-.07.05-.16.1-.25.13v.03s.02.02.02.02c.08-.05.16-.09.24-.14h.03s.05-.02.05-.02h.07l.03.03c.08-.04.16-.07.25-.11h.02s.04-.01.04-.01h.07l.04.05c.09-.03.2-.05.3-.07h.08l.06.06s.08,0,.13-.01c.07-.25.11-.52.11-.79,0-.32-.05-.63-.15-.92Z" fill="#ecf8fd"></path><path d="m7.19,8.36h-.05s-.05,0-.05,0l-.05-.04c-.08-.07-.16-.15-.23-.23h-.07s-.05-.06-.05-.06c-.01,0-.04-.04-.07-.08-.02-.02-.03-.05-.05-.07v.69c.24-.02.48-.06.71-.14-.03-.02-.06-.04-.09-.07Z" fill="#ecf8fd"></path><path d="m6.4,0C3.5,0,1.06,1.92.27,4.56h1.7c.72-1.73,2.42-2.95,4.42-2.95s3.7,1.22,4.42,2.95h1.7C11.73,1.92,9.29,0,6.4,0Z" fill="#006156"></path><path d="m1,3.74l.69.37-.06.12-.69-.37.06-.12Zm.66.42l-.11-.06.08-.15s.03-.07.04-.1c0-.03,0-.07,0-.1,0-.03-.02-.06-.05-.09-.02-.03-.05-.05-.09-.07-.04-.02-.08-.03-.11-.04-.04,0-.07,0-.1.01-.03.01-.06.03-.08.05-.03.02-.05.05-.07.09l-.08.15-.11-.06.08-.15c.04-.07.09-.12.14-.16s.12-.06.19-.06c.07,0,.14.02.21.05.07.04.12.08.16.14s.05.12.05.19-.02.14-.06.21l-.08.15Z" fill="#fff"></path><path d="m1.88,2.45l.59.51-.09.1-.59-.51.09-.1Z" fill="#fff"></path><path d="m3.01,2.22s.06,0,.08,0c.03,0,.05-.02.07-.03.03-.02.05-.05.05-.08,0-.03,0-.06-.02-.08-.02-.02-.04-.04-.06-.04-.02,0-.05,0-.07,0-.03,0-.06.01-.09.02-.02,0-.04.01-.07.02-.03,0-.05,0-.08,0s-.06,0-.08-.02c-.03-.01-.05-.03-.07-.06-.03-.03-.04-.07-.04-.11,0-.04,0-.08.03-.11.02-.04.05-.07.08-.1.04-.03.07-.05.11-.05.04,0,.07,0,.11,0,.03,0,.06.02.09.03l-.05.11s-.04-.02-.06-.02c-.02,0-.04,0-.07,0-.02,0-.04.01-.06.03-.03.02-.05.04-.05.07,0,.02,0,.04.02.06.01.02.03.03.05.03s.04,0,.07,0c.03,0,.07-.01.11-.03.02,0,.05-.01.07-.02.03,0,.05,0,.08,0s.05.01.08.02c.02.01.05.03.07.06.02.03.04.06.04.09,0,.03,0,.06,0,.09s-.02.06-.04.09c-.02.03-.04.05-.07.07-.04.03-.08.05-.12.06-.04,0-.08.01-.13,0-.04,0-.08-.02-.11-.04l.04-.11s.06.02.09.03Z" fill="#fff"></path><path d="m3.89.97l.31.72-.12.05-.31-.72.12-.05Zm-.05.02l.14-.06c.05-.02.1-.03.15-.03s.09.01.12.04c.04.02.06.06.08.1.02.05.03.09.02.13s-.02.08-.06.12c-.03.03-.07.06-.12.09l-.14.06-.05-.11.14-.06s.07-.04.09-.07c.02-.03.02-.07,0-.1-.02-.04-.04-.06-.08-.07-.03,0-.07,0-.11.01l-.14.06-.05-.11Z" fill="#fff"></path><path d="m5.25.53l.13.77-.13.02-.13-.77.13-.02Zm-.05,0l.39-.07.02.11-.39.07-.02-.11Zm.05.3l.37-.06.02.11-.37.06-.02-.11Zm.06.35l.39-.07.02.11-.39.07-.02-.11Z" fill="#fff"></path><path d="m7.25.48l-.07.82-.52-.61-.04.52h-.13s.07-.83.07-.83l.52.61.04-.52h.13Z" fill="#fff"></path><path d="m8.1,1.31s.03.05.04.07c.02.02.04.03.07.04.03.01.06.01.09,0,.03-.01.05-.03.06-.06,0-.03.01-.05,0-.07s-.02-.04-.04-.06c-.02-.02-.04-.04-.07-.06-.02-.01-.03-.03-.05-.05-.02-.02-.03-.04-.05-.06-.01-.02-.02-.05-.03-.08,0-.03,0-.06.01-.09.01-.04.04-.07.07-.09.03-.02.07-.04.11-.04.04,0,.08,0,.13.02.04.02.08.04.11.06s.05.06.06.09c.01.03.02.06.03.09l-.12.02s0-.04-.02-.06c0-.02-.02-.04-.04-.06-.02-.02-.03-.03-.06-.04-.03-.01-.06-.01-.08,0-.02.01-.04.03-.04.05,0,.02,0,.04,0,.06,0,.02.02.04.04.06.02.02.05.05.08.08.02.02.04.03.06.05.02.02.03.04.04.07.01.02.02.05.02.08,0,.03,0,.06-.01.09-.01.03-.03.06-.05.09-.02.02-.05.04-.08.05-.03.01-.06.02-.09.02-.03,0-.06,0-.1-.02-.04-.02-.08-.04-.11-.07-.03-.03-.05-.06-.07-.1s-.03-.08-.03-.12l.12-.03s.01.06.03.09Z" fill="#fff"></path><path d="m9.38,1.8l-.02.02-.23.14-.12-.08.78-.47-.14.9-.12-.08.04-.26.02-.03.06-.31-.26.17Zm-.03-.06l.3.2-.04.11-.34-.23.08-.08Z" fill="#fff"></path><path d="m10.83,2.36l-.58.52-.09-.1.58-.52.09.1Zm-.19.4l-.1.45-.11-.12.11-.43.09.11Zm.16-.44l.11.12s.06.09.08.13c.01.04.01.09,0,.13-.01.04-.04.08-.07.11s-.08.05-.12.06-.09,0-.13-.02-.08-.05-.12-.09l-.11-.12.08-.07.1.12s.04.04.06.05c.02.01.05.01.07,0,.02,0,.05-.01.07-.03.02-.02.03-.04.04-.06,0-.02,0-.05,0-.07,0-.02-.02-.05-.04-.07l-.1-.12.09-.08Z" fill="#fff"></path><path d="m11.89,3.93l-.52-.02-.29.15-.06-.12.29-.15.28-.45.07.13-.21.32h.38s.07.14.07.14Z" fill="#fff"></path><path d="m6.11,8.59v4.19c-3.4-.15-6.11-2.95-6.11-6.38,0-.44.04-.88.13-1.29h1.65c-.12.41-.18.85-.18,1.29,0,2.15,1.41,3.96,3.35,4.57l-.02-.03v-1.03h-1.01v-1.32h2.18Z" fill="#006156"></path><path d="m4.19,8.59s.05-.02.05-.02c.1-.09.19-.17.29-.26.04-.04.09-.07.13-.1.03-.02.02-.03,0-.03h-.03s0-.01,0-.02c.12-.1.24-.18.39-.23,0,0,0,0,0-.01l-.06-.03s0-.01,0-.02c.14-.06.29-.09.45-.1,0,0,0,0,0,0-.02-.02-.04-.03-.07-.05-.01,0-.01-.01,0-.02.16-.04.3-.06.44-.04.03,0,.03,0,0-.02,0,0-.01-.01-.02-.02-.03-.02-.03-.03,0-.03.17,0,.33,0,.49-.05.01,0,.01,0,0,0-.1-.01-.22,0-.33,0-.15.02-.3.04-.45.06-.06,0-.12.02-.17.02-.02,0-.02,0,0-.01.03-.03.05-.06.07-.09,0-.01,0-.02,0-.01-.15.06-.31.1-.48.13-.02,0-.02,0,0-.02.02-.02.03-.04.04-.06.01-.02,0-.03-.01-.02-.15.03-.29.06-.44.06-.02,0-.03,0,0-.02.03-.02.05-.04.07-.07,0,0,0,0,0,0-.16.02-.32.02-.46,0-.02,0-.02,0,0-.02.02-.01.04-.03.06-.04.01-.01.01-.02,0-.02-.15,0-.29-.03-.45-.07-.02,0-.02-.01,0-.02.03,0,.05-.03.07-.04,0,0,0,0,0,0-.14-.03-.29-.07-.46-.14,0,0,0-.01,0-.02l.07-.04s0-.01,0-.01c-.14-.03-.29-.1-.41-.16-.11-.07-.23-.12-.33-.18-.03-.01-.05-.03-.08-.03-.03,0-.03-.01,0-.01.07,0,.14,0,.21,0,.23-.01.46-.03.69,0,.02,0,.02,0,.01-.02l-.05-.07s0,0,0,0c.16,0,.32.03.48.06.01,0,.01,0,0,0l-.05-.07s0-.02,0-.01c.16.02.3.06.44.12.01,0,.02,0,0-.01,0-.02-.02-.04-.03-.07,0-.02,0-.02,0-.02.03,0,.07.02.1.03.12.05.22.1.32.16.02,0,.02,0,.02-.01l-.03-.07s0-.03.02-.02c.14.06.26.14.38.23,0,0,0,0,0,0,0-.02,0-.05-.02-.1,0-.01,0-.02.01,0,.13.09.26.19.39.31.01.01.02,0,.02,0,0-.03-.02-.07-.03-.1,0-.02,0-.02.01-.01.02,0,.04.02.06.03.25.15.49.32.75.44.03,0,.03,0,0-.01-.16-.16-.34-.3-.55-.39-.08-.03-.16-.07-.24-.12-.02,0-.02-.02,0-.02.03,0,.06-.02.08-.03.02,0,.02-.02,0-.03-.15-.05-.29-.11-.43-.19-.02-.01-.02-.02,0-.02.04,0,.07-.02.1-.04.01,0,.01-.01,0-.02-.17-.04-.32-.11-.45-.2,0,0,0-.01,0-.02.03,0,.06-.01.1-.02,0,0,.01,0,.02-.01,0,0,0,0,0-.01-.15-.05-.29-.13-.41-.24,0-.01,0-.02,0-.02h.1s.01-.02,0-.03c-.14-.08-.26-.18-.37-.28-.02-.02-.01-.02,0-.02.03,0,.07,0,.1,0,0,0,0,0,0,0-.12-.1-.24-.21-.32-.34-.01-.02,0-.02,0-.02.03,0,.05.01.08,0,0,0,0,0,0-.01-.11-.11-.2-.23-.29-.37,0-.01,0-.02,0-.01.03,0,.06.01.09.01,0,0,0,0,0,0-.11-.13-.2-.26-.27-.39,0-.02,0-.02.01-.02.02,0,.04,0,.06.01.02,0,.02,0,0-.02-.09-.1-.15-.2-.2-.33-.07-.17-.13-.33-.21-.48-.01-.02,0-.02,0,0,.11.1.24.19.4.29.12.08.23.17.31.29,0,.01.02,0,.02,0,0-.03,0-.05,0-.08,0,0,0,0,.01,0,.12.1.23.22.33.34.01.02.02.01.02,0v-.08s0,0,.01,0c.12.12.22.24.31.36,0,0,0,0,.01,0,0-.03,0-.05,0-.07,0-.02,0-.02.02,0,.1.11.19.23.26.37,0,.02.02.02.02,0,0-.03.02-.05.02-.08,0-.02,0-.02.02,0,.08.13.14.26.19.4,0,.03.02.03.03,0l.03-.08s.01-.01.02,0c.08.13.13.28.16.43,0,.03,0,.03.02,0,.02-.02.03-.05.03-.07,0-.03.02-.03.03,0,.05.13.08.26.1.39,0,.03,0,.06,0,.08,0,.01,0,.01.01,0l.07-.11s0,0,0,0c.05.16.09.32.1.48,0,.02,0,.02.01,0,.02-.03.04-.06.06-.09,0-.01.01-.01.02,0,.03.09.05.17.07.26.04.21.14.41.25.59,0,0,0,0,0,0-.02-.16-.05-.32-.1-.48-.04-.13-.11-.25-.14-.39,0,0,0-.01.01-.01l.08.03s.01,0,0-.01c-.09-.13-.16-.28-.21-.43,0,0,0-.01,0,0l.08.04s.03,0,.02-.02c-.09-.12-.16-.26-.21-.41,0,0,0,0,0-.01,0,0,0,0,.01,0,.03.01.05.03.07.04.02,0,.02,0,0-.01-.08-.13-.14-.28-.18-.44,0-.01,0-.02.01,0,.03.02.05.03.07.04.02.01.03,0,.01-.01-.07-.12-.11-.26-.14-.42,0-.01,0-.03,0-.04,0,0,0,0,0,0,.02.02.05.04.07.06.01,0,.01,0,.01,0-.01-.05-.03-.1-.04-.14-.02-.1-.03-.21-.04-.32,0-.01,0-.02.01,0,.02.02.04.04.07.06,0,0,.01,0,.01,0-.03-.16-.03-.31-.01-.47,0-.01,0-.01.01,0,.01.02.03.04.05.06.01.01.02,0,.02,0,0-.14,0-.29.02-.46,0-.01.01-.02.02,0l.05.07s.01,0,.01,0c0-.16.02-.33.05-.5,0,0,0,0,.01,0l.04.07s.02.01.02,0c0-.13.02-.25.05-.37.05-.18.1-.36.13-.52.02-.07.03-.15.05-.22t0,0h0c.04.26.11.5.18.76.03.12.05.24.05.36,0,.02,0,.02.02,0,.01-.02.03-.03.04-.05,0-.02.01-.02.02,0,.04.17.06.33.06.49t0,0s.03-.04.05-.06c0-.02.02-.02.02,0,.03.16.03.31.02.46,0,.01,0,.02.01,0,.02-.01.03-.03.05-.05,0-.02.02-.02.02,0,.02.16.01.31-.02.46,0,0,0,0,.01,0,.02,0,.05-.04.07-.07,0,0,.01,0,.01,0,0,.16-.03.31-.07.45,0,.02,0,.02.02,0l.06-.05s.02,0,.02.01c-.02.17-.07.31-.14.44-.02.03,0,.03.02.02.02-.01.04-.03.07-.04.01,0,.02,0,.01,0-.04.16-.1.3-.18.43-.01.02,0,.02,0,.01.03,0,.05-.02.07-.03.02-.01.03,0,.02.01-.05.15-.13.29-.22.43,0,.01,0,.02,0,.01.03-.01.06-.02.09-.04.01,0,.02,0,.01.01-.05.15-.12.29-.2.41-.01.02,0,.03.01.02l.07-.02s0,0,0,0c-.01.06-.03.12-.06.18-.1.22-.16.46-.18.69h0c.07-.1.12-.21.17-.32.07-.16.1-.35.15-.51,0-.02.01-.02.02,0,.02.03.03.06.06.09t0,0c.01-.16.05-.33.1-.48,0-.01.01-.01.02,0,.02.04.04.07.07.1,0,0,.01,0,.01,0,0-.16.03-.31.1-.46,0,0,0-.01,0-.02,0-.01.01-.01.02,0,.01.04.03.07.05.1,0,0,.01,0,.01,0,.03-.16.07-.31.16-.45,0,0,.01,0,.02,0l.03.09s.01.02.02,0c.04-.14.11-.28.2-.42,0-.01.01,0,.01,0,0,.03.01.07.03.1,0,0,.01,0,.02,0,.07-.14.16-.27.26-.38,0,0,0,0,.01,0,0,0,0,.01,0,.02,0,.02,0,.04.01.07,0,0,0,0,0,0,.09-.13.19-.25.31-.36,0,0,0,0,0,0,0,.02,0,.05,0,.07,0,.02,0,.02.02,0,.09-.11.2-.23.32-.33.01-.01.02-.01.02,0,0,.02,0,.04,0,.07,0,.01,0,.01.01,0,.07-.1.15-.18.26-.25.16-.11.32-.21.46-.33.02-.01.02-.01,0,0-.09.15-.15.32-.21.49-.05.13-.12.23-.2.32-.02.02-.02.03,0,.02h.07s0,0,0,0c-.08.13-.17.27-.28.39,0,0,0,.02,0,.01h.08s.01-.01,0,0c-.08.13-.17.26-.29.37,0,0,0,.01,0,.01.02,0,.04,0,.07,0,.02,0,.02,0,.01.02-.09.12-.2.23-.32.34,0,0,0,0,0,0,.03,0,.07,0,.1,0,.02,0,.02,0,0,.02-.11.1-.23.2-.37.28-.01,0-.01.01,0,.02.03,0,.06,0,.09,0,.02,0,.02,0,0,.02-.12.1-.25.18-.39.24-.03,0-.03.02,0,.02l.1.02s.02.01,0,.02c-.13.09-.28.16-.44.2-.02,0-.02.01,0,.02.03.02.07.03.11.04.02,0,.02,0,0,.02-.14.08-.29.15-.45.2,0,0,0,0,0,0,.03.02.06.03.09.03s.03.02,0,.03c-.16.09-.34.16-.49.26-.11.08-.21.16-.3.26-.01.01-.01.02,0,0,.12-.05.23-.11.34-.18.15-.1.31-.2.48-.29.01,0,.02,0,.01,0-.01.03-.02.07-.03.1,0,.02,0,.02.02,0,.12-.11.24-.22.38-.31.02,0,.02,0,.02.01v.08s0,.01,0,0c.12-.1.25-.17.39-.24.02,0,.03,0,.02.02l-.03.08s0,0,0,0h0c.13-.08.26-.14.4-.19.02,0,.03,0,.02.02l-.03.06s0,.02.01.01c.15-.06.29-.1.44-.12.01,0,.02,0,0,.01l-.05.07s0,.01,0,0c.16-.03.32-.06.48-.06,0,0,0,0,0,.01l-.05.07s0,0,0,0c.16-.03.35-.03.51-.01.14.01.28.02.41.02,0,0,0,0,0,0-.11.04-.22.1-.34.16-.16.09-.32.17-.49.22,0,0,0,.01,0,.01l.07.05s0,0,0,0c-.15.07-.31.11-.46.14,0,0,0,0,0,.01l.08.04s0,.01,0,.02c-.14.04-.29.07-.45.07-.01,0-.02,0,0,.02.02.02.03.03.06.04.02.01.02.02,0,.02-.14.01-.29.01-.45,0-.02,0-.02,0,0,.02.02.02.04.04.06.06.01.01.01.02,0,.02-.14,0-.29-.02-.45-.06-.02,0-.02,0-.01.01l.05.07s0,.01,0,.01c-.17-.03-.33-.07-.48-.12-.02,0-.02,0-.01.01.02.03.04.05.06.07.01.02,0,.03-.01.02-.07,0-.13-.01-.2-.02-.16-.03-.31-.05-.46-.06-.1,0-.19-.01-.28,0-.02,0-.02,0,0,0,.17.04.33.05.5.05,0,0,.01,0,.01.01,0,0,0,0,0,.01-.02,0-.03.02-.04.03-.01.01,0,.02,0,.02.14-.01.29,0,.45.05,0,0,0,0,0,0l-.07.05s-.01.02,0,.02c.14,0,.28.04.43.1,0,0,0,.02,0,.02l-.06.03s0,.01,0,.02c.14.05.27.13.38.23,0,0,0,.02,0,.02h-.03s-.03.02,0,.04c.03.01.06.03.08.05.1.09.21.18.32.28.01,0,.02.02.03.03,0,0,.02.02.03.03.03.02.03.03,0,.02-.07-.01-.13-.03-.18-.04-.12-.03-.23-.06-.32-.08-.03,0-.06-.02-.09-.04,0,0-.02,0-.01.01v.04s.01.03,0,.02c-.14-.03-.28-.1-.4-.17,0,0,0,0,0,0,0,.03,0,.05,0,.07,0,0,0,.01-.01.01t0,0c-.13-.08-.24-.18-.33-.29,0,0-.01,0-.01,0,0,.03,0,.05,0,.08,0,.01,0,.02-.01,0-.13-.1-.23-.22-.3-.34,0-.01-.01,0-.01,0v.06s-.01.02-.02,0c-.03-.03-.05-.05-.07-.08-.08-.12-.17-.22-.28-.31,0,0,0,0,0,0v1s0,.01,0,.01c-.05,0-.1,0-.13,0v-1.01s0,0,0,0c-.15.1-.24.24-.35.38-.02.03-.03.02-.03,0v-.05s0-.01-.02,0c-.08.13-.18.24-.3.34-.01.01-.02,0-.02,0,0-.02,0-.05,0-.08,0,0,0,0,0,0-.1.13-.21.22-.33.29-.02.01-.03,0-.02-.01,0-.02,0-.04,0-.06,0,0,0-.01-.02,0-.13.08-.26.14-.4.17-.02,0-.03,0-.02-.03,0,0,0-.02.01-.03,0-.01,0-.01-.01,0-.04.02-.08.03-.12.04-.1.03-.2.05-.29.07,0,0-.04.02-.04.02h-.16Z" fill="#006156"></path><polygon points="12.24 12.74 12.24 11.87 10.34 11.87 10.34 11.03 12.24 11.03 12.24 8.59 9.47 8.59 9.47 9.81 10.34 9.81 10.34 9.45 11.38 9.45 11.38 10.17 9.47 10.17 9.47 10.17 9.47 12.74 12.24 12.74" fill="#c7dd78"></polygon><path d="m12.59,12.74h2.78v-4.15h-2.78v4.15Zm1.92-.86h-1.05v-2.42h1.05v2.42Z" fill="#c7dd78"></path><polygon points="7.66 12.74 7.66 13.38 8.53 13.38 8.53 12.74 9.1 12.74 9.1 11.87 8.53 11.87 8.53 11.03 7.66 11.03 7.66 11.87 6.97 11.87 6.97 8.59 6.11 8.59 6.11 12.74 7.66 12.74" fill="#c7dd78"></polygon><path d="m19.55,6.25c-.33,0-.64-.05-.92-.16-.27-.1-.51-.25-.71-.45-.2-.19-.36-.43-.47-.7-.11-.27-.17-.57-.17-.9s.06-.63.17-.89c.11-.26.28-.49.48-.68.21-.19.45-.34.73-.44.28-.1.59-.15.92-.15.29,0,.56.04.79.12.23.08.44.2.62.34.15.12.28.26.4.42l-.74.38c-.1-.15-.23-.28-.38-.38-.18-.12-.41-.19-.69-.19-.26,0-.49.06-.71.17-.22.12-.39.28-.52.5-.13.22-.19.48-.19.79s.06.57.18.79c.12.22.29.4.5.52.21.12.46.18.73.18.17,0,.32-.02.46-.06.14-.04.26-.11.36-.19.1-.08.18-.17.25-.28.07-.1.12-.22.16-.34l.05-.14h-1.19v-.6h1.99c0,.3-.03.58-.11.84-.09.29-.22.54-.4.76-.18.22-.41.39-.67.51-.27.12-.58.19-.94.19Z" fill="#006156"></path><path d="m24.82,6.11l-.93-1.5h-.48v1.5h-.84V1.98h1.47c.35,0,.65.06.88.17.23.11.4.26.52.46.12.2.18.43.18.69s-.06.48-.18.68c-.12.19-.29.35-.52.46-.02,0-.03.01-.05.02-.02,0-.04.01-.06.02l-.12.05,1.1,1.59h-.97Zm-1.41-2.11h.56c.15,0,.29-.02.4-.07.12-.05.21-.13.28-.23.06-.1.1-.22.1-.36s-.03-.26-.1-.36c-.06-.1-.16-.18-.28-.23-.11-.05-.25-.08-.4-.08h-.56v1.34Z" fill="#006156"></path><polygon points="26.57 6.11 26.57 1.98 29.02 1.98 29.12 2.64 27.37 2.64 27.37 4.04 28.98 4.04 28.83 4.67 27.37 4.67 27.37 5.46 29.12 5.46 29.02 6.11 26.57 6.11" fill="#006156"></polygon><polygon points="30.03 6.11 30.03 1.98 32.48 1.98 32.57 2.64 30.83 2.64 30.83 4.04 32.44 4.04 32.29 4.67 30.83 4.67 30.83 5.46 32.57 5.46 32.48 6.11 30.03 6.11" fill="#006156"></polygon><polygon points="34.83 3.55 34.83 6.11 34.04 6.11 34.04 1.89 37.02 4.55 37.02 1.98 37.83 1.98 37.83 6.2 34.83 3.55" fill="#006156"></polygon><polygon points="24.29 11.36 24.29 7.23 26.74 7.23 26.84 7.89 25.09 7.89 25.09 9.29 26.7 9.29 26.55 9.92 25.09 9.92 25.09 10.7 26.84 10.7 26.74 11.36 24.29 11.36" fill="#006156"></polygon><polygon points="39.34 11.36 39.34 7.23 41.79 7.23 41.88 7.89 40.13 7.89 40.13 9.29 41.74 9.29 41.59 9.92 40.13 9.92 40.13 10.7 41.88 10.7 41.79 11.36 39.34 11.36" fill="#006156"></polygon><polygon points="20.4 8.88 19.02 11.47 17.28 7.23 18.3 7.23 19.21 9.57 20.4 7.15 21.6 9.57 22.5 7.23 23.52 7.23 21.78 11.47 20.4 8.88" fill="#006156"></polygon><polygon points="27.99 11.36 27.99 7.23 28.83 7.23 28.83 10.67 30.57 10.67 30.57 11.36 27.99 11.36" fill="#006156"></polygon><polygon points="31.26 11.36 31.26 7.23 32.1 7.23 32.1 10.67 33.83 10.67 33.83 11.36 31.26 11.36" fill="#006156"></polygon><polygon points="35.32 8.79 35.32 11.36 34.52 11.36 34.52 7.14 37.51 9.8 37.51 7.23 38.32 7.23 38.32 11.45 35.32 8.79" fill="#006156"></polygon><path d="m44.64,11.49c-.27,0-.52-.05-.74-.14-.23-.1-.43-.23-.6-.39-.15-.14-.26-.3-.35-.46l.57-.41c.08.12.16.23.25.33.12.12.25.22.39.29.14.07.3.1.46.1.18,0,.32-.05.44-.14.13-.1.19-.23.19-.39,0-.14-.04-.25-.11-.34-.07-.08-.17-.15-.31-.22-.13-.06-.3-.13-.52-.21-.1-.04-.22-.09-.35-.15-.13-.06-.25-.14-.36-.24-.11-.1-.2-.22-.27-.35-.07-.13-.11-.3-.11-.5,0-.23.06-.43.18-.6.12-.17.29-.3.5-.39.21-.09.46-.14.72-.14s.51.04.71.13c.2.09.37.2.5.34.1.11.19.22.26.33l-.62.35c-.05-.08-.11-.15-.18-.21-.09-.08-.19-.15-.3-.2-.11-.05-.23-.07-.35-.07-.17,0-.31.04-.41.12-.1.08-.16.19-.16.32s.05.24.15.33c.09.08.2.16.36.23.14.06.32.13.52.2.14.05.28.12.41.19.12.07.23.16.33.26.09.1.17.21.22.34.05.13.08.28.08.44,0,.2-.04.38-.12.54-.08.16-.19.29-.33.4-.14.11-.3.19-.48.25-.18.06-.37.09-.56.09Z" fill="#006156"></path><path d="m48.51,11.49c-.27,0-.52-.05-.74-.14-.23-.1-.43-.23-.6-.39-.15-.14-.26-.3-.35-.46l.57-.41c.08.12.16.23.25.33.12.12.25.22.39.29.14.07.3.1.46.1.18,0,.32-.05.44-.14.13-.1.19-.23.19-.39,0-.14-.04-.25-.11-.34-.07-.08-.17-.15-.31-.22-.13-.06-.3-.13-.52-.21-.1-.04-.22-.09-.35-.15-.13-.06-.25-.14-.36-.24-.11-.1-.2-.22-.27-.35-.07-.13-.11-.3-.11-.5,0-.23.06-.43.18-.6.12-.17.29-.3.5-.39.21-.09.46-.14.72-.14s.51.04.71.13c.2.09.37.2.5.34.1.11.19.22.26.33l-.62.35c-.05-.08-.11-.15-.18-.21-.09-.08-.19-.15-.3-.2-.11-.05-.23-.07-.35-.07-.17,0-.31.04-.41.12-.1.08-.16.19-.16.32s.05.24.15.33c.09.08.2.16.36.23.14.06.32.13.52.2.14.05.28.12.41.19.12.07.23.16.33.26.09.1.17.21.22.34.05.13.08.28.08.44,0,.2-.04.38-.12.54-.08.16-.19.29-.33.4-.14.11-.3.19-.48.25-.18.06-.37.09-.56.09Z" fill="#006156"></path><path d="m39.95,3.82c-.08-.03-.27.1-.33.14-.22.17-.38.36-.49.57-.12.23-.21.56-.12.81.04.11.14.2.26.16.23-.08.39-.31.5-.52.04-.07.12-.09.15,0,.03.1.01.21-.05.31-.18.28-.42.4-.74.36-.14-.02-.27-.11-.35-.23-.12-.2-.13-.45-.07-.68.11-.4.39-.76.74-.99.15-.1.42-.19.58-.08.15.11.26.31.18.5-.05.12-.1.24-.15.36-.01.03-.05.05-.09.03-.15-.07-.16-.24-.1-.38.03-.08.12-.26.09-.34,0-.01-.01-.02-.02-.02h0Z" fill="#c7dd78"></path><path d="m41.08,5.15c-.17.02-.34.04-.51.04-.02,0-.04.01-.05.03-.07.13-.13.26-.19.38-.02.05-.06.08-.09.08,0,0-.02,0-.02,0-.06-.07-.08-.14-.05-.23.03-.1.06-.2.1-.28,0-.01,0-.03,0-.04-.04-.03-.07-.07-.08-.12,0-.02,0-.05.03-.04h.12s.05,0,.06-.02c.27-.46.6-.92.99-1.28.05-.04.11-.05.16,0,.1.12.13.25.08.4-.09.28-.16.56-.22.85,0,.01,0,.02.01.03.07.04.11.1.13.18,0,.02,0,.04-.03.04-.04,0-.08,0-.13-.02-.02,0-.03,0-.03.02l-.04.47s-.02.04-.05.04c-.22-.03-.19-.36-.18-.51,0-.01,0-.02-.02-.02m.19-.98c-.21.25-.39.51-.57.77,0,0,0,.01,0,.01,0,0,.02,0,.02,0,.12-.01.25-.03.38-.05.02,0,.03-.01.03-.03.04-.26.09-.49.15-.7.01-.04,0-.04-.02-.01h0Z" fill="#c7dd78"></path><path d="m45.57,5.15c-.16.02-.33.04-.51.04-.02,0-.03,0-.04.02-.07.13-.13.26-.2.4-.02.04-.05.06-.08.07,0,0-.02,0-.02,0-.13-.14-.03-.37.05-.52,0-.01,0-.02,0-.03-.04-.04-.09-.08-.09-.15,0-.01.01-.02.02-.02h.14s.04,0,.05,0c.27-.45.59-.91.98-1.27.05-.04.11-.08.16-.02.11.12.14.26.09.42-.09.27-.16.55-.21.84,0,.02,0,.03.02.04.06.04.1.1.12.17,0,.02,0,.04-.03.04-.04,0-.09,0-.13-.02-.01,0-.03,0-.03.02-.01.14-.03.3-.04.46,0,.04-.02.05-.06.04-.2-.04-.17-.36-.17-.51,0-.01,0-.02-.02-.02m-.39-.2s0,.01,0,.01l.42-.05s0,0,0,0l.16-.75s0-.01-.01,0l-.58.8h0Z" fill="#c7dd78"></path><path d="m48.54,4.13c-.31.54-.57,1.03-.81,1.52-.01.03-.05.04-.07.02-.13-.11-.08-.32-.02-.46.16-.38.37-.79.63-1.22.07-.12.14-.22.2-.31.04-.06.08-.06.12,0,.04.07.05.16.02.27-.02.08-.05.14-.07.19h0Z" fill="#c7dd78"></path><path d="m47.23,4.82c.17.13.19.34.07.5-.12.16-.32.26-.51.33-.23.08-.44.05-.57-.17-.08-.13,0-.3.06-.43.14-.35.32-.68.52-.99,0-.01,0-.02-.01-.03-.08-.01-.14-.06-.18-.14-.01-.03,0-.06.04-.07.05,0,.1-.01.15-.03.12-.04.24-.07.36-.11.25-.08.54-.1.63.21.12.41-.22.72-.54.89-.01,0-.01.02,0,.03m-.15-.8c-.03.22-.18.44-.3.63-.01.02,0,.02.01.02.29-.09.73-.32.8-.64.03-.12-.07-.16-.17-.13-.11.03-.22.06-.33.1,0,0-.02.01-.02.02m-.45.91c-.08.15-.14.29-.18.42,0,.03-.01.06-.01.09,0,.01.01.02.02.02.23.02.62-.21.68-.42.04-.12-.15-.15-.22-.14-.08.01-.17.02-.26.01-.02,0-.03,0-.03.02h0Z" fill="#c7dd78"></path><path d="m42.37,4.47s0,0,0,0c-.22.38-.41.77-.57,1.17-.03.07-.07.08-.12.02,0,0-.01-.02-.02-.03-.04-.06-.05-.13-.04-.21.01-.08.04-.17.09-.27.19-.42.42-.88.7-1.36.02-.04.05-.08.08-.12.01-.02.04-.02.06-.01.19.1.19.24.16.43-.05.3-.08.58-.09.86,0,.05,0,.05.03,0,.2-.42.43-.83.68-1.24.02-.03.04-.05.07-.07,0,0,.02,0,.03,0,.13.09.07.33,0,.45-.27.46-.53.97-.8,1.53-.03.06-.07.07-.12.04-.09-.05-.15-.13-.16-.24-.04-.32,0-.65.02-.97h0Z" fill="#c7dd78"></path><path d="m43.89,4.48s0-.02-.01,0c-.22.38-.41.76-.57,1.16,0,.02-.02.04-.03.05-.03.02-.05.02-.08-.01-.11-.12-.07-.3,0-.44.22-.5.48-1.01.79-1.52.01-.02.03-.04.05-.05.02,0,.04,0,.05,0,.13.08.19.19.16.35-.05.32-.08.64-.1.95,0,.04,0,.04.02,0,.21-.44.45-.86.71-1.28.02-.03.05-.03.08-.01.12.09.04.35-.02.46-.28.49-.55.99-.79,1.51-.02.05-.06.06-.12.03-.08-.04-.13-.1-.15-.18-.02-.09-.03-.21-.03-.35,0-.21.01-.43.03-.67h0Z" fill="#c7dd78"></path><path d="m49.76,3.92s-.02-.04-.04-.03c-.07.01-.13.04-.2.07-.23.13-.49.34-.58.59-.04.1-.01.19.07.27.13.12.3.21.45.29.12.07.14.19.08.3-.16.31-.53.35-.82.23-.2-.08-.37-.21-.5-.37-.04-.04,0-.09.05-.1.15-.02.27.01.38.11.1.09.23.17.36.21.08.02.27.03.3-.07.01-.04,0-.08-.06-.12-.17-.11-.3-.19-.39-.26-.14-.1-.25-.23-.24-.41.01-.31.25-.56.49-.74.17-.12.39-.25.6-.22.11.01.19.09.26.23.09.17.04.29-.06.44-.07.11-.15.23-.23.36-.02.03-.05.04-.08.02-.16-.11-.12-.29-.03-.43.05-.08.11-.17.16-.26.02-.03.03-.07.03-.11h0Z" fill="#c7dd78"></path></svg>