<svg xmlns="http://www.w3.org/2000/svg" id="Layer_1" data-name="Layer 1" viewBox="0 0 49.95 17.42"><g><path d="m16.35,10.01c-.2.01-.39.02-.58.05-.25.04-.49.09-.73.14-.52.12-1.02.31-1.5.55-.11.06-.22.11-.33.18-.21.13-.42.26-.63.4-.03.02-.05.05-.08.09-.05,0-.09.03-.17.09-.11.1-.23.19-.34.29-.03.03-.05.05-.05.09,0,0,0,.01-.01.02-.01,0-.02-.02-.04-.03-.16.17-.33.33-.48.5-.15.17-.3.35-.44.54-.14.19-.27.39-.4.59-.12.2-.23.41-.33.62-.1.21-.19.42-.28.63-.25-1-.66-1.93-1.2-2.8,2.36-3.46,5.93-4.09,7.32-4.21.13,0,.27,0,.4-.01.07,0,.13,0,.19-.01v-.73c-5.2-.05-7.97,3.82-7.97,3.82v-4.15s.04,0,.06,0c.23,0,.45,0,.68-.02.13,0,.25-.03.38-.04.33-.05.64-.14.95-.25.3-.11.59-.25.87-.41.02-.01.04-.03.06-.04.03-.02.05-.03.09-.05.93-.57,1.42-1.23,1.42-1.23h0c.25-.29.47-.6.66-.93.17-.31.31-.63.42-.96.09-.27.15-.54.19-.82.02-.15.05-.3.05-.45,0-.27.02-.54-.03-.81-.02-.11-.05-.22-.08-.32,0-.02-.03-.04-.04-.05-.19-.04-.37-.11-.57-.09-.07,0-.15,0-.22,0-.22,0-.44-.02-.66.02-.24.04-.48.08-.71.14-.12.03-.24.08-.36.11-.12.03-.23.1-.35.14-.11.04-.21.09-.31.15-.14.08-.29.16-.43.25-.15.09-.3.19-.44.29-.25.19-.48.4-.7.62-.04.04-.06.08-.1.12-.07.08-.15.15-.22.24-.14.17-.28.34-.39.53-.1.18-.22.35-.32.52-.07.11-.11.24-.17.36-.01.03-.03.06-.05.09h-.02s-.04-.09-.06-.14c-.1-.25-.24-.49-.39-.72-.14-.21-.3-.42-.45-.62-.1-.13-.21-.25-.32-.37-.13-.14-.27-.27-.41-.4-.16-.14-.33-.26-.5-.38-.21-.14-.43-.27-.65-.39-.14-.07-.28-.13-.42-.19-.02,0-.05,0-.07,0-.03-.01-.05-.04-.08-.05-.17-.05-.35-.1-.53-.16-.36-.1-.73-.13-1.1-.16-.1,0-.21.01-.31.02-.2,0-.4.04-.6.09-.1.02-.1.02-.11.13,0,.01,0,.02,0,.04-.04.2-.06.41-.07.62,0,.12,0,.24.01.37,0,.22.04.44.08.66.06.33.15.65.28.96.17.43.39.83.67,1.2.08.11.16.22.25.33.1.12.21.23.31.34.07.07.14.13.21.2.09.08.18.17.27.25.17.14.35.27.53.39.27.19.57.34.87.47.35.15.71.26,1.08.33.25.05.5.08.75.08.14,0,.29,0,.43,0,.02,0,.04,0,.07,0v4.21s-.03-.01-.04-.02c0,0-2.08-3.05-6.33-3.73-.28-.05-.55-.09-.83-.11-.26-.02-.53-.02-.79-.03-.02,0-.05,0-.07,0-.02.12-.01.66.01.72.18,0,.35,0,.53.01.06,0,.11,0,.18.01.03,0,.06,0,.1,0,.9.09,2.43.37,3.99,1.28.13.07.25.15.38.23.06.04.11.08.17.11.17.11.33.23.49.35.09.07.17.14.26.21.1.08.2.17.29.25.16.15.32.3.48.47.02.02.03.04.05.05.18.2.36.4.53.63.06.08.12.15.18.23.12.16.24.32.35.5.11.17.21.35.31.52.1.18.2.36.28.54.09.18.17.37.25.56.08.19.14.38.21.57.06.19.12.39.17.58.05.2.1.39.14.59.04.2.07.4.1.6.03.2.05.4.06.61.01.2.01.4.02.61h.73s0-.05,0-.07c0-.14.01-.28.01-.42,0-.3.06-.59.12-.88.07-.36.18-.7.31-1.04.12-.3.26-.59.42-.86.07-.12.14-.24.2-.37,0,0,.01,0,.02-.01.02-.02.05-.05.07-.07.11-.14.21-.28.32-.42.04-.05.09-.1.13-.15.11-.12.22-.24.33-.36.09-.09.19-.18.3-.26.18-.15.36-.3.56-.44.2-.14.4-.27.62-.38.24-.13.5-.24.75-.36.11-.05.23-.09.34-.12.17-.05.33-.08.5-.13.3-.08.6-.11.9-.15.14-.02.28-.01.42-.02.04,0,.07,0,.11,0v-.73c-.12,0-.24.01-.36.02Zm-7.59-4.78c.04-.43.16-.84.32-1.24.1-.25.22-.48.36-.7.13-.19.25-.38.4-.56.14-.18.3-.34.47-.5.08-.07.14-.15.22-.21.12-.1.25-.19.38-.28.18-.12.37-.23.56-.34.09-.06.19-.09.29-.13.1-.05.2-.08.3-.12.24-.08.49-.15.74-.19.12-.02.25-.03.37-.04.13,0,.25-.01.38-.01.07,0,.15.01.22.02,0,.02.01.03.01.05,0,.19.01.37,0,.56-.03.35-.09.69-.2,1.01-.08.22-.17.44-.27.66-.12.26-.28.5-.45.73-.1.13-.21.26-.32.39-.13.16-.28.3-.43.44-.06.06-.12.12-.19.17-.41.28-.82.55-1.28.73-.29.11-.59.19-.89.25-.25.04-.5.06-.75.05-.06,0-.11,0-.17,0-.02,0-.05,0-.07,0-.04-.25-.02-.49,0-.73Zm-.74.7s0,.02-.01.04c-.04,0-.09,0-.13,0-.06,0-.12.01-.17.01-.05,0-.09-.01-.14-.01-.3,0-.6-.06-.89-.13-.37-.09-.71-.23-1.04-.41-.05-.03-.11-.04-.15-.08-.05-.04-.11-.07-.16-.1-.05-.03-.1-.06-.15-.1-.17-.13-.35-.27-.52-.4-.19-.15-.36-.33-.51-.52-.11-.13-.21-.26-.31-.4-.1-.15-.2-.3-.28-.46-.21-.37-.36-.77-.45-1.19-.08-.35-.12-.71-.11-1.08,0-.06,0-.11.02-.17.11,0,.22-.01.32-.01.11,0,.21,0,.32.02.11,0,.21.02.32.04.1.02.21.04.31.06.1.03.21.06.31.09.1.03.19.07.29.08.02.02.04.04.06.05.23.09.44.21.65.33.03.02.07.03.11.05.02.02.05.05.08.07.16.12.33.24.49.37.22.18.41.38.6.59.35.41.63.87.84,1.37.12.3.21.62.27.94.05.28.07.57.07.85,0,.04,0,.08,0,.12Z" fill="currentColor"></path><path d="m7.14,16.27c-.03-.29-.09-.57-.17-.85-.08-.28-.18-.56-.28-.83-.17-.46-.4-.88-.66-1.29-.16-.25-.34-.5-.54-.73-.12-.13-.24-.27-.36-.4-.06-.07-.13-.13-.2-.19-.07-.06-.14-.12-.21-.18-.13-.11-.26-.23-.39-.33-.2-.15-.41-.29-.62-.42-.28-.17-.57-.33-.87-.45-.21-.09-.42-.17-.63-.24-.15-.05-.31-.1-.47-.13-.21-.05-.43-.09-.64-.13-.16-.03-.32-.04-.48-.06-.1-.01-.2-.02-.3-.02-.11,0-.21,0-.32,0v.71s.07.02.11.02c.09,0,.17,0,.26,0,.18.02.35.03.53.06.18.03.35.06.52.09.34.07.68.17,1,.31.17.07.34.15.51.24.35.17.67.38.97.61.26.2.51.42.74.66.25.26.48.54.69.84.23.33.42.67.58,1.04.15.33.27.67.36,1.02.07.28.12.56.15.85.02.21.04.42.03.64,0,.03,0,.07,0,.1h.75c0-.07-.02-.13-.02-.19,0-.25-.03-.5-.06-.74Z" fill="currentColor"></path><path d="m4.16,16.6c-.05-.28-.11-.57-.23-.83-.08-.17-.14-.34-.23-.5-.18-.33-.41-.63-.68-.9-.15-.15-.31-.29-.49-.42-.31-.23-.65-.41-1.02-.53-.06-.02-.12-.03-.18-.05-.07-.02-.14-.05-.21-.07-.21-.04-.42-.08-.64-.11-.1-.01-.2,0-.31,0v.71c.9.02,1.67.34,2.31.97.64.64.97,1.41.97,2.33.04,0,.08.01.11.01.18,0,.35,0,.53,0,.08,0,.1-.02.1-.11,0-.04-.01-.09-.02-.13-.01-.12-.01-.25-.04-.37Z" fill="currentColor"></path><path d="m15.98,13.24c-.34.06-.66.17-.98.31-.1.04-.19.09-.28.16-.06.05-.14.07-.21.11-.25.17-.49.36-.7.58-.11.12-.22.25-.33.38-.02.02-.02.05-.03.07-.02.02-.05.04-.07.07-.08.13-.16.25-.23.38-.31.56-.45,1.17-.48,1.8,0,.03,0,.06,0,.09h.74c0-.91.33-1.69.96-2.33.63-.64,1.42-.96,2.32-.98v-.72s-.04,0-.06,0c-.22,0-.44.02-.66.06Z" fill="currentColor"></path></g><g><path d="m38.22,5.98v-1.04h.58V1.23h-.58V.17s.08,0,.12,0c.89,0,1.77,0,2.66,0,.46,0,.88.13,1.23.43.41.36.61.83.6,1.38,0,.26-.05.52-.2.74-.09.13-.22.24-.33.37,0,0,0,.02.02.02.48.33.63.8.55,1.36-.09.63-.42,1.09-1,1.36-.22.1-.46.15-.71.15-.95,0-1.9,0-2.84,0-.03,0-.06,0-.09,0Zm1.86-2.4v1.34s.02.01.03.01c.32,0,.64,0,.96,0,.11,0,.22-.05.3-.14.19-.21.24-.46.18-.73-.07-.32-.28-.48-.6-.48-.24,0-.49,0-.73,0-.04,0-.08,0-.14,0Zm0-1.05s.07,0,.11,0c.26,0,.51,0,.77,0,.16,0,.28-.06.38-.17.18-.21.23-.46.13-.72-.11-.3-.29-.41-.61-.41-.22,0-.43,0-.65,0-.04,0-.08,0-.13,0v1.29Z" fill="currentColor"></path><path d="m36.96,3.1c.3.19.5.43.57.75.17.78-.2,1.62-.93,1.96-.23.11-.48.17-.74.17-.96,0-1.92,0-2.88,0-.02,0-.04,0-.08,0v-1.04h.58V1.22h-.58V.17s.08,0,.11,0c.89,0,1.79,0,2.68,0,.41,0,.78.1,1.11.35.48.36.7.85.7,1.44,0,.27-.04.53-.2.75-.08.11-.18.2-.28.3-.03.03-.05.05-.08.08Zm-2.19,1.84s.07,0,.1,0c.28,0,.56,0,.83,0,.15,0,.27-.06.37-.17.18-.2.23-.44.17-.7-.07-.32-.28-.48-.61-.49-.25,0-.5,0-.75,0-.04,0-.07,0-.11,0v1.34Zm0-3.71v1.3c.33,0,.64,0,.96,0,.11,0,.19-.06.27-.14.26-.26.28-.68.03-.97-.11-.13-.24-.2-.41-.19-.18,0-.36,0-.54,0-.1,0-.2,0-.31,0Z" fill="currentColor"></path><path d="m21.43,5.98v-1.04h.45V1.22h-.45V.19s.05-.01.08-.01c.75,0,1.49-.01,2.24,0,.83.02,1.52.37,2.06,1,.51.6.73,1.31.68,2.09-.03.57-.22,1.09-.57,1.55-.45.6-1.05.99-1.8,1.11-.18.03-.37.04-.56.04-.67,0-1.34,0-2.01,0h-.13Zm1.73-4.75v3.69c.23,0,.45.02.67,0,.44-.06.77-.32,1-.69.34-.54.4-1.13.25-1.74-.09-.34-.25-.64-.51-.89-.4-.38-.89-.41-1.4-.37Z" fill="currentColor"></path><path d="m43.63,5.02h-.38v-1.13h1.37c0,.07,0,.14,0,.22,0,.19.05.38.18.53.1.12.23.19.38.23.19.05.38.06.58.02.34-.06.55-.4.45-.73-.04-.13-.12-.23-.24-.28-.19-.09-.38-.16-.58-.23-.29-.1-.59-.19-.88-.29-.27-.1-.51-.25-.71-.47-.26-.29-.4-.63-.42-1.01-.01-.26,0-.51.1-.75.18-.47.52-.78.98-.95.52-.19,1.05-.23,1.58-.1.29.07.56.18.79.37.17.14.33.28.43.48.03.06.07.07.13.07.09,0,.18,0,.28,0v1.14h-1.37c0-.06,0-.13,0-.19.02-.3-.13-.51-.38-.65-.27-.16-.56-.17-.85-.07-.35.13-.39.46-.29.7.05.11.14.19.26.23.18.07.37.13.56.19.36.12.72.23,1.07.37.53.21.84.61.93,1.17.08.49,0,.95-.28,1.37-.25.36-.6.59-1.01.72-.56.17-1.12.16-1.67-.03-.24-.09-.46-.22-.65-.4-.16-.15-.28-.32-.37-.52Z" fill="currentColor"></path><path d="m30.48,4.1h-1.79c-.09.27-.17.54-.26.83h.61v1.04h-2.19v-1.03h.43c.27-.8.53-1.59.79-2.38.26-.79.53-1.58.79-2.38h1.54c.51,1.58,1.03,3.16,1.55,4.75h.41v1.04h-2.18v-1.04h.57c-.09-.29-.17-.56-.26-.83Zm-.31-.99c-.2-.63-.39-1.24-.58-1.85h-.02c-.19.61-.38,1.23-.57,1.85h1.17Z" fill="currentColor"></path><path d="m20.64,15.45v-2.75c-.08-.05-.16-.09-.24-.13-.07-.04-.1-.09-.08-.18.03-.12.04-.25.05-.39.04,0,.08,0,.11,0,.47,0,.94-.01,1.4,0,.56.02,1.06.2,1.45.62.22.24.36.54.42.86.09.44.09.88,0,1.32-.06.28-.16.55-.36.77-.23.26-.52.44-.87.51-.2.04-.4.07-.6.07-.49.01-.97,0-1.46,0-.03,0-.06,0-.1,0-.02-.16-.05-.31-.06-.46,0-.03.04-.07.07-.09.08-.05.16-.09.25-.14Zm.87.07c.24-.01.46,0,.68-.05.35-.06.58-.27.66-.63.02-.11.05-.22.06-.32.03-.38.03-.75-.08-1.12-.08-.26-.22-.48-.47-.62-.27-.15-.55-.14-.85-.13v2.86Z" fill="currentColor"></path><path d="m40.16,10.96c-.16.2-.37.17-.59.16,0-.05,0-.1,0-.15,0-1.17,0-2.34,0-3.5,0-.09,0-.16-.11-.18-.03,0-.05-.03-.08-.04-.12-.06-.18-.15-.14-.29.03-.1.03-.2.04-.31.38-.1.76-.11,1.16-.06v1.57c.05-.03.08-.04.12-.06.4-.21.82-.23,1.25-.09.26.09.44.27.53.53.14.39.16.79.12,1.19-.02.19-.06.38-.12.56-.17.49-.53.76-1.03.86-.36.07-.7.02-1.03-.13-.03-.02-.07-.03-.12-.05Zm1.21-.58s.02-.06.04-.1c.07-.13.12-.27.13-.42,0-.25,0-.51,0-.76,0-.09-.03-.17-.05-.26-.05-.14-.15-.23-.31-.25-.22-.02-.43.02-.63.13-.08.04-.11.1-.11.19,0,.46,0,.93,0,1.39,0,.04,0,.07,0,.12.31.12.62.18.92-.05Z" fill="currentColor"></path><path d="m29.76,16.16v.52s.1.03.15.05c.05.02.11.04.16.07.1.05.17.11.13.24-.03.1-.03.21-.04.32h-1.51c-.02-.14-.04-.28-.05-.41,0-.03.03-.08.06-.1.08-.05.16-.1.26-.15v-2.88c-.09-.05-.17-.1-.26-.15-.05-.03-.07-.08-.05-.15.02-.12.03-.23.05-.36.34-.1.68-.08,1.03-.07v.3c.05-.03.09-.05.12-.07.36-.21.74-.26,1.14-.16.33.08.54.29.63.61.14.5.17,1.01,0,1.51-.17.54-.56.83-1.11.92-.21.04-.42.02-.62-.01-.03,0-.05,0-.09-.01Zm0-.61c.12.02.22.03.33.04.27.03.47-.08.6-.32.08-.15.12-.32.14-.49.03-.24.01-.47-.03-.7-.04-.19-.15-.3-.33-.32-.21-.02-.41.02-.61.12-.07.04-.09.08-.09.16,0,.41,0,.83,0,1.24v.27Z" fill="currentColor"></path><path d="m31.83,10.42c.1.06.18.1.26.15.06.04.09.08.07.16-.02.13-.04.26-.05.39h-1.45c-.02-.15-.04-.29-.05-.44,0-.03.04-.08.07-.11.08-.06.17-.1.27-.15,0-.02,0-.06,0-.09,0-.38,0-.75,0-1.13,0-.08,0-.17-.02-.25-.03-.22-.12-.31-.34-.34-.24-.03-.47.02-.67.16-.02.02-.05.05-.05.08,0,.52,0,1.04,0,1.56,0,0,0,0,0,0,.09.05.18.1.27.16.05.03.07.08.06.15-.02.13-.04.26-.05.4h-1.45c-.02-.15-.05-.3-.06-.45,0-.03.03-.08.07-.1.08-.06.18-.1.27-.16v-1.74c-.09-.06-.18-.11-.27-.17-.05-.03-.07-.08-.06-.15.02-.13.04-.26.05-.39.21-.09.79-.12,1.08-.07v.29s.08-.04.1-.06c.39-.23.81-.28,1.26-.19.4.08.59.36.64.74.03.18.04.37.04.56,0,.35,0,.69,0,1.04,0,.04,0,.08,0,.12Z" fill="currentColor"></path><path d="m32.74,8.68c-.1-.06-.19-.11-.28-.17-.03-.02-.06-.07-.06-.1.01-.14.03-.29.05-.44.35-.09.71-.09,1.08-.07v.3s.06-.03.09-.04c.4-.24.82-.3,1.27-.2.35.07.56.3.63.65.04.22.06.44.06.67.01.34,0,.68,0,1.02,0,.04,0,.08,0,.12.09.05.18.1.26.15.06.04.09.08.07.16-.02.13-.04.26-.05.39h-1.45c-.02-.15-.04-.29-.05-.44,0-.03.03-.08.07-.11.08-.06.18-.1.27-.16,0-.03,0-.07,0-.1,0-.37,0-.74,0-1.11,0-.09,0-.18-.02-.27-.03-.2-.13-.3-.33-.33-.24-.03-.46.02-.66.16-.03.02-.06.06-.06.1,0,.51,0,1.03,0,1.54,0,0,0,.01,0,.02.09.05.18.1.26.16.05.03.07.08.06.14-.02.13-.04.26-.05.4h-1.45c-.02-.15-.04-.3-.05-.44,0-.03.04-.08.07-.11.08-.06.17-.1.26-.15v-1.74Z" fill="currentColor"></path><path d="m24.86,10.24c.07.18.15.35.22.55-.09.05-.17.09-.26.13-.6.26-1.22.34-1.86.2-.54-.11-.87-.46-1.02-.99-.13-.47-.16-.94-.13-1.42.02-.29.06-.57.15-.84.21-.59.61-.97,1.23-1.1.66-.14,1.28,0,1.87.35,0,.32-.05.62-.17.92h-.6c-.09-.16-.1-.34-.13-.53-.07-.02-.15-.05-.22-.05-.18,0-.36-.03-.53,0-.31.06-.48.3-.57.58-.09.28-.1.57-.1.86,0,.28,0,.56.08.83.05.22.14.42.33.56.16.12.34.16.54.15.37-.01.74-.05,1.09-.18.02,0,.04,0,.07-.01Z" fill="currentColor"></path><path d="m36.13,15.48c.08.05.16.09.24.14.06.04.09.09.07.16-.02.12-.03.24-.05.37h-1.39c-.02-.14-.04-.28-.05-.42,0-.04.03-.09.06-.11.08-.05.16-.1.25-.15v-1.66c-.09-.05-.17-.1-.26-.15-.05-.03-.07-.07-.06-.13.02-.12.03-.25.05-.39.34-.09.68-.09,1.04-.07v.28s.06-.03.08-.04c.41-.25.85-.29,1.31-.16.22.06.37.21.46.43.07.19.1.39.1.59,0,.38,0,.76,0,1.14,0,.05,0,.1,0,.15.08.04.16.09.23.13.08.04.11.1.09.2-.02.11-.03.23-.05.35h-1.39c-.02-.14-.04-.28-.05-.43,0-.03.03-.08.06-.1.08-.05.16-.1.25-.15,0-.01,0-.03,0-.05,0-.4,0-.81,0-1.21,0-.37-.15-.5-.53-.47-.16.01-.31.06-.43.16-.03.02-.06.06-.06.1,0,.48,0,.97,0,1.45,0,0,0,.01,0,.03Z" fill="currentColor"></path><path d="m37.1,8.59c-.03.14-.05.27-.08.4h-.63c-.11-.24-.11-.5-.1-.76.17-.1.35-.17.54-.22.42-.11.84-.13,1.26-.04.42.09.65.35.69.78.02.22.02.44.02.66,0,.32,0,.63,0,.95.12.04.23.07.34.11v.55c-.29.12-.59.15-.91.15-.04-.12-.07-.25-.11-.37-.07.06-.13.12-.19.17-.17.13-.37.18-.58.2-.3.03-.59,0-.85-.17-.34-.22-.45-.59-.36-.97.08-.35.33-.54.67-.62.23-.05.46-.04.69-.04.13,0,.26,0,.4,0,0-.16.02-.31,0-.45-.03-.21-.15-.31-.37-.34-.15-.02-.3-.02-.45.03Zm.84,1.22c-.22.01-.43.01-.64.04-.16.02-.25.14-.26.3,0,.19.07.33.23.37.22.05.44.02.62-.13.02-.02.04-.05.04-.08,0-.16,0-.31,0-.5Z" fill="currentColor"></path><path d="m26.27,9h-.63c-.02-.07-.06-.13-.07-.2-.02-.15-.02-.3-.04-.45,0-.08.03-.12.1-.16.39-.18.79-.27,1.22-.26.19,0,.38.02.56.07.37.1.57.35.62.72.02.11.02.22.03.33,0,.4,0,.8,0,1.2,0,.04,0,.08,0,.13.12.04.23.07.34.11v.55c-.29.13-.59.15-.91.15-.04-.12-.07-.24-.11-.37-.08.06-.14.13-.22.18-.16.11-.34.16-.54.18-.31.03-.61,0-.89-.18-.23-.16-.36-.38-.37-.66-.01-.34.1-.63.41-.81.16-.09.33-.14.51-.14.24-.01.49,0,.73-.01.05,0,.09,0,.15,0,0-.18.03-.36-.04-.53-.06-.17-.19-.24-.36-.26-.15-.02-.3-.02-.45.03-.03.13-.05.27-.08.4Zm.92.83c-.18,0-.35,0-.51,0-.06,0-.12.02-.18.04-.15.05-.22.17-.21.35.01.16.11.29.25.31.21.04.4,0,.58-.12.03-.02.06-.06.07-.1,0-.16,0-.32,0-.49Z" fill="currentColor"></path><path d="m46.81,16.43h.51c.03.14.07.28.1.43.08.03.15,0,.21-.07.15-.17.22-.37.26-.58,0-.03-.01-.06-.02-.09-.31-.73-.62-1.46-.93-2.2-.03-.06-.06-.1-.12-.12-.08-.04-.16-.08-.24-.13-.05-.03-.07-.07-.06-.13.02-.13.03-.25.05-.38h1.38c.02.14.04.28.05.41,0,.03-.03.07-.05.09-.06.05-.13.09-.2.13.17.52.4,1.01.5,1.58.05-.03.09-.05.09-.07.1-.51.32-.98.47-1.48-.06-.04-.13-.07-.19-.11-.08-.05-.12-.1-.1-.21.03-.11.03-.22.05-.35h1.32c.02.13.04.26.05.4,0,.03-.02.09-.05.11-.07.05-.15.11-.23.14-.09.03-.13.09-.16.17-.3.72-.6,1.43-.91,2.14-.12.29-.26.57-.4.84-.16.3-.44.45-.77.46-.24,0-.49-.04-.69-.2-.05-.04-.07-.08-.07-.14,0-.22.04-.44.14-.65Z" fill="currentColor"></path><path d="m43.79,15.43c.12.04.22.07.33.11v.52c-.27.12-.56.14-.87.14-.04-.12-.07-.24-.11-.36-.37.38-.81.43-1.28.31-.3-.08-.53-.27-.6-.59-.05-.23-.04-.46.09-.67.13-.21.33-.34.58-.38.16-.02.33-.03.5-.04.17,0,.34,0,.53,0,0-.18.02-.36-.04-.52-.06-.16-.19-.22-.35-.23-.13,0-.27,0-.41,0-.03.14-.05.27-.07.4h-.6c-.11-.23-.11-.47-.1-.72.24-.13.49-.22.75-.26.34-.06.67-.06,1.01.02.42.1.62.38.64.81.02.44,0,.88.01,1.31,0,.05,0,.09,0,.15Zm-.84-.51c-.2,0-.39-.01-.58,0-.18.02-.27.13-.28.29-.01.18.07.32.23.36.21.05.41,0,.58-.13.02-.02.05-.05.05-.07,0-.15,0-.3,0-.46Z" fill="currentColor"></path><path d="m47.05,8.11c.02.26-.02.49-.13.72h-.51c-.03-.07-.06-.15-.08-.23-.02-.06-.04-.08-.1-.09-.17-.03-.33-.04-.5,0-.1.02-.18.07-.2.18-.02.11.02.2.11.25.09.05.18.1.28.13.22.07.45.12.67.19.28.09.5.25.59.54.15.51-.05,1.07-.6,1.26-.15.05-.31.09-.47.1-.38.03-.76.01-1.13-.09-.08-.02-.16-.06-.25-.09-.03-.27,0-.52.13-.76h.52c.04.1.07.2.12.31.23.05.46.06.69-.01.1-.03.18-.09.21-.21.03-.12,0-.21-.11-.26-.08-.04-.16-.07-.24-.1-.27-.09-.55-.16-.81-.27-.26-.11-.45-.29-.5-.59-.08-.46.05-.84.56-1.06.2-.09.42-.12.63-.12.34,0,.68.02,1.01.14.04.01.07.03.11.04Z" fill="currentColor"></path><path d="m32.88,14.85c0,.16.04.3.11.43.11.18.28.24.47.26.31.03.61-.02.91-.18.06.16.12.31.18.48-.06.05-.11.11-.18.15-.53.27-1.07.3-1.63.09-.1-.04-.17-.12-.25-.17-.19-.12-.29-.31-.37-.5-.08-.2-.11-.42-.11-.64,0-.27.02-.53.11-.79.1-.28.27-.51.53-.66.46-.26.94-.29,1.43-.09.24.1.39.3.46.55.07.24.09.48.07.72-.01.19-.13.31-.33.33-.07,0-.14.01-.22.01-.35,0-.71,0-1.06,0-.04,0-.07,0-.13,0Zm.96-.54c0-.06.01-.1.02-.15.01-.2-.09-.38-.25-.43-.21-.07-.47,0-.58.15-.09.13-.13.29-.14.46.32-.01.63-.02.95-.03Z" fill="currentColor"></path><path d="m40.78,13.28c.02.24-.02.46-.12.68h-.5c-.03-.07-.05-.14-.08-.21-.01-.03-.04-.07-.07-.08-.16-.03-.33-.05-.5,0-.09.02-.17.07-.19.18-.02.1.03.18.11.24.07.05.14.09.22.11.22.07.45.12.67.19.18.06.34.15.46.3.23.3.22.8-.02,1.1-.16.21-.37.33-.62.38-.49.09-.98.08-1.46-.08-.05-.02-.09-.04-.14-.06-.02-.25.02-.49.13-.72h.5c.03.09.07.19.11.3.21.05.42.05.64,0,.04-.01.09-.03.12-.06.15-.11.14-.32-.02-.41-.08-.04-.16-.07-.24-.09-.26-.09-.52-.15-.77-.26-.48-.22-.63-.85-.32-1.26.14-.19.34-.3.56-.35.49-.12.98-.08,1.46.09.02,0,.03.02.05.03Z" fill="currentColor"></path><path d="m25.97,16c-.02-.23.01-.44.1-.65.01-.03.05-.06.08-.06.14,0,.29,0,.44,0,.04.1.07.19.11.3.23.05.46.06.69-.02.11-.04.18-.12.18-.24,0-.12-.06-.2-.17-.23-.16-.06-.33-.11-.5-.16-.2-.06-.39-.11-.57-.22-.31-.2-.4-.48-.37-.83.04-.34.25-.54.55-.67.31-.13.64-.14.97-.11.21.02.41.08.61.13.03,0,.06.02.09.04.02.24-.01.47-.12.68h-.5c-.02-.07-.04-.14-.08-.21-.02-.03-.05-.08-.08-.08-.16-.03-.32-.05-.49-.01-.1.02-.18.07-.2.18-.02.1.03.18.11.23.08.05.17.1.27.12.21.06.42.11.63.18.33.1.56.31.61.66.08.49-.19.93-.66,1.08-.33.11-.66.1-.99.08-.23-.02-.46-.06-.68-.15-.02,0-.03-.02-.06-.03Z" fill="currentColor"></path><path d="m44.67,15.48v-1.66c-.09-.05-.17-.1-.26-.15-.06-.04-.08-.09-.06-.16.02-.12.03-.24.05-.37.34-.09.68-.09,1.04-.07v.37c.3-.26.6-.42.98-.34v.78c-.14,0-.27,0-.4,0-.15,0-.3.04-.44.12-.04.03-.07.06-.07.12,0,.42,0,.85,0,1.27,0,.01,0,.02,0,.04.22.06.46.1.66.26-.02.15-.04.3-.06.46h-1.73c-.02-.14-.04-.29-.05-.43,0-.03.03-.08.06-.1.08-.05.16-.09.26-.15Z" fill="currentColor"></path><path d="m44.34,11.12h-1.46c-.02-.14-.04-.29-.05-.43,0-.04.03-.09.07-.12.08-.06.17-.1.26-.15v-1.74c-.09-.05-.18-.1-.26-.15-.06-.04-.08-.09-.07-.16.02-.13.04-.26.05-.39.38-.1.77-.1,1.17-.06v.14c0,.75,0,1.5,0,2.25,0,.09,0,.16.11.18.01,0,.02,0,.03.01.2.11.21.11.18.34-.01.09-.02.19-.04.29Z" fill="currentColor"></path><path d="m24.5,13.82c-.09-.05-.17-.1-.25-.15-.05-.03-.07-.08-.06-.15.02-.12.03-.25.05-.38.37-.11.73-.09,1.11-.07,0,.06,0,.11,0,.16,0,.71,0,1.42,0,2.14,0,.08.02.14.1.16,0,0,.01,0,.02.01.21.1.22.13.18.36-.01.08-.02.16-.04.24h-1.38c-.02-.14-.04-.29-.05-.43,0-.03.04-.07.06-.09.08-.05.16-.09.25-.14v-1.67Z" fill="currentColor"></path><path d="m43.6,6.57c.07,0,.14.01.21.03.17.04.28.17.3.35,0,.04.01.08,0,.12-.01.29-.18.45-.5.45-.08,0-.16-.01-.24-.03-.18-.05-.28-.18-.3-.37,0-.05,0-.1,0-.15.01-.2.12-.33.31-.37.07-.02.13-.02.2-.03Z" fill="currentColor"></path><path d="m24.42,12.27c0-.26.11-.41.37-.44.11-.02.24,0,.35.02.15.04.25.15.27.31,0,.07,0,.15,0,.23-.02.17-.12.27-.28.31-.14.04-.29.04-.43,0-.18-.05-.28-.2-.28-.42Z" fill="currentColor"></path></g></svg>