<?xml version="1.0" encoding="utf-8"?>
<!-- Generator: Adobe Illustrator 15.0.0, SVG Export Plug-In . SVG Version: 6.00 Build 0)  -->
<!DOCTYPE svg PUBLIC "-//W3C//DTD SVG 1.1//EN" "http://www.w3.org/Graphics/SVG/1.1/DTD/svg11.dtd">
<svg version="1.1" id="Layer_1" xmlns="http://www.w3.org/2000/svg" xmlns:xlink="http://www.w3.org/1999/xlink" x="0px" y="0px"
	 viewBox="0 0 194 49" enable-background="new 0 0 194 49" xml:space="preserve">
<polygon fill="#00B36E" points="53.269,33.221 35.365,33.221 35.365,5.908 40.633,5.908 40.633,28.186 53.269,28.186 "/>
<g>
	<defs>
		<rect id="SVGID_1_" x="-53.333" y="-75.333" width="300.001" height="200"/>
	</defs>
	<clipPath id="SVGID_2_">
		<use xlink:href="#SVGID_1_"  overflow="visible"/>
	</clipPath>
	<path clip-path="url(#SVGID_2_)" fill="#00B36E" d="M59.626,24.707c0.323,1.451,1.02,2.592,2.089,3.421s2.336,1.244,3.801,1.244
		c1.878,0,3.492-0.622,4.841-1.865l2.371,3.439c-0.972,0.896-2.09,1.589-3.354,2.081c-1.263,0.492-2.647,0.738-4.15,0.738
		c-1.983,0-3.775-0.477-5.375-1.429c-1.601-0.952-2.855-2.246-3.761-3.878c-0.908-1.634-1.362-3.415-1.362-5.346
		c0-1.957,0.428-3.752,1.283-5.385s2.045-2.926,3.567-3.878c1.523-0.953,3.231-1.43,5.123-1.43c2.086,0,3.889,0.451,5.404,1.352
		c1.517,0.9,2.67,2.148,3.461,3.742c0.79,1.594,1.186,3.415,1.186,5.463c0,0.622-0.039,1.199-0.117,1.73H59.626z M61.55,17.834
		c-0.934,0.745-1.562,1.779-1.886,3.1h10.303c-0.298-1.348-0.884-2.388-1.759-3.12s-1.98-1.098-3.314-1.098
		C63.597,16.716,62.483,17.088,61.55,17.834"/>
	<path clip-path="url(#SVGID_2_)" fill="#00B36E" d="M93.606,12.848l-0.311,2.469c-0.777-0.907-1.695-1.62-2.751-2.139
		c-1.056-0.518-2.245-0.777-3.567-0.777c-1.84,0-3.544,0.476-5.113,1.428c-1.568,0.954-2.815,2.243-3.742,3.869
		c-0.927,1.627-1.39,3.412-1.39,5.356c0,1.943,0.46,3.729,1.38,5.355c0.921,1.628,2.169,2.916,3.743,3.868
		c1.575,0.952,3.282,1.43,5.122,1.43c1.296,0,2.469-0.257,3.519-0.769s1.963-1.215,2.741-2.108l0.35,2.391h4.335V12.848H93.606z
		 M93.204,25.017h-4.446v4.446h-3.616v-4.446h-4.446v-3.615h4.446v-4.447h3.616v4.447h4.446V25.017z"/>
	<path clip-path="url(#SVGID_2_)" fill="#00B36E" d="M102.957,33.221V17.396h-2.683v-4.568h2.683V10.32
		c0-4.639,2.573-6.959,7.718-6.959c0.467,0,0.777,0.007,0.933,0.02l0.622,0.019v4.354c-0.674-0.025-1.12-0.038-1.341-0.038
		c-1.023,0-1.775,0.266-2.255,0.797c-0.479,0.531-0.72,1.328-0.72,2.39v1.925h4.258v4.568h-4.238v15.825H102.957z"/>
	<polygon clip-path="url(#SVGID_2_)" fill="#00B36E" points="118.449,33.221 113.142,33.221 116.466,5.908 122.415,5.908 
		128.966,25.873 135.498,5.908 141.447,5.908 144.791,33.241 139.463,33.241 137.481,14.345 131.28,33.221 126.711,33.221 
		120.51,14.345 	"/>
	<path clip-path="url(#SVGID_2_)" fill="#00B36E" d="M151.885,24.707c0.324,1.451,1.021,2.592,2.09,3.421s2.336,1.244,3.801,1.244
		c1.879,0,3.492-0.622,4.841-1.865l2.371,3.439c-0.972,0.896-2.089,1.589-3.354,2.081c-1.262,0.492-2.647,0.738-4.15,0.738
		c-1.982,0-3.774-0.477-5.375-1.429s-2.854-2.246-3.762-3.878c-0.907-1.634-1.36-3.415-1.36-5.346c0-1.957,0.428-3.752,1.283-5.385
		c0.854-1.633,2.044-2.926,3.566-3.878c1.523-0.953,3.23-1.43,5.123-1.43c2.086,0,3.889,0.451,5.404,1.352
		c1.517,0.9,2.67,2.148,3.461,3.742c0.789,1.594,1.186,3.415,1.186,5.463c0,0.622-0.039,1.199-0.117,1.73H151.885z M153.81,17.834
		c-0.934,0.745-1.562,1.779-1.886,3.1h10.304c-0.299-1.348-0.885-2.388-1.76-3.12s-1.979-1.098-3.314-1.098
		C155.858,16.716,154.743,17.088,153.81,17.834"/>
	<path clip-path="url(#SVGID_2_)" fill="#00B36E" d="M185.187,4.547h4.995v28.674h-4.334l-0.351-2.391
		c-0.777,0.894-1.691,1.597-2.741,2.108s-2.223,0.768-3.519,0.768c-1.84,0-3.547-0.477-5.122-1.429
		c-1.574-0.952-2.822-2.241-3.742-3.868c-0.921-1.627-1.381-3.412-1.381-5.356s0.464-3.729,1.391-5.356
		c0.927-1.626,2.174-2.915,3.741-3.869c1.569-0.952,3.273-1.427,5.113-1.427c2.385,0,4.367,0.835,5.949,2.507V4.547z
		 M182.621,28.235c0.894-0.512,1.601-1.218,2.118-2.119c0.519-0.9,0.777-1.915,0.777-3.043s-0.259-2.148-0.777-3.061
		c-0.518-0.914-1.225-1.63-2.118-2.148c-0.894-0.519-1.88-0.778-2.955-0.778c-1.063,0-2.035,0.259-2.916,0.778
		c-0.882,0.518-1.574,1.234-2.08,2.148c-0.505,0.913-0.758,1.933-0.758,3.061s0.253,2.146,0.758,3.053
		c0.506,0.907,1.195,1.613,2.07,2.119c0.875,0.505,1.851,0.758,2.926,0.758S181.727,28.747,182.621,28.235"/>
	<path clip-path="url(#SVGID_2_)" fill="#00B36E" d="M40.21,44.665c-0.533-0.312-0.955-0.734-1.263-1.27
		c-0.309-0.533-0.464-1.121-0.464-1.762c0-0.644,0.155-1.231,0.464-1.763c0.308-0.531,0.73-0.952,1.263-1.262
		c0.534-0.308,1.121-0.464,1.765-0.464c0.436,0,0.848,0.073,1.236,0.22c0.391,0.146,0.738,0.35,1.045,0.612l-0.734,0.984
		c-0.208-0.169-0.448-0.306-0.718-0.41c-0.271-0.104-0.547-0.157-0.829-0.157c-0.387,0-0.748,0.101-1.081,0.299
		s-0.598,0.47-0.794,0.812c-0.198,0.343-0.296,0.721-0.296,1.134s0.098,0.791,0.296,1.134c0.196,0.342,0.461,0.612,0.794,0.812
		s0.694,0.298,1.081,0.298c0.291,0,0.56-0.047,0.807-0.142c0.246-0.096,0.498-0.243,0.754-0.444l0.72,0.994
		c-0.31,0.266-0.659,0.472-1.047,0.619c-0.387,0.147-0.798,0.222-1.234,0.222C41.332,45.13,40.745,44.974,40.21,44.665"/>
	<path clip-path="url(#SVGID_2_)" fill="#00B36E" d="M53.543,45.015h-1.346l-0.475-1.298h-2.815l-0.47,1.298h-1.351l2.657-6.759
		h1.153L53.543,45.015z M50.252,40.034l-0.937,2.574h2.003l-0.941-2.574l-0.063-0.23L50.252,40.034z"/>
	<polygon clip-path="url(#SVGID_2_)" fill="#00B36E" points="58.187,45.015 56.91,45.015 56.91,38.266 58.22,38.266 61.419,42.83 
		61.419,38.266 62.696,38.266 62.696,45.015 61.486,45.015 58.187,40.318 	"/>
	<polygon clip-path="url(#SVGID_2_)" fill="#00B36E" points="68.077,45.015 66.799,45.015 66.799,38.266 68.11,38.266 71.309,42.83 
		71.309,38.266 72.587,38.266 72.587,45.015 71.376,45.015 68.077,40.318 	"/>
	<path clip-path="url(#SVGID_2_)" fill="#00B36E" d="M82.409,45.015h-1.346l-0.475-1.298h-2.815l-0.47,1.298h-1.351l2.657-6.759
		h1.153L82.409,45.015z M79.118,40.034l-0.937,2.574h2.003l-0.941-2.574l-0.063-0.23L79.118,40.034z"/>
	<path clip-path="url(#SVGID_2_)" fill="#00B36E" d="M85.777,45.015v-6.749h2.718c0.423,0,0.792,0.074,1.109,0.221
		c0.318,0.147,0.561,0.357,0.733,0.63c0.172,0.272,0.257,0.589,0.257,0.951c0,0.191-0.037,0.38-0.111,0.563
		c-0.073,0.184-0.173,0.346-0.3,0.483s-0.266,0.238-0.42,0.303c0.218,0.063,0.415,0.178,0.591,0.341
		c0.176,0.163,0.315,0.36,0.415,0.59c0.101,0.231,0.151,0.475,0.151,0.731c0,0.402-0.095,0.751-0.285,1.044
		s-0.449,0.515-0.776,0.666c-0.327,0.15-0.689,0.226-1.086,0.226H85.777z M88.399,41.009c0.169,0,0.323-0.037,0.461-0.111
		c0.137-0.073,0.246-0.173,0.324-0.3c0.078-0.127,0.118-0.267,0.118-0.42c0-0.151-0.036-0.287-0.108-0.41
		c-0.073-0.124-0.174-0.221-0.308-0.292c-0.132-0.069-0.286-0.105-0.458-0.105h-1.36v1.639H88.399z M88.677,43.919
		c0.18,0,0.342-0.041,0.485-0.122c0.145-0.082,0.257-0.196,0.336-0.344c0.081-0.147,0.121-0.313,0.121-0.499
		c0-0.171-0.043-0.327-0.128-0.471c-0.084-0.145-0.204-0.26-0.357-0.346c-0.154-0.087-0.332-0.131-0.534-0.131h-1.532v1.912H88.677z
		"/>
	<rect x="94.546" y="38.266" clip-path="url(#SVGID_2_)" fill="#00B36E" width="1.301" height="6.749"/>
	<path clip-path="url(#SVGID_2_)" fill="#00B36E" d="M100.519,44.81c-0.473-0.206-0.882-0.506-1.229-0.9l0.837-0.845
		c0.256,0.275,0.546,0.484,0.869,0.629c0.324,0.145,0.658,0.216,1.003,0.216c0.362,0,0.649-0.073,0.858-0.221
		c0.21-0.147,0.314-0.351,0.314-0.608c0-0.174-0.051-0.318-0.151-0.434s-0.254-0.217-0.461-0.306
		c-0.207-0.087-0.494-0.183-0.862-0.285c-0.371-0.102-0.701-0.225-0.992-0.37c-0.29-0.144-0.535-0.349-0.736-0.615
		c-0.202-0.266-0.305-0.602-0.305-1.008c0-0.353,0.09-0.673,0.266-0.964c0.176-0.289,0.438-0.518,0.786-0.688
		c0.347-0.17,0.767-0.255,1.26-0.255c0.472,0,0.907,0.079,1.31,0.238c0.402,0.157,0.76,0.384,1.073,0.675l-0.744,0.893
		c-0.199-0.179-0.44-0.327-0.726-0.444c-0.285-0.116-0.571-0.175-0.86-0.175c-0.204,0-0.388,0.031-0.55,0.093
		c-0.162,0.063-0.288,0.152-0.379,0.267c-0.091,0.115-0.137,0.251-0.137,0.404c0,0.15,0.05,0.275,0.148,0.374
		c0.099,0.101,0.23,0.184,0.395,0.248c0.163,0.065,0.401,0.146,0.715,0.242l0.106,0.034c0.467,0.15,0.854,0.309,1.159,0.473
		c0.305,0.165,0.55,0.374,0.73,0.629s0.271,0.569,0.271,0.944c0,0.42-0.105,0.786-0.315,1.098c-0.209,0.313-0.501,0.552-0.873,0.72
		c-0.373,0.168-0.799,0.254-1.276,0.254C101.494,45.122,100.992,45.017,100.519,44.81"/>
	<path clip-path="url(#SVGID_2_)" fill="#00B36E" d="M110.756,45.015v-6.749h2.436c0.646,0,1.238,0.148,1.776,0.444
		c0.538,0.298,0.965,0.702,1.278,1.218s0.471,1.087,0.471,1.715c0,0.627-0.156,1.199-0.468,1.712
		c-0.313,0.514-0.737,0.92-1.273,1.216s-1.126,0.444-1.771,0.444H110.756z M113.25,43.781c0.399,0,0.765-0.093,1.093-0.279
		c0.328-0.186,0.586-0.441,0.773-0.766c0.187-0.325,0.279-0.689,0.279-1.093c0-0.404-0.094-0.769-0.282-1.095
		c-0.189-0.327-0.448-0.583-0.777-0.769c-0.33-0.186-0.697-0.279-1.101-0.279h-1.177v4.28H113.25z"/>
	<rect x="120.421" y="38.266" clip-path="url(#SVGID_2_)" fill="#00B36E" width="1.301" height="6.749"/>
	<path clip-path="url(#SVGID_2_)" fill="#00B36E" d="M126.393,44.81c-0.473-0.206-0.881-0.506-1.227-0.9l0.835-0.845
		c0.256,0.275,0.547,0.484,0.871,0.629c0.322,0.145,0.657,0.216,1.003,0.216c0.361,0,0.647-0.073,0.857-0.221
		c0.209-0.147,0.313-0.351,0.313-0.608c0-0.174-0.049-0.318-0.151-0.434c-0.1-0.115-0.254-0.217-0.461-0.306
		c-0.206-0.087-0.493-0.183-0.862-0.285c-0.37-0.102-0.7-0.225-0.991-0.37c-0.29-0.144-0.535-0.349-0.737-0.615
		c-0.202-0.266-0.303-0.602-0.303-1.008c0-0.353,0.088-0.673,0.264-0.964c0.177-0.289,0.438-0.518,0.786-0.688
		c0.348-0.17,0.768-0.255,1.261-0.255c0.471,0,0.907,0.079,1.309,0.238c0.402,0.157,0.76,0.384,1.074,0.675l-0.745,0.893
		c-0.198-0.179-0.44-0.327-0.726-0.444c-0.284-0.116-0.571-0.175-0.859-0.175c-0.205,0-0.389,0.031-0.551,0.093
		c-0.161,0.063-0.287,0.152-0.378,0.267c-0.092,0.115-0.138,0.251-0.138,0.404c0,0.15,0.05,0.275,0.149,0.374
		c0.099,0.101,0.23,0.184,0.394,0.248c0.163,0.065,0.401,0.146,0.716,0.242l0.105,0.034c0.467,0.15,0.854,0.309,1.16,0.473
		c0.306,0.165,0.549,0.374,0.729,0.629s0.271,0.569,0.271,0.944c0,0.42-0.104,0.786-0.314,1.098
		c-0.209,0.313-0.501,0.552-0.874,0.72s-0.798,0.254-1.275,0.254C127.368,45.122,126.866,45.017,126.393,44.81"/>
	<path clip-path="url(#SVGID_2_)" fill="#00B36E" d="M133.995,45.015v-6.749h2.613c0.474,0,0.889,0.095,1.246,0.283
		c0.356,0.189,0.632,0.451,0.826,0.786c0.193,0.334,0.29,0.718,0.29,1.15c0,0.454-0.094,0.854-0.28,1.2
		c-0.188,0.346-0.458,0.613-0.813,0.801c-0.354,0.19-0.772,0.285-1.256,0.285h-1.325v2.243H133.995z M136.521,41.59
		c0.225,0,0.423-0.047,0.596-0.14s0.309-0.222,0.406-0.387s0.146-0.354,0.146-0.568c0-0.209-0.047-0.392-0.144-0.552
		c-0.096-0.157-0.231-0.279-0.406-0.366c-0.174-0.087-0.373-0.13-0.598-0.13h-1.225v2.143H136.521z"/>
	<polygon clip-path="url(#SVGID_2_)" fill="#00B36E" points="147.391,45.015 142.501,45.015 142.501,38.266 147.319,38.266 
		147.319,39.458 143.803,39.458 143.803,41.023 146.613,41.023 146.613,42.147 143.803,42.147 143.803,43.824 147.391,43.824 	"/>
	<polygon clip-path="url(#SVGID_2_)" fill="#00B36E" points="152.372,45.015 151.094,45.015 151.094,38.266 152.405,38.266 
		155.605,42.83 155.605,38.266 156.882,38.266 156.882,45.015 155.671,45.015 152.372,40.318 	"/>
	<path clip-path="url(#SVGID_2_)" fill="#00B36E" d="M161.553,44.81c-0.473-0.206-0.882-0.506-1.229-0.9l0.837-0.845
		c0.256,0.275,0.546,0.484,0.87,0.629c0.323,0.145,0.657,0.216,1.003,0.216c0.361,0,0.648-0.073,0.858-0.221
		c0.209-0.147,0.313-0.351,0.313-0.608c0-0.174-0.051-0.318-0.151-0.434s-0.254-0.217-0.461-0.306
		c-0.207-0.087-0.494-0.183-0.862-0.285c-0.371-0.102-0.701-0.225-0.992-0.37c-0.29-0.144-0.534-0.349-0.736-0.615
		c-0.202-0.266-0.305-0.602-0.305-1.008c0-0.353,0.09-0.673,0.266-0.964c0.176-0.289,0.438-0.518,0.786-0.688
		c0.347-0.17,0.767-0.255,1.26-0.255c0.472,0,0.907,0.079,1.31,0.238c0.402,0.157,0.76,0.384,1.073,0.675l-0.744,0.893
		c-0.199-0.179-0.44-0.327-0.726-0.444c-0.285-0.116-0.571-0.175-0.86-0.175c-0.204,0-0.388,0.031-0.55,0.093
		c-0.161,0.063-0.288,0.152-0.379,0.267c-0.091,0.115-0.137,0.251-0.137,0.404c0,0.15,0.05,0.275,0.148,0.374
		c0.099,0.101,0.23,0.184,0.395,0.248c0.163,0.065,0.401,0.146,0.716,0.242l0.105,0.034c0.467,0.15,0.854,0.309,1.16,0.473
		c0.305,0.165,0.549,0.374,0.729,0.629s0.271,0.569,0.271,0.944c0,0.42-0.105,0.786-0.315,1.098
		c-0.209,0.313-0.501,0.552-0.873,0.72c-0.373,0.168-0.799,0.254-1.275,0.254C162.528,45.122,162.026,45.017,161.553,44.81"/>
	<path clip-path="url(#SVGID_2_)" fill="#00B36E" d="M174.875,45.015h-1.346l-0.475-1.298h-2.815l-0.47,1.298h-1.351l2.657-6.759
		h1.152L174.875,45.015z M171.584,40.034l-0.937,2.574h2.002l-0.941-2.574l-0.062-0.23L171.584,40.034z"/>
	<path clip-path="url(#SVGID_2_)" fill="#00B36E" d="M183.52,45.015h-1.47l-1.057-2.276c-0.142,0.006-0.249,0.009-0.322,0.009
		h-1.129v2.268h-1.301v-6.749h2.785c0.458,0,0.862,0.094,1.213,0.281s0.623,0.45,0.816,0.788c0.194,0.338,0.291,0.728,0.291,1.169
		c0,0.445-0.098,0.827-0.293,1.146c-0.195,0.319-0.466,0.569-0.813,0.752L183.52,45.015z M179.542,41.6h1.369
		c0.218,0,0.412-0.047,0.581-0.14c0.17-0.093,0.301-0.222,0.395-0.387s0.139-0.353,0.139-0.564c0-0.218-0.048-0.406-0.144-0.566
		c-0.097-0.16-0.229-0.282-0.396-0.368c-0.168-0.084-0.358-0.127-0.569-0.127h-1.374V41.6z"/>
	<polygon clip-path="url(#SVGID_2_)" fill="#00B36E" points="189.731,45.015 188.429,45.015 188.429,42.311 186.09,38.266 
		187.599,38.266 189.087,41.091 190.552,38.266 192.066,38.266 189.731,42.301 	"/>
	<path clip-path="url(#SVGID_2_)" fill="#E7C81E" d="M2.251,16.54c0.855,2.717,1.783,5.197,2.929,7.43
		C4.017,21.663,3.077,19.159,2.251,16.54"/>
	<path clip-path="url(#SVGID_2_)" fill="#E7C81E" d="M20.23,21.928c6.729,6.612,9.657,11.924,10.721,14.224
		c0.539-3.326,1.288-12.246-4.985-17.228C18.153,12.718,4.292,6.396,2.809,1.677C2.648,10.683,12.296,14.132,20.23,21.928"/>
	<path clip-path="url(#SVGID_2_)" fill="#E7C81E" d="M5.417,24.42c0.046,0.085,0.089,0.173,0.136,0.258
		C5.507,24.592,5.462,24.506,5.417,24.42"/>
	<path clip-path="url(#SVGID_2_)" fill="#E7C81E" d="M30.256,37.415c0.149,0.012,0.292,0.027,0.442,0.038
		c0,0,0.005-0.019,0.012-0.049C30.558,37.408,30.406,37.412,30.256,37.415"/>
	<path clip-path="url(#SVGID_2_)" fill="#E7C81E" d="M30.951,36.152c0,0,3.509,6.175,4.745,11.118c0,0,0.158,0.549,0.694,0.339
		c0.449-0.177,0.409-0.401,0.409-0.401s-1.179-4.08-3.356-7.957c-2.173-3.868-2.648-4.495-2.648-4.495L30.951,36.152z"/>
	<path clip-path="url(#SVGID_2_)" fill="#E7C81E" d="M2.251,16.54c0.855,2.717,1.783,5.197,2.929,7.43
		C4.017,21.663,3.077,19.159,2.251,16.54"/>
	<path clip-path="url(#SVGID_2_)" fill="#E7C81E" d="M20.23,21.928c6.729,6.612,9.657,11.924,10.721,14.224
		c0.539-3.326,1.288-12.246-4.985-17.228C18.153,12.718,4.292,6.396,2.809,1.677C2.648,10.683,12.296,14.132,20.23,21.928"/>
	<path clip-path="url(#SVGID_2_)" fill="#E7C81E" d="M5.417,24.42c0.046,0.085,0.089,0.173,0.136,0.258
		C5.507,24.592,5.462,24.506,5.417,24.42"/>
	<path clip-path="url(#SVGID_2_)" fill="#E7C81E" d="M30.256,37.415c0.149,0.012,0.292,0.027,0.442,0.038
		c0,0,0.005-0.019,0.012-0.049C30.558,37.408,30.406,37.412,30.256,37.415"/>
	<path clip-path="url(#SVGID_2_)" fill="#E9D718" d="M28.687,34.161c-0.001,0-0.002,0-0.004-0.001
		c-0.266-0.411-0.547-0.841-0.857-1.304c-0.001-0.001-0.001-0.002-0.002-0.003c-1.764-0.894-6.469-3.173-14.16-3.978
		c0.004,0,0.007-0.001,0.012-0.002c3.913-0.585,10.796,1.441,12.809,2.045c-1.086-1.522-2.339-3.172-3.721-4.798
		c-1.211-0.718-4.474-2.437-9.862-3.741c3.535,0.076,6.537,1.181,8.345,2.034c-0.597-0.647-1.206-1.283-1.835-1.892
		c-0.778-0.752-1.562-1.461-2.346-2.153c-1.893-1.042-4.419-2.34-7.209-3.533l-0.022-0.013c0.397,0.172,2.74,0.61,4.791,1.451
		c-1.771-1.482-3.478-2.869-5.024-4.253c-1.226-0.576-3.63-1.48-4.421-1.868l3.592,1.106C5.216,9.93,2.723,6.509,2.809,1.677
		c0,0-3.059,6.914-0.557,14.864c3.78,12.008,8.936,19.452,28.447,20.912C30.699,37.453,29.958,36.131,28.687,34.161"/>
</g>
</svg>
