<svg xmlns="http://www.w3.org/2000/svg" viewBox="0 0 295 30" fill="none"><path d="M60.7511 28.1884H56.6943V0.67627H67.4633C74.5611 0.67627 78.4725 3.62105 78.4725 8.97776C78.4725 13.0811 76.2028 15.7352 71.9542 16.7484V17.7616L79.5347 28.1864H74.6581L66.7868 17.2308H60.7511V28.1864V28.1884ZM62.0556 4.39408L60.7511 5.69793V13.4686H67.3664C72.0976 13.4686 74.3208 11.8277 74.3208 8.97978C74.3208 6.13188 72.0996 4.39408 67.3664 4.39408H62.0556Z" fill="#1C1C1C"></path><path d="M98.5112 28.8625C90.9308 28.8625 86.1006 22.4905 86.1006 14.4312C86.1006 6.37194 90.9287 0 98.5112 0C106.094 0 110.97 6.3235 110.97 14.4312C110.97 22.539 106.142 28.8625 98.5112 28.8625ZM98.5112 3.81267C93.0551 3.81267 90.3512 8.59011 90.3512 14.4312C90.3512 20.2723 93.0551 25.0013 98.5112 25.0013C103.967 25.0013 106.72 20.2703 106.72 14.4312C106.72 8.59213 103.967 3.81267 98.5112 3.81267Z" fill="#1C1C1C"></path><path d="M130.094 28.8625C122.514 28.8625 117.684 22.4905 117.684 14.4312C117.684 6.37194 122.512 0 130.094 0C137.677 0 142.553 6.3235 142.553 14.4312C142.553 22.539 137.725 28.8625 130.094 28.8625ZM130.094 3.81267C124.638 3.81267 121.934 8.59011 121.934 14.4312C121.934 20.2723 124.638 25.0013 130.094 25.0013C135.55 25.0013 138.303 20.2703 138.303 14.4312C138.303 8.59213 135.55 3.81267 130.094 3.81267Z" fill="#1C1C1C"></path><path d="M161.914 5.96398V28.4565H157.76V5.96398L156.504 4.70857H147.233V0.944336H172.44V4.70857H163.164L161.914 5.96398Z" fill="#1C1C1C"></path><path d="M179.759 28.4545V0.944336H187.388C197.046 0.944336 202.308 6.83187 202.308 14.6994C202.308 22.567 197.044 28.4545 187.388 28.4545H179.759ZM183.816 23.4833L185.12 24.7871H187.39C194.536 24.7871 198.062 20.4437 198.062 14.6994C198.062 8.95518 194.536 4.61168 187.39 4.61168H185.12L183.816 5.8671V23.4833Z" fill="#1C1C1C"></path><path d="M220.827 29.131C213.246 29.131 208.416 22.7591 208.416 14.6998C208.416 6.6405 213.244 0.268555 220.827 0.268555C228.409 0.268555 233.286 6.59206 233.286 14.6998C233.286 22.8075 228.458 29.131 220.827 29.131ZM220.827 4.08122C215.37 4.08122 212.667 8.85867 212.667 14.6998C212.667 20.5409 215.37 25.2699 220.827 25.2699C226.283 25.2699 229.035 20.5389 229.035 14.6998C229.035 8.86069 226.283 4.08122 220.827 4.08122Z" fill="#1C1C1C"></path><path d="M251.973 11.0321L248.738 28.4565H243.088L238.354 0.944336H242.508L245.84 22.6638H246.757L250.089 4.61168H254.868L258.2 22.6638H259.117L262.449 0.944336H266.457L261.726 28.4565H256.076L252.841 11.0321H251.973Z" fill="#1C1C1C"></path><path d="M290.315 28.4545L278.05 7.16894H276.794V28.4545H272.979V0.944336H278.581L289.93 20.8292H291.186V0.944336H295V28.4565H290.315V28.4545Z" fill="#1C1C1C"></path><path d="M48.12 7.3328H32.8824C32.6421 7.3328 32.5229 7.62142 32.6925 7.79097L43.4675 18.5609C43.5725 18.6659 43.5725 18.8354 43.4675 18.9404L39.1381 23.2677C39.0331 23.3727 38.8635 23.3727 38.7585 23.2677L27.9815 12.4958C27.8119 12.3262 27.5231 12.4473 27.5231 12.6855V27.918C27.5231 28.0673 27.402 28.1864 27.2546 28.1864H21.1341C20.9846 28.1864 20.8655 28.0653 20.8655 27.918V12.6875C20.8655 12.4473 20.5767 12.3282 20.4071 12.4978L9.63212 23.2677C9.52711 23.3727 9.35746 23.3727 9.25246 23.2677L4.92309 18.9404C4.81808 18.8354 4.81808 18.6659 4.92309 18.5609L15.6981 7.79097C15.8677 7.62142 15.7465 7.3328 15.5083 7.3328H0.268583C0.119155 7.3328 0 7.2117 0 7.06436V0.944711C0 0.795353 0.121174 0.67627 0.268583 0.67627H48.124C48.2735 0.67627 48.3926 0.797371 48.3926 0.944711V7.06436C48.3926 7.21372 48.2715 7.3328 48.124 7.3328H48.12Z" fill="#EFEDE3"></path></svg>