<svg xmlns="http://www.w3.org/2000/svg" xmlns:xlink="http://www.w3.org/1999/xlink" viewBox="0 0 295 39" width="295" height="39" style="width:100%;height:100%;content-visibility:visible"><defs><path fill="currentColor" d="M29.3 13.1c-5.4 1.4-34.9 2-36-1.3-.8-2.7-1.5-5-3-8-.7-1.4-1.4-2.4-1.6-2.7-7.1-12 22-35.3 26.3-30l14.3 42z" transform="translate(160.5 17)" display="block" id="a"/><path stroke-linecap="square" fill-opacity="0" stroke="#F40067" stroke-width="4.6" d="M207.9 17.6c-1.4-2.4-3.7-6.6-10.9-6.6-7.3 0-12.3 6.1-12.3 12.9 0 6.7 6.6 12.4 12.3 12.2 5.8-.1 12.9-6 12.1-13l-9 .1" display="block" id="b"/><path fill="currentColor" d="M4.2-4.3v8.6h-8.4v-8.6h8.4z" transform="matrix(1 0 0 1.16918 245.8 42.6)" display="block" id="d"/><path fill-opacity="0" stroke="#F40067" stroke-width="4.6" d="m21 8 10.8 26.8L44 7.8H31l11.3 26L53.5 8.4" display="block" id="f"/><path fill-opacity="0" stroke="#F40067" stroke-width="5.8" d="M273 10.4s-1.9-.3-6.1 0c-4.3.2-3.6 6.1-2.4 7.5 1.3 1.4 6.5 9.2 7.6 10.9 1.2 1.6.7 7.2-3.6 7l-7-.2" display="block" id="e"/><path fill-opacity="0" stroke="#F40067" stroke-width="5.8" d="M16 10.4s-1.9-.3-6.1 0c-4.3.2-3.7 6.1-2.4 7.5 1.3 1.4 6.5 9.2 7.6 10.9 1.2 1.6.7 7.2-3.6 7l-7-.2" display="block" id="h"/><path fill-opacity="0" stroke="#F40067" stroke-width="5.8" d="M288.5 10.4s-1.8-.3-6 0c-4.3.2-3.7 6.1-2.5 7.5 1.3 1.4 6.5 9.2 7.7 10.9 1 1.6.6 7.2-3.7 7l-7-.2" display="block" id="g"/><mask id="q" mask-type="alpha"><use xlink:href="#a"/></mask><mask id="l" mask-type="alpha"><use xlink:href="#b"/></mask><mask id="m" mask-type="alpha"><g filter="url(#c)"><use xlink:href="#d"/></g></mask><mask id="n" mask-type="alpha"><use xlink:href="#e"/></mask><mask id="k" mask-type="alpha"><use xlink:href="#f"/></mask><mask id="o" mask-type="alpha"><use xlink:href="#g"/></mask><mask id="j" mask-type="alpha"><use xlink:href="#h"/></mask><linearGradient id="u" spreadMethod="pad" gradientUnits="userSpaceOnUse" x1="6.4" y1="-.4" x2="44.7" y2="-14.2"><stop offset="0%" stop-color="#D8A841"/><stop offset="49%" stop-color="#EBC363"/><stop offset="100%" stop-color="#FDDE86"/></linearGradient><linearGradient id="t" spreadMethod="pad" gradientUnits="userSpaceOnUse" x1="-31" y1="-.4" x2="8.8" y2="-13.7"><stop offset="0%" stop-color="#D8A841"/><stop offset="49%" stop-color="#EBC363"/><stop offset="100%" stop-color="#FDDE86"/></linearGradient><linearGradient id="s" spreadMethod="pad" gradientUnits="userSpaceOnUse" x1="-2.9" y1="4.1" x2="35.6" y2="-9.4"><stop offset="0%" stop-color="#D8A841"/><stop offset="49%" stop-color="#EBC363"/><stop offset="100%" stop-color="#FDDE86"/></linearGradient><linearGradient id="r" spreadMethod="pad" gradientUnits="userSpaceOnUse" x1="21.1" y1="3.9" x2="-15.8" y2="-9.7"><stop offset="0%" stop-color="#D8A841"/><stop offset="49%" stop-color="#EBC363"/><stop offset="100%" stop-color="#FDDE86"/></linearGradient><linearGradient id="p" spreadMethod="pad" gradientUnits="userSpaceOnUse" x1="-11.9" y1="19.8" x2="24.8" y2="6.4"><stop offset="0%" stop-color="#D8A841"/><stop offset="49%" stop-color="#EBC363"/><stop offset="100%" stop-color="#FDDE86"/></linearGradient><clipPath id="i"><path d="M0 0h295v39H0z"/></clipPath><filter id="c" filterUnits="objectBoundingBox" x="0%" y="0%" width="100%" height="100%"><feComponentTransfer in="SourceGraphic"><feFuncA type="table" tableValues="1.0 0.0"/></feComponentTransfer></filter></defs><g clip-path="url(#i)"><g mask="url(#j)" display="block"><path fill="currentColor" d="M8.6 16.8a3 3 0 0 1-.6-1.5V15a3 3 0 0 1 3-3h4.8V9H11a6 6 0 0 0-6 6v.3a6 6 0 0 0 1.1 3.2s5.3 7 6.8 9.4c1 1.6 1 2.6 1 3.5a3 3 0 0 1-3.1 3H5v3h5.8a6 6 0 0 0 6-6c0-1 0-2.8-1.3-5-1.6-2.6-6.7-9.4-6.9-9.7z"/></g><g mask="url(#k)" display="block"><path fill="currentColor" d="M51.8 9.2h3.7L43 37.6h-.7v-.1l-5-11.4-5 11.5h-.8l-.1-.2L19.2 9.2h3.7l9 20.8 3.6-8.2L30 9.2h3.6l3.7 8.4L41 9.2h3.7L39.2 22l3.5 8 9-20.7z"/></g><path fill="currentColor" d="M58.8 37.4h15.7v-3.3H62v-4h7.7v-3.3H62V12.5h12.4V9.2H58.8v28.2zm19.5 0h15.6v-3.3H81.5v-4h7.7v-3.3h-7.7V12.5H94V9.2H78.3v28.2zm19.4-24.8h6.1v24.8h3.3V12.6h6V9.3H97.8v3.3z" display="block"/><g mask="url(#l)" display="block"><path fill="currentColor" d="M200.2 25h7.5c-1 5.6-5.3 9.2-10.9 9.2a10.8 10.8 0 1 1 8.7-17.3l.1.1h3.8l-.2-.4a14.1 14.1 0 0 0-26.4 6.8 14 14 0 0 0 28.1 0v-1.7h-10.7V25z"/></g><path fill="currentColor" d="M231.8 21.7c0-7-5.8-12.4-13.5-12.4h-3.4v28.2h3.3v-3.3c2.2 0 4-.4 5.7-1l1.7 4.3h3.8l-2.6-6c3.2-2.4 5-6 5-9.8zm-6 6.5c-2 1.8-4.7 2.8-7.6 2.7V12.6c7.1.1 10.3 4.7 10.3 9.1 0 2.5-1 4.8-2.8 6.5zm19.8-18.8-12.1 27.7-.1.2h3.3l9.2-21 9.1 21h3.4L246.2 9.5h-.6z" display="block"/><g mask="url(#m)" display="block"><path fill="currentColor" d="m243 36.8-.3.5h6.4l-.3-.5-3-6.8-2.9 6.8z"/></g><g mask="url(#n)" display="block"><path fill="currentColor" d="M265.6 16.8a3 3 0 0 1-.6-1.5V15a3 3 0 0 1 3-3h4.9V9h-5a6 6 0 0 0-5.9 6v.3a6 6 0 0 0 1.2 3.2s5.2 7 6.7 9.4c1 1.6 1 2.6 1 3.5a3 3 0 0 1-3.1 3H262v3h5.8a6 6 0 0 0 6-6c0-1 0-2.8-1.3-5-1.6-2.6-6.7-9.4-6.9-9.7z"/></g><g mask="url(#o)" display="block"><path fill="currentColor" d="M281.1 16.8a3 3 0 0 1-.5-1.5V15a3 3 0 0 1 2.9-3h4.9V9h-4.9a6 6 0 0 0-6 6v.3a6 6 0 0 0 1.2 3.2s5.2 7 6.7 9.4c1 1.6 1 2.6 1 3.5a3 3 0 0 1-3 3h-5.9v3h5.8a6 6 0 0 0 6-6c0-1 0-2.8-1.3-5-1.5-2.6-6.7-9.4-6.9-9.7z"/></g><path fill="url(#p)" d="M2.8 2.6C2.8 4 1.5 5.3 0 5.3a2.7 2.7 0 0 1-2.8-2.7C-2.8-1 0-5.3 0-5.3S2.8-.9 2.8 2.6z" transform="translate(149.4 5.8)" display="block"/><g mask="url(#q)" display="block"><path fill="url(#r)" d="M5.3 16.6c0-.8.2-4.5-.7-7.7-1-10.5-8-20-18-25.5a34.5 34.5 0 0 1 26.8 33.2H5.3z" transform="matrix(-1 0 0 1 158.4 21.4)"/></g><path fill="url(#s)" d="M5.3 16.6c0-.8-.1-7.1-1.1-10a36 36 0 0 0-17.2-23C-5.2-14.9 4-9 9.2.1a35.7 35.7 0 0 1 4.2 16.4H5.3z" transform="translate(140 21)" display="block"/><path fill="url(#t)" d="M12.7-12.5c-4.5 2.8-7.6 5-9.5 7.3-4 5-7.4 10-8.6 17.8h-7.4a35.7 35.7 0 0 1 15-21 45 45 0 0 1 10.5-4.1z" transform="translate(167.9 25)" display="block"/><path fill="url(#u)" d="M12.8 12.6H5.4A33.6 33.6 0 0 0-3-5a41.5 41.5 0 0 0-9-7.4 34 34 0 0 1 24.9 24.8z" transform="translate(131 25)" display="block"/></g></svg>