<?xml version="1.0" encoding="UTF-8"?><svg id="b" xmlns="http://www.w3.org/2000/svg" viewBox="0 0 943.68 261.63"><g id="c"><g><g><path d="m364.35,160.9V26.38h2.93l89.53,103.12V26.38h13.26v134.52h-3.02l-88.8-101.86v101.86h-13.9Z"/><path d="m566.87,23c20.37,0,37.42,6.8,51.15,20.39,13.73,13.6,20.59,30.33,20.59,50.21s-6.85,36.4-20.54,50.11c-13.7,13.72-30.39,20.58-50.1,20.58s-36.79-6.83-50.51-20.48c-13.73-13.66-20.59-30.18-20.59-49.57,0-12.92,3.13-24.9,9.38-35.94,6.25-11.03,14.78-19.68,25.58-25.93,10.8-6.25,22.48-9.37,35.05-9.37Zm.59,13.08c-9.95,0-19.39,2.59-28.3,7.78-8.92,5.19-15.88,12.17-20.88,20.96-5.01,8.79-7.51,18.58-7.51,29.38,0,15.99,5.54,29.49,16.62,40.5,11.08,11.01,24.44,16.52,40.07,16.52,10.44,0,20.1-2.53,28.99-7.6,8.88-5.06,15.82-11.99,20.79-20.78s7.47-18.55,7.47-29.29-2.49-20.33-7.47-28.97c-4.98-8.63-11.98-15.54-21.02-20.73-9.04-5.19-18.62-7.78-28.76-7.78Z"/><path d="m665.95,26.38h26.52c10.67,0,18.87,1.27,24.6,3.79,5.73,2.53,10.26,6.42,13.58,11.66,3.32,5.24,4.98,11.07,4.98,17.47,0,5.98-1.46,11.42-4.37,16.32-2.91,4.91-7.19,8.89-12.83,11.93,6.99,2.38,12.37,5.17,16.14,8.37,3.77,3.2,6.7,7.07,8.8,11.61,2.1,4.54,3.15,9.46,3.15,14.77,0,10.79-3.95,19.92-11.84,27.39-7.9,7.47-18.49,11.2-31.78,11.2h-36.95V26.38Zm13.17,13.17v43.07h7.7c9.35,0,16.22-.87,20.62-2.61,4.4-1.74,7.88-4.48,10.45-8.23,2.57-3.75,3.85-7.91,3.85-12.48,0-6.16-2.15-10.99-6.46-14.49-4.31-3.5-11.17-5.26-20.57-5.26h-15.58Zm0,56.61v51.58h16.67c9.83,0,17.04-.96,21.62-2.88,4.58-1.92,8.26-4.92,11.04-9.01,2.78-4.08,4.17-8.5,4.17-13.26,0-5.97-1.95-11.19-5.86-15.64-3.91-4.45-9.28-7.5-16.11-9.14-4.58-1.1-12.55-1.65-23.92-1.65h-7.61Z"/><path d="m773.13,26.38h13.44v121.54h51.76v12.99h-65.2V26.38Z"/><path d="m859.73,26.38h77.09v13.17h-63.65v42.16h63.1v13.17h-63.1v52.86h63.1v13.17h-76.54V26.38Z"/></g><g><path d="m543.97,195.74h6.84v41.94h25.93v5.95h-32.77v-47.89Z"/><path d="m627.97,231.66h-25.45l-5.27,11.97h-7.05l21.69-47.89h6.77l21.76,47.89h-7.18l-5.27-11.97Zm-2.4-5.47l-10.33-23.47-10.33,23.47h20.66Z"/><path d="m701.36,230.7c0,8.21-6.23,12.93-18.34,12.93h-22.85v-47.89h21.48c11.02,0,17.17,4.65,17.17,12.38,0,5.2-2.67,8.83-6.43,10.67,5.41,1.51,8.96,5.54,8.96,11.91Zm-34.35-29.42v15.33h14.03c6.98,0,10.95-2.6,10.95-7.66s-3.97-7.66-10.95-7.66h-14.03Zm27.44,28.87c0-5.54-4.11-8.01-11.7-8.01h-15.74v15.94h15.74c7.59,0,11.7-2.39,11.7-7.94Z"/><path d="m720.23,238.16l2.53-5.34c3.56,3.22,9.65,5.54,15.8,5.54,8.28,0,11.84-3.22,11.84-7.39,0-11.7-29.01-4.31-29.01-22.1,0-7.39,5.75-13.68,18.34-13.68,5.61,0,11.43,1.5,15.39,4.24l-2.26,5.47c-4.17-2.67-8.89-3.9-13.14-3.9-8.14,0-11.63,3.42-11.63,7.59,0,11.7,29.01,4.38,29.01,21.96,0,7.32-5.88,13.62-18.54,13.62-7.32,0-14.5-2.46-18.34-6.02Z"/></g><g><path d="m78.18,154.85c-5.02-3.22-11.74-3.79-16.09-7.95-1.21-1.15-2.17-2.53-3.12-3.9.93.57,2.09.61,3.17.43,1.07-.18,2.11-.56,3.18-.75,1.61-.28,3.3-.13,4.84.44-1.42-1.19-3.12-2.01-4.87-2.6-1.64-.55-3.67-.64-5.18-1.44-1.55-.81-3.14-1.69-4.6-2.66-.8-.54-1.58-1.11-2.32-1.73-.27-.23-1.76-1.89-2.01-1.86,2.84-.45,6.02-1.12,8.87-1.56-1.4.22-3.61-.7-4.95-1.09-1.56-.46-3.02-1.14-4.49-1.85-3.06-1.48-5.92-3.37-8.49-5.59,2.2.29,4.39-.46,6.6-.64,2.21-.18,4.46.21,6.48,1.14-1.39-2.02-3.69-3.23-6-4.04-2.32-.81-4.75-1.29-7-2.26-2.88-1.24-5.42-3.29-7.24-5.85,2.19,1.14,4.81.09,7.27-.11,1.73-.14,3.5.16,5.09.88-3.1-2.48-7.04-3.59-10.77-4.91-3.74-1.33-7.58-3.09-9.83-6.35,1.94.99,4.27.28,6.44.11,2.13-.16,4.31.24,6.24,1.16-7.17-3.42-14.56-7-19.72-13.04,2.69-.16,5.41.15,7.99.9-1.45-1.25-3.26-2-4.93-2.93-2.3-1.28-3.98-3.33-5.65-5.31-2.07-2.45-3.87-5.12-5.35-7.96,2,.41,4.06.51,6.06.93-3.57-2.28-6.46-5.44-8.89-8.87-1.22-1.72-2.26-3.56-3.13-5.48-.82-1.82-1.09-4.01-1.96-5.75,1.42,2.81,5.95,2.97,7.14,5.89C2.51,45.31-1.23,27.76.36,10.67c1.52,5.08,3.64,9.99,6.29,14.59,2.87,4.98,5.24,10.14,8.39,14.93,1.62,2.46,3.05,5.04,4.29,7.71,1.18,2.55,1.77,5.47,3.01,7.95-1.58-3.16.9-7.2-.54-10.43,4.44,5.02,7.12,11.57,7.48,18.26,1.07-3.18,1.9-5.42,1.02-8.75.12.46,1.24,1.25,1.58,1.64.6.68,1.17,1.4,1.69,2.14,1.05,1.49,1.94,3.09,2.65,4.77.68,1.62,1.15,3.29,1.53,5,.35,1.59,1.15,2.96,1.58,4.54.13-2.4,1.36-4.6,1.38-7.02,0,.33,1.6,1.57,1.87,1.87.65.7,1.28,1.43,1.87,2.19,1.19,1.51,2.26,3.11,3.19,4.79,1.92,3.46,3.34,6.94,3.84,10.93-1.1-3.95,3.79-7.75,2.7-11.7,3.6,5.52,5.89,11.9,6.64,18.45.23,1.99.34,4.09,1.41,5.78-.23-1.94-.08-3.92.45-5.79.67-2.4,1.94-4.87,1.19-7.25,1.28,1.61,2.41,3.34,3.37,5.15.81,1.53,1.15,3.14,1.87,4.71,1.53,3.34,3.32,7.72,3.3,11.46,0-1.97.03-4,.76-5.83.71-1.78,2.09-3.57,1.5-5.4,2.61,4.81,5.05,9.71,7.31,14.69.77,1.7,1.53,3.42,1.93,5.24.38,1.74.45,3.59,1.27,5.17-.71-3.25,2.17-6.45,1.63-9.73.18,1.07,1.92,2.78,2.47,3.8.6,1.11.83,2.27,1.36,3.4,1.32,2.79,2.27,5.66,2.57,8.75.15,1.49.16,3.05.82,4.4-.78-2.73,1.47-5.55,1.04-8.36,4.58,6.02,7.27,13.46,7.61,21.01-1.26-3.59,2.67-7.43,1.54-11.06,3.79,3.91,5.54,8.44,7.97,13.14,2.53,4.9,3.22,10.54,6.14,15.33,2.21,3.64,4.34,8.38,7.36,11.38,30.9,30.67,64.93,49.03,106.8,60.68,2.4.67,7.57,1.44,9.4,3.13,1.83,1.69,2.72,3.57,1.29,5.62-2.26,3.25-7.37.95-11.13-.28-40.74-13.28-78.35-35.51-110.84-63.45-16.13-13.87-31.04-29.15-44.69-45.46-13.77-16.46-28.78-31.5-40.9-49.42,9.69,22.47,68.13,91.2,104.66,115.47-8.17-.6-16.24-5.69-23.11-10.16-6.87-4.47-13.46-9.52-21.05-12.61-2.89-1.18-5.78-2.17-8.55-3.61-2.65-1.38-5.11-3.14-7.25-5.23,2.88,1.61,6.64-.41,9.74.71-2.37-2.44-6-3.03-9.24-4.08-4.96-1.61-9.47-4.6-12.89-8.54,3.82,1.19,8.33-1.24,11.83.71-.5-.42-1.03-.81-1.58-1.16Z" style="fill-rule:evenodd;"/><path d="m252.43,154.85c5.02-3.22,11.74-3.79,16.09-7.95,1.21-1.15,2.17-2.53,3.12-3.9-.93.57-2.09.61-3.17.43-1.07-.18-2.11-.56-3.18-.75-1.61-.28-3.3-.13-4.84.44,1.42-1.19,3.12-2.01,4.87-2.6,1.64-.55,3.67-.64,5.18-1.44,1.55-.81,3.14-1.69,4.6-2.66.8-.54,1.58-1.11,2.32-1.73.27-.23,1.76-1.89,2.01-1.86-2.84-.45-6.02-1.12-8.87-1.56,1.4.22,3.61-.7,4.95-1.09,1.56-.46,3.02-1.14,4.49-1.85,3.06-1.48,5.92-3.37,8.49-5.59-2.2.29-4.39-.46-6.6-.64-2.21-.18-4.46.21-6.48,1.14,1.39-2.02,3.69-3.23,6-4.04,2.32-.81,4.75-1.29,7-2.26,2.88-1.24,5.42-3.29,7.24-5.85-2.19,1.14-4.81.09-7.27-.11-1.73-.14-3.5.16-5.09.88,3.1-2.48,7.04-3.59,10.77-4.91,3.74-1.33,7.58-3.09,9.83-6.35-1.94.99-4.27.28-6.44.11-2.13-.16-4.31.24-6.24,1.16,7.17-3.42,14.56-7,19.72-13.04-2.69-.16-5.41.15-7.99.9,1.45-1.25,3.26-2,4.93-2.93,2.3-1.28,3.98-3.33,5.65-5.31,2.07-2.45,3.87-5.12,5.35-7.96-2,.41-4.06.51-6.06.93,3.57-2.28,6.46-5.44,8.89-8.87,1.22-1.72,2.26-3.56,3.13-5.48.82-1.82,1.09-4.01,1.96-5.75-1.42,2.81-5.95,2.97-7.14,5.89,8.43-14.95,12.18-32.49,10.58-49.58-1.52,5.08-3.64,9.99-6.29,14.59-2.87,4.98-5.24,10.14-8.39,14.93-1.62,2.46-3.05,5.04-4.29,7.71-1.18,2.55-1.77,5.47-3.01,7.95,1.58-3.16-.9-7.2.54-10.43-4.44,5.02-7.12,11.57-7.48,18.26-1.07-3.18-1.9-5.42-1.02-8.75-.12.46-1.24,1.25-1.58,1.64-.6.68-1.17,1.4-1.69,2.14-1.05,1.49-1.94,3.09-2.65,4.77-.68,1.62-1.15,3.29-1.53,5-.35,1.59-1.15,2.96-1.58,4.54-.13-2.4-1.36-4.6-1.38-7.02,0,.33-1.6,1.57-1.87,1.87-.65.7-1.28,1.43-1.87,2.19-1.19,1.51-2.26,3.11-3.19,4.79-1.92,3.46-3.34,6.94-3.84,10.93,1.1-3.95-3.79-7.75-2.7-11.7-3.6,5.52-5.89,11.9-6.64,18.45-.23,1.99-.34,4.09-1.41,5.78.23-1.94.08-3.92-.45-5.79-.67-2.4-1.94-4.87-1.19-7.25-1.28,1.61-2.41,3.34-3.37,5.15-.81,1.53-1.15,3.14-1.87,4.71-1.53,3.34-3.32,7.72-3.3,11.46,0-1.97-.03-4-.76-5.83-.71-1.78-2.09-3.57-1.5-5.4-2.61,4.81-5.05,9.71-7.31,14.69-.77,1.7-1.53,3.42-1.93,5.24-.38,1.74-.45,3.59-1.27,5.17.71-3.25-2.17-6.45-1.62-9.73-.18,1.07-1.92,2.78-2.47,3.8-.6,1.11-.83,2.27-1.36,3.4-1.32,2.79-2.27,5.66-2.57,8.75-.15,1.49-.16,3.05-.82,4.4.78-2.73-1.47-5.55-1.04-8.36-4.58,6.02-7.27,13.46-7.61,21.01,1.26-3.59-2.67-7.43-1.55-11.06-3.79,3.91-5.54,8.44-7.97,13.14-2.53,4.9-3.22,10.54-6.14,15.33-2.21,3.64-4.34,8.38-7.36,11.38-30.9,30.67-64.93,49.03-106.8,60.68-2.4.67-7.57,1.44-9.4,3.13s-2.72,3.57-1.29,5.62c2.26,3.25,7.37.95,11.13-.28,40.74-13.28,78.35-35.51,110.84-63.45,16.13-13.87,31.04-29.15,44.69-45.46,13.77-16.46,28.78-31.5,40.9-49.42-9.69,22.47-68.13,91.2-104.66,115.47,8.17-.6,16.24-5.69,23.11-10.16,6.87-4.47,13.46-9.52,21.05-12.61,2.89-1.18,5.78-2.17,8.55-3.61,2.65-1.38,5.11-3.14,7.25-5.23-2.88,1.61-6.64-.41-9.74.71,2.37-2.44,6-3.03,9.24-4.08,4.96-1.61,9.47-4.6,12.89-8.54-3.82,1.19-8.33-1.24-11.83.71.5-.42,1.03-.81,1.58-1.16Z" style="fill-rule:evenodd;"/></g></g></g></svg>