<svg xmlns="http://www.w3.org/2000/svg" id="Layer_1" viewBox="0 0 441.32 78.79"><defs><style>.cls-1{fill:#bab9af;}.cls-2{fill:#c10230;}</style></defs><g><g><path class="cls-1" d="m35.49,1.88c.5-.22,1.13-.37,1.71-.17.79.27,1.3,1.19,1.17,2.05-.06.57-.41,1-.47,1.58-.37,3.28.85,8.39,1.7,12.73.33,2.77-2.5,3.96-2.96,2.26l-1.78-8.52c-.38-1.42-1.8-1.4-2.42-.03-2.47,5.67-4.54,14.47-7.33,22.92-3.6,10.75-8.35,20.94-16.44,23.35-2.34.68-4.9.72-7.27-.17-2.73-1.1-1-4.54.94-3.65,1.87.75,3.43.8,5.35.2,6.31-1.95,10.52-10.72,13.71-20.1,2.72-8.17,4.72-16.75,6.63-21.84.68-2.08.09-2.99-1.61-2.82-3.84.49-11.52,1.68-14.34,3.65-2.19,1.46-3.07,4.18-3.03,6.75.08,4.92,5.23,6.4,8.47,3.71.35-.36.85-.51,1.28-.38.71.13,1.37,1.12,1.38,1.9,0,.43-.34.93-.69,1.22-5.76,4.94-13.73,1.29-14.14-6.04-.29-4.56,2.06-9.23,6.45-10.94,4.46-1.71,9.23-2.29,13.84-3.29,6.03-1.38,5.03-1.86,9.83-4.36Zm5.71,27.27c-.1-1.92.58-3.5,1.56-5.16,3.54-5.62,5.47-9.57,10.1-14.56,1.12-1.09,2.55-.68,2.29.68-4.61,14.33-11.38,36.74-6.93,51.49.89,1.98,4.22.72,3.54-1.27-4-13.62,2.08-34.52,6.35-47.77.68-2.01,1.62-5.73,2.95-7.03.98-.94,2.41-.89,3.34-.48,1.36.69,2.68-1.75,1.59-2.8-1.95-1.47-5.65-1.33-8.06-.72-2.34.54-4.39,2-6.21,3.81-5.33,5.29-10.45,14.56-14.98,20.84-2.09,3.1-5.7,9.14-4.71,13.04.38,1.63,1.76,2.96,3.54,2.94,5.55-.23,5.84-9.07,5.63-12.99Zm-5.54,9.92c-2-.11.54-6.42,1.24-7.15.49-.51,1.2-.52,1.15.34.02,1.43-.24,6.99-2.38,6.81Z"></path><path class="cls-1" d="m67.59,25.51c1.11.14,2.07.55,2.83.97,1.11.62,1.8.14,2.21-.14,1.18-.9,3.46-.07,2.56,2.28-.48,1.31-2.14,5.74-3.25,9.95-.48,2-.9,3.94-1.04,5.46-.07,2,.55,2.97,1.8,2.9,3.32-.28,6.57-7.26,8.3-10.16.62-1.04,2.77,0,1.94,1.31-1.93,4.06-5.32,10.78-10.09,11.61-1.66.28-3.11-.21-4.08-1.66-.97-1.52-1.73-1.24-2.83-.41-1.04.9-2.35,1.59-3.66,1.94-2.28.55-4.29-.55-5.46-2.42-1.66-2.63-1.52-6.84-.28-10.85,1.24-4.29,3.73-8.36,6.57-9.89,1.59-.83,3.18-1.04,4.49-.9Zm0,3.32c-.9-.41-2.14-.28-3.59.76-1.52,1.18-3.04,4.01-4.01,7.05-1.11,3.32-1.45,6.84-.55,8.78.55,1.11,1.52,1.8,3.11,1.11,2.28-.97,4.7-4.42,5.81-8.23.9-2.97,1.38-5.95.76-7.81-.28-.76-.83-1.38-1.52-1.66Z"></path><path class="cls-1" d="m87.52,23.79c.05.69-.21,1.96-.41,2.94-.04.35-.27,1.13.66,1.41,1.27.32,3.63,1.33,4.79,2.08,2.47,1.56,1.88,2.98.82,6.53-1.08,3.33-2.56,6.84-2.56,8.71.05.76.43,1.22,1.07,1.38,2.4.59,6.87-8.53,7.77-10.47.12-.29.24-.57.36-.79.54-1.15,2.75-.27,2.09,1.17-.13.15-.19.29-.25.43-1.74,3.8-5.78,13.1-10.87,12.63-2.02-.2-3.37-1.56-3.56-3.28-.13-2.76,1.71-7.12,2.72-10.38.39-1.35,1.13-2.65-.75-3.62-.65-.37-1.43-.66-2.14-.89-.5-.17-1.46-.03-1.8,1.03-.86,2.56-2.46,5.22-3.67,7.73-.61,1.22-2.94.56-2.1-1.3,1.03-2.08,2.75-5.1,3.6-7.72.4-1.14.28-.92-.18-1.58-1.1-1.79-.16-5.12.99-6.52,1.15-1.4,3.21-.65,3.43.52Z"></path><path class="cls-1" d="m88.7,66.9c-4.22,1.45-10.51,3.39-14.86,1.94-4.7-1.59-5.32-6.36-.83-8.5,3.15-1.42,7.81-1.28,11.65-.38,1.15.27,1.4,1.81.41,2.46h0c-.33.21-.72.27-1.1.17-2.81-.74-6.25-.81-9.02.03-2.49.83-2.29,3.2.28,3.53,3.91.5,7.85-.58,11.49-1.9,4.71-1.71,9.39-3.46,14.22-4.8,2.7-.76,3.18-1.8,3.66-3.39.28-.76,2.19-6.83,2.4-7.59-.76.41-1.66,1.11-3.25,1.31-2.28.35-4.15-.62-4.84-2.7-.9-2.56-.21-6.64.83-10.58.97-3.53,2.28-7.05,2.97-9.26.55-2.14,4.22-1.52,3.11,1.38-.9,2.56-1.94,5.46-2.7,8.43-.69,2.49-1.24,4.98-1.38,7.26-.07,1.94.55,2.77,1.8,2.7,2.9-.21,5.53-5.39,6.29-7.88l3.66-11.89c.62-2.07,3.8-1.31,3.18.9l-3.39,11.2c-1.17,3.73-3.92,12.7-4.95,16.44-.35,1.38.41,2,1.94,1.8,4.22-.48,8.43-.35,12.44.62,5.05,1.24,9.61,3.8,13,8.23,1.87,2.35-1.18,3.94-2.42,2.14-2.97-3.94-6.91-6.29-11.27-7.4-3.87-.97-8.02-1.04-12.03-.48-1.38.14-3.46.97-4.15,3.32-1.31,4.63-2.42,8.85-3.8,13.62-.21.76-.76,1.17-1.52,1.17s-1.38-.48-1.66-1.17c-1.8-3.6-3.94-7.4-7.19-10.3-1.04-.97-1.87-.76-2.97-.41m9.95,4.15c.62.9,1.52,2.07,2,.07.48-1.52.97-4.01,1.45-5.46.76-2.83-1.31-3.11-2.21-2.83-1.38.42-2.7.76-4.08,1.24-1.45.48-.9,1.66-.21,2.49,1.11,1.24,2.21,3.25,3.04,4.49Z"></path></g><g><path class="cls-1" d="m132.73,56.21c1.73,2.01,4.27,2.73,7.17,2.03,7.72-1.79,10.39-9.79,12.33-15.64.57-1.66,1.59-2.69,3.09-3.29.09-.04,9.08-4.31,14.13-8.47,2.75-2.27,3.99-4.28,3.56-4.83-.31-.41-1.73-.11-4.69,2.04-6.18,4.51-10.48,6.47-10.53,6.49l-1.42.64c-.29.13-.63.09-.88-.12-.25-.21-.35-.53-.27-.84l.33-1.29,6.95-22.16c1.04-2.55,2.29-4.21,4.21-5.55.84-.52.92-1.64.53-2.43-.36-.72-1.21-1.32-2.49-.81-3.03,1.31-7.59,2.02-12,2.71-2.89.45-5.62.88-7.9,1.45-2.43.65-4.56,2.29-6.01,4.62-1.42,2.28-2.04,4.96-1.74,7.54.28,2.57,1.86,4.7,4.33,5.83,2.87,1.31,6.34.97,9.06-.91.87-.61.81-1.56.39-2.17-.39-.57-1.17-.95-1.96-.43-2.21,1.26-4.68,1.5-6.3.61-1.28-.71-2-2.08-2.08-3.96-.11-3,1.69-6.72,5.33-8.02,2.59-.96,4.74-1.11,7.24-1.29,1.13-.08,2.3-.17,3.6-.33.8-.05,1.36.15,1.69.59.63.83.2,2.49.02,3.08-1.55,5.56-4.72,15.48-6.74,21.53-.95,2.92-1.89,6.14-2.78,8.87-1.52,4.5-4.07,12.03-9.73,13.14-1.41.31-2.6-.06-3.52-1.09-1.31-1.65-.6-4.63,1.59-6.65,2.06-1.84,5.32-3.62,9.7-5.29,1.36-.57,1.73-1.82,1.39-2.72-.19-.5-.58-.77-1.02-.74-.1,0-.19.03-.3.06-3.36,1.19-8.22,3.09-11.57,5.91-3.57,2.97-5.51,8.45-2.71,11.88Z"></path><path class="cls-1" d="m174.83,25.51c1.11.14,2.07.55,2.83.97,1.11.62,1.8.14,2.21-.14,1.18-.9,3.46-.07,2.56,2.28-.48,1.31-2.14,5.74-3.25,9.95-.48,2-.9,3.94-1.04,5.46-.07,2,.55,2.97,1.8,2.9,3.32-.28,6.57-7.26,8.3-10.16.62-1.04,2.77,0,1.94,1.31-2.07,3.66-5.32,10.78-10.09,11.61-1.66.28-3.11-.21-4.08-1.66-.97-1.52-1.73-1.24-2.83-.41-1.04.9-2.35,1.59-3.66,1.94-2.28.55-4.29-.55-5.46-2.42-1.66-2.63-1.52-6.84-.28-10.85,1.24-4.29,3.73-8.36,6.57-9.89,1.59-.83,3.18-1.04,4.49-.9Zm0,3.32c-.9-.41-2.14-.28-3.59.76-1.52,1.18-3.04,4.01-4.01,7.05-1.11,3.32-1.45,6.84-.55,8.78.55,1.11,1.52,1.8,3.11,1.11,2.28-.97,4.7-4.42,5.81-8.23.9-2.97,1.38-5.95.76-7.81-.28-.76-.83-1.38-1.52-1.66Z"></path><path class="cls-1" d="m194.6,26.54c.07.14.48.76,1.31.28,1.45-1.04,3.25-1.59,5.12-1.52,2.14.14,5.12,1.73,3.94,6.22-1.04,4.22-2.83,7.54-3.59,12.31-.41,2.42.48,2.97,1.87,2.42,1.45-.55,3.11-2.7,4.7-5.12,1.24-2,2.35-4.01,3.04-5.12.62-1.04,2.77,0,1.94,1.38-.97,1.66-2.21,4.01-3.73,6.15-1.66,2.42-3.46,4.63-5.6,5.46-2.9,1.04-6.15-.21-5.53-5.05.76-5.19,2.42-8.3,3.66-12.72.35-1.38-.55-2.07-1.45-2.28-4.49-.76-8.3,7.12-9.26,10.58l-2.42,8.5c-.55,2.14-3.73,1.38-3.39-.55l5.95-20.6c.76-1.87,2.97-1.52,3.46-.35Z"></path><path class="cls-1" d="m232.24,36.33c-.68-.82-1.55-.72-2.11-.28-.59.48-.88,1.42-.25,2.22,1.06,1.4.57,3.99-.03,5.4-1.35,3.53-4.42,5.91-8.02,6.22-2.36.19-4.68-.57-6.34-2.08-1.7-1.54-2.63-3.77-2.68-6.45-.09-1.44.44-1.5,1.17-1.59l.2-.03c2.09-.23,4.63-1.34,6.18-2.71,2.9-2.44,4.56-5.74,4.24-8.4-.32-2.15-2.04-3.48-4.49-3.48-5.33.06-10,7.57-10.62,14.24-.43,5.3,1.57,8.47,3.32,10.19,2.11,2.08,5.03,3.22,8.15,3.22.42,0,.83-.02,1.25-.06,4.75-.46,8.62-3.53,10.35-8.23.97-2.43,1.47-6.04-.32-8.19Zm-11.69-8.22c.63,0,1.01.28,1.2.84.5,1.84-1.23,4.35-3.05,5.9-.94.78-1.97,1.35-2.81,1.58h0c-.52.14-1.45.3-1.86-.17-.35-.4-.28-1.24.21-2.43,1.42-3.21,3.83-5.5,6.01-5.71.11-.01.2-.02.3-.02Z"></path></g></g><g><path class="cls-1" d="m387.75,23.79c.05.69-.21,1.96-.41,2.94-.04.35-.27,1.13.66,1.41,1.27.32,3.63,1.33,4.79,2.08,2.47,1.56,1.88,2.98.82,6.53-1.08,3.33-2.56,6.84-2.56,8.71.05.76.43,1.22,1.07,1.38,2.4.59,6.87-8.53,7.77-10.47.12-.29.24-.57.36-.79.54-1.15,2.75-.27,2.09,1.17-.13.15-.19.29-.25.43-1.74,3.8-5.78,13.1-10.87,12.63-2.02-.2-3.37-1.56-3.56-3.28-.13-2.76,1.71-7.12,2.72-10.38.39-1.35,1.13-2.65-.75-3.62-.65-.37-1.43-.66-2.14-.89-.5-.17-1.46-.03-1.8,1.03-1.3,3.88-2.38,6.04-4.5,9.43-.65,1.2-2.11-1.14-1.27-3,1.03-2.08,2.75-5.1,3.6-7.72.4-1.14.28-.92-.18-1.58-1.1-1.79-.16-5.12.99-6.52,1.15-1.4,3.21-.65,3.43.52Z"></path><path class="cls-1" d="m369.85,9.79c1.27-2.41.39-4.35-1.34-4.44-3.8-.24-6.35,6.65-7.42,9.54-.85,2.14-4.66,2.72-4.02.86,1.85-5.24,4.97-14.13,11.61-14.07,4.01.04,6.73,4.42,4.27,9.3-2.32,4.61-7.96,8.29-11.92,10.47-1.39.82-3.12,2.94-3.6,4.53-2.42,7.74-5.47,18.53-3.11,25.65,6.06,15.14,32.1,5.67,44.38,3.18,6.85-1.38,13.69-1.87,20.38-.28,4.33,1.11,8.34,3.59,10.15,7.33,1.81,3.94-2.13,3.53-2.7,1.8-.94-2.58-5.09-5.21-8.55-6.18-5.43-1.66-11.8-1.18-18.33,0-15.03,2.9-41.35,13.62-48.67-4.91-2.44-7.05-.08-16.57,2.34-25.07.35-1.18-.9-1.87-1.73-1.52-7.88,3.18-17.82,7.03-24.08,11.09-10.52,6.82-11.7,14.51-9.01,16.49,3.19,2.36,13.11-1.93,17.35-18.26.76-2.19,4.61-2.64,3.88.04-5.57,20.64-18.3,25.32-24.1,21.17-4.58-3.45-3.77-13.76,10.61-23.04,2.86-1.84,5.91-3,8.5-4.69,2.27-1.39,3.73-4.32,4-5.63,1.36-4.78,2.04-7.82,3.68-12.6.48-1.52-.01-2.83-1.81-2.9-2.9.01-6.23-.94-9.13-1.55-7.47-1.63-10.57,2.46-10.83,6.47-.13,2.77,1.06,5.39,3,6.35,1.73.82,4.01.61,6.22-1.06,1.59-1.18,3.53,1.23,1.81,2.62-3.45,2.43-7.04,2.66-9.67,1.42-3.32-1.58-5-5.44-4.81-9.31.39-5.67,4.86-11.29,14.41-9.8,4.43.67,8.86,2.04,12.65.92,2.07-.63,3.38-2.09,5.24-2.92,2.28-1.05,3.67,1.71,2.22,2.89-2,1.67-4.07,3.06-4.96,5.55-1.99,4.43-2.73,8.79-4.03,13.43-.2,1.45.63,2.63,2.22,2.08,8.3-2.97,21.63-9.18,24.86-14.95Z"></path><path class="cls-1" d="m362.12,36.27c1.36-5.52,5.02-10.94,9.63-11.31,3.99-.39,6.16,2.49,5.29,6.23-1.17,5.3-5.8,8.09-10.69,9.39-.48.11-1.58,1.03-1.5,1.99.15.96.34,1.64.81,2.36.96,1.59,2.56,2.21,4.29,2.07,5.25-.35,9.01-6,11.3-10.5.69-1.11,2.31,1.35,1.5,2.7-2.53,5.39-6.44,10.01-12.66,10.56-2.7.28-5.2-.61-6.98-2.9-1.79-2.42-1.98-6.57-.99-10.6Zm5.01,1.12c3.24-1.09,6.49-2.95,7.24-6.61.36-1.62-.19-3.24-2.17-2.88-2.87.58-5.17,3.88-6.47,7.59-.32,1.14-.1,2.23,1.4,1.9Z"></path><path class="cls-1" d="m408.52,48.73c-1.38.69-2.9.97-4.7.83-1.52-.21-3.25-1.04-4.01-2.42-1.59-3.66-.41-9.12,1.11-14.03.69-2.42,1.52-4.63,2.07-6.5,1.94-6.15,3.66-11.75,4.91-15.76.35-1.24,1.45-1.66,2.35-1.38.76.21,1.38,1.04,1.18,1.94-.76,2.7-2.35,7.74-3.66,11.96-.83,2.63.42,2.01,1.59,1.73,2.14-.55,4.91,0,6.15,1.87,1.45,2.14,1.31,6.5,0,10.78-.62,2.07-1.45,4.22-2.49,6.15-.21.48-.76,1.38-.21,2.21.28.41.69.69,1.24.69,3.32-.21,6.57-7.26,8.3-10.16.62-1.04,2.77,0,1.94,1.31-2.07,3.66-5.32,10.85-10.09,11.61-1.18.21-2.21-.07-3.11-.69-.76-.55-1.87-.55-2.56-.14Zm2.9-9.47c.28-.76.35-.9.62-1.66,1.24-3.59,1.59-6.91.69-8.3-.83-1.31-2.21-1.24-3.6-.55-1.94,1.11-3.39,2.97-4.49,5.39-1.87,4.08-2.56,8.92-1.59,11.13.9,1.8,3.04,1.31,4.36.28.83-.62.76-.9.48-1.73-.9-2.35.48-4.36,2.49-3.73.76.28.83-.35,1.04-.83Z"></path><path class="cls-1" d="m421.54,21.12s.15-.25.21-.38c.31-.64.41-1.46.06-2.11s-.92-1-.91-1.85c.04-1.27,1.06-2.24,2.33-2.27,1.19.05,2.13.91,2.32,2,.5,2.79-3.18,5.17-3.18,5.17,0,0-.52.36-.84.19-.3-.16,0-.75,0-.75Z"></path><path class="cls-1" d="m429.26,23.64c.69-1.45,3.6-.62,2.97,1.66-.41,1.73-.69,3.18-.76,4.63-.41,4.7,2.42,9.13,1.24,13.48-.21.48.14,1.18.9.62,1.8-1.73,3.11-3.8,4.42-6.01.41-.76.83-1.45,1.17-2,.62-1.04,2.7,0,1.94,1.31-.28.55-.55,1.11-.83,1.66-2.21,4.08-5.74,8.5-10.16,10.16-3.39,1.24-8.16.62-9.4-2.35-.69-1.73,1.18-2.97,2.42-1.66,1.66,2.07,4.15,1.8,5.6-.07,2.49-3.18.21-7.54-.48-11.54-.07-.76-1.11-.69-1.45-.07l-3.25,5.88c-.9,1.66-2.9.28-2.21-.97l7.88-14.73Z"></path></g><path class="cls-2" d="m297.39,18.19c-1.61-1.45-3.96-2.05-6.13-1.56-2.35.53-4.78,2.18-4.89,4.68-.06,1.26.52,2.63,1.5,3.58.81.78,1.79,1.17,2.77,1.1.66-.05,1.37-.39,1.78-.83.52-.56.72-1.39.55-2.24-.06-.33-.46-1.96-2.14-2.54.37-.19.77-.34,1.19-.43,1.09-.25,2.31.05,3.1.77.9.81,1.44,2.14,1.49,3.64.05,1.56-.45,3.03-1.33,3.95-1.43,1.48-3.8,1.7-5.09,1.7-1.14,0-2.19-.16-3.32-.33-1.38-.2-2.94-.43-4.87-.41-3.48.05-6.64,1.32-8.9,3.57-1.3,1.29-2.15,2.86-2.49,4.55-.56,2.86.63,5.61,3.05,7.01.98.57,2.1.87,3.25.87.66,0,1.31-.1,1.95-.29,1.89-.58,3.64-2.43,4.15-4.4.24-.91.16-2.04-.22-3.01-.41-1.08-1.12-1.86-2.01-2.2-.6-.23-1.4-.22-1.96.02-.7.29-1.23.97-1.42,1.81-.1.41-.49,2.52,1.58,3.71-.33.41-.71.68-1.11.81-.83.25-1.76.16-2.49-.26-1.13-.66-1.69-1.99-1.41-3.4.2-1.02.73-1.98,1.55-2.79,1.63-1.62,3.95-2.53,6.55-2.57.98-.01,1.92.05,3.03.2,4.93,1.79,5.39,7.76,4.14,11.43-1.97,5.8-8.04,9.9-15.46,10.43-6.66.47-15.15-2.67-18.49-9.59-2.12-4.39-1.91-9.96.53-13.85,1.19-1.91,3.46-4.26,7.48-4.64.71,1.02,2.16,2.67,4.09,2.67.05,0,.11,0,.16,0,.86-.03,1.63-.43,2.04-1.06.34-.5.42-1.12.21-1.74-.21-.64-.7-1.25-1.44-1.81-.6-.46-1.31-.84-2.23-1.21-.35-.14-.63-.37-.82-.66-.36-.56-.69-1.23-.39-1.89.2-.45.63-.79,1.17-.93.66-.17,1.36-.37,2.03-.62,3.54-1.38,6.46-2.65,9.05-5.32,1.47-1.55,2.41-3.14,2.78-4.71.82-2.94.16-5.73-1.76-7.47-2.78-2.57-5.94-2.06-8.11-1.19-5.24,2.11-9.76,8.29-10.08,13.78.04,1.03.92,1.51,1.72,1.52.86.02,1.77-.48,1.85-1.62.23-3.74,3.46-8.48,6.91-10.16,1.92-.93,3.73-.87,5.25.18.87.57,1.42,1.46,1.56,2.52.19,1.5-.45,3.14-1.8,4.63-3.68,3.9-10.18,6.52-15.78,6.35-4.11-.11-7.52-1.63-9.86-4.4-1.54-1.89-2.39-4.28-2.39-6.75,0-.82-.75-1.36-1.45-1.36-.44,0-.82.16-1.1.46-.32.35-.48.86-.43,1.4.25,3.38,1.33,6.22,3.2,8.44,2.65,3.14,6.85,5.13,10.96,5.21,1.14.02,2.01.49,2.38,1.29.2.43.4.87.59,1.3h0c-3.67.72-6.68,2.79-8.69,6.01-3.08,4.92-3.36,11.65-.71,17.14,1.74,3.61,4.75,6.61,8.71,8.69,3.52,1.85,7.62,2.87,11.55,2.87.53,0,1.05-.02,1.55-.06,8.79-.63,16.03-5.63,18.44-12.73.96-2.83,1.03-6.02.2-8.76-.5-1.64.4-3.38,2.08-4.03,1.19-.46,2.2-1.12,3-1.94,1.54-1.59,2.37-3.93,2.29-6.43-.08-2.42-1.03-4.63-2.61-6.06Z"></path></svg>