<svg viewBox="0 0 169 32" fill="none" xmlns="http://www.w3.org/2000/svg">
<g clip-path="url(#clip0_41_220)">
<path d="M97.2394 27.5497H97.3127L99.2577 31.8786H98.3391L98.1407 31.3908H96.4157L96.2173 31.8786H95.3721L97.2394 27.5497ZM97.8259 30.6548L97.5197 29.9101C97.3947 29.6052 97.2653 29.1393 97.2653 29.1393C97.2653 29.1393 97.1402 29.6052 97.0152 29.9101L96.709 30.6548H97.8259Z" fill="#4D1635"/>
<path d="M101.384 29.7359C101.384 28.4686 102.354 27.541 103.57 27.541C104.338 27.541 104.89 27.8197 105.269 28.4163L104.601 28.8954C104.403 28.5688 104.058 28.3336 103.57 28.3336C102.803 28.3336 102.281 28.9346 102.281 29.7359C102.281 30.5372 102.798 31.1513 103.57 31.1513C104.122 31.1513 104.428 30.8857 104.666 30.5198L105.347 30.9945C104.976 31.5738 104.39 31.9396 103.57 31.9396C102.35 31.9396 101.384 31.0032 101.384 29.7359Z" fill="#4D1635"/>
<path d="M105.89 30.6679V29.1915H106.735V30.6505C106.735 31.0163 106.86 31.2123 107.193 31.2123C107.525 31.2123 107.654 31.0163 107.654 30.6505V29.1915H108.499V30.6679C108.499 31.4562 108.012 31.9483 107.162 31.9483C106.313 31.9483 105.894 31.4562 105.894 30.6679H105.89Z" fill="#4D1635"/>
<path d="M109.293 29.1915H110.138L110.125 29.6793C110.319 29.2394 110.63 29.1349 110.906 29.1349C111.083 29.1349 111.212 29.1872 111.32 29.2438L111.052 30.019C110.945 29.9667 110.845 29.9363 110.729 29.9363C110.35 29.9363 110.143 30.1148 110.143 30.6853V31.8786H109.297V29.1872L109.293 29.1915Z" fill="#4D1635"/>
<path d="M111.82 28.2073C111.82 27.8981 112.07 27.676 112.359 27.676C112.648 27.676 112.889 27.8981 112.889 28.2073C112.889 28.5165 112.644 28.743 112.359 28.743C112.074 28.743 111.82 28.5209 111.82 28.2073ZM111.932 29.1915H112.777V31.883H111.932V29.1915Z" fill="#4D1635"/>
<path d="M113.532 30.5416C113.532 29.7229 114.175 29.1349 115.003 29.1349C115.831 29.1349 116.465 29.7229 116.465 30.5416C116.465 31.3604 115.827 31.9352 115.003 31.9352C114.179 31.9352 113.532 31.356 113.532 30.5416ZM115.602 30.5416C115.602 30.1366 115.378 29.8666 115.003 29.8666C114.628 29.8666 114.395 30.1366 114.395 30.5416C114.395 30.9466 114.628 31.2166 115.003 31.2166C115.378 31.2166 115.602 30.9379 115.602 30.5416Z" fill="#4D1635"/>
<path d="M118.526 27.5889H119.453L120.07 29.3135C120.178 29.6096 120.294 30.0887 120.294 30.0887C120.294 30.0887 120.419 29.6009 120.557 29.3135L121.376 27.554H121.463L122.295 29.3135C122.433 29.6053 122.558 30.0887 122.558 30.0887C122.558 30.0887 122.679 29.6096 122.782 29.3135L123.395 27.5889H124.244L122.7 31.9178H122.614L121.657 29.8491C121.545 29.6096 121.42 29.2133 121.42 29.2133C121.42 29.2133 121.29 29.6096 121.174 29.8491L120.182 31.9178H120.096L118.526 27.5889Z" fill="#4D1635"/>
<path d="M125.728 31.2297C126.034 31.2297 126.267 31.1078 126.396 31.0163L126.879 31.5389C126.625 31.7654 126.297 31.9352 125.741 31.9352C124.792 31.9352 124.18 31.356 124.18 30.5285C124.18 29.7011 124.822 29.1349 125.65 29.1349C126.608 29.1349 127.125 29.8535 127.065 30.7942H125.047C125.128 31.0729 125.353 31.2297 125.732 31.2297H125.728ZM126.211 30.3021C126.172 30.0059 125.987 29.8274 125.655 29.8274C125.323 29.8274 125.098 29.9798 125.029 30.3021H126.211Z" fill="#4D1635"/>
<path d="M127.802 27.3232H128.639V31.8829H127.802V27.3232Z" fill="#4D1635"/>
<path d="M129.497 27.3232H130.334V31.8829H129.497V27.3232Z" fill="#4D1635"/>
<path d="M131.17 29.1915H132.016L131.998 29.6314C132.162 29.3091 132.473 29.1306 132.844 29.1306C133.426 29.1306 133.844 29.5617 133.844 30.3238V31.8786H132.999V30.3805C132.999 30.0756 132.857 29.9058 132.555 29.9058C132.218 29.9058 132.016 30.0974 132.016 30.4371V31.8786H131.17V29.1872V29.1915Z" fill="#4D1635"/>
<path d="M136.091 31.2297C136.397 31.2297 136.63 31.1078 136.76 31.0163L137.243 31.5389C136.988 31.7654 136.66 31.9352 136.104 31.9352C135.155 31.9352 134.543 31.356 134.543 30.5285C134.543 29.7011 135.186 29.1349 136.014 29.1349C136.971 29.1349 137.488 29.8535 137.428 30.7942H135.41C135.492 31.0729 135.716 31.2297 136.095 31.2297H136.091ZM136.574 30.3021C136.535 30.0059 136.35 29.8274 136.018 29.8274C135.686 29.8274 135.462 29.9798 135.393 30.3021H136.574Z" fill="#4D1635"/>
<path d="M137.924 31.4257L138.42 30.9858C138.601 31.1644 138.834 31.2689 139.084 31.2689C139.36 31.2689 139.446 31.2166 139.446 31.1034C139.446 30.9597 139.278 30.9597 138.847 30.8465C138.484 30.7507 138.079 30.5503 138.079 29.9885C138.079 29.3832 138.541 29.1349 139.11 29.1349C139.545 29.1349 139.86 29.2786 140.08 29.5095L139.632 29.9972C139.507 29.8883 139.321 29.7969 139.118 29.7969C138.916 29.7969 138.829 29.8491 138.829 29.9537C138.829 30.1061 138.998 30.1235 139.36 30.2063C139.748 30.2934 140.235 30.4763 140.235 31.0468C140.235 31.5389 139.981 31.9439 139.14 31.9439C138.523 31.9439 138.157 31.7088 137.928 31.4344L137.924 31.4257Z" fill="#4D1635"/>
<path d="M140.71 31.4257L141.206 30.9858C141.387 31.1644 141.62 31.2689 141.87 31.2689C142.146 31.2689 142.232 31.2166 142.232 31.1034C142.232 30.9597 142.064 30.9597 141.633 30.8465C141.271 30.7507 140.865 30.5503 140.865 29.9885C140.865 29.3832 141.327 29.1349 141.896 29.1349C142.331 29.1349 142.646 29.2786 142.866 29.5095L142.418 29.9972C142.293 29.8883 142.107 29.7969 141.905 29.7969C141.702 29.7969 141.616 29.8491 141.616 29.9537C141.616 30.1061 141.784 30.1235 142.146 30.2063C142.534 30.2934 143.021 30.4763 143.021 31.0468C143.021 31.5389 142.767 31.9439 141.926 31.9439C141.309 31.9439 140.943 31.7088 140.714 31.4344L140.71 31.4257Z" fill="#4D1635"/>
<path d="M143.741 28.5949H143.414V28.3858H144.311V28.5949H143.983V29.5486H143.746V28.5949H143.741Z" fill="#4D1635"/>
<path d="M144.613 28.3728H144.638L145.044 28.9215C145.083 28.9738 145.126 29.0478 145.126 29.0478C145.126 29.0478 145.173 28.9694 145.208 28.9215L145.605 28.3728H145.63L145.725 29.5486H145.488L145.458 29.1349C145.454 29.0565 145.449 28.9259 145.449 28.9259C145.449 28.9259 145.389 29.0391 145.341 29.1001L145.134 29.3831H145.113L144.902 29.1044C144.854 29.0391 144.789 28.9302 144.789 28.9302C144.789 28.9302 144.789 29.0609 144.781 29.1393L144.751 29.5486H144.526L144.621 28.3728H144.613Z" fill="#4D1635"/>
<path d="M147.86 27.5889H149.503C150.296 27.5889 150.741 28.094 150.741 28.6994C150.741 29.0957 150.508 29.3701 150.141 29.4877C150.723 29.627 151.004 30.019 151.004 30.5547C151.004 31.3168 150.465 31.8786 149.576 31.8786H147.855V27.5845L147.86 27.5889ZM149.408 29.1741C149.688 29.1741 149.878 29.0173 149.878 28.7691C149.878 28.5208 149.723 28.3641 149.451 28.3641H148.731V29.1741H149.408ZM149.537 31.1078C149.895 31.1078 150.12 30.8682 150.12 30.5155C150.12 30.1627 149.887 29.9275 149.49 29.9275H148.735V31.1078H149.542H149.537Z" fill="#4D1635"/>
<path d="M151.715 29.1915H152.561L152.548 29.6793C152.742 29.2394 153.052 29.1349 153.328 29.1349C153.505 29.1349 153.634 29.1872 153.742 29.2438L153.475 30.019C153.367 29.9667 153.268 29.9363 153.151 29.9363C152.772 29.9363 152.565 30.1148 152.565 30.6853V31.8786H151.72V29.1872L151.715 29.1915Z" fill="#4D1635"/>
<path d="M154.135 30.5285C154.135 29.7141 154.652 29.1349 155.321 29.1349C155.722 29.1349 155.985 29.3048 156.131 29.5966L156.118 29.1915H156.955V31.883H156.118L156.131 31.4736C155.993 31.7436 155.713 31.9396 155.308 31.9396C154.669 31.9396 154.13 31.3604 154.13 30.5329L154.135 30.5285ZM156.136 30.5285C156.136 30.1322 155.929 29.884 155.566 29.884C155.204 29.884 155.01 30.1322 155.01 30.5285C155.01 30.9249 155.209 31.1905 155.566 31.1905C155.924 31.1905 156.136 30.9379 156.136 30.5285Z" fill="#4D1635"/>
<path d="M157.779 29.1915H158.624L158.607 29.6314C158.771 29.3091 159.081 29.1306 159.452 29.1306C160.034 29.1306 160.453 29.5617 160.453 30.3238V31.8786H159.607V30.3805C159.607 30.0756 159.465 29.9058 159.163 29.9058C158.827 29.9058 158.624 30.0974 158.624 30.4371V31.8786H157.779V29.1872V29.1915Z" fill="#4D1635"/>
<path d="M161.155 30.5285C161.155 29.7011 161.707 29.1349 162.35 29.1349C162.777 29.1349 163.014 29.3047 163.182 29.5704V27.3232H164.027V31.8829H163.182L163.199 31.491C163.048 31.7741 162.768 31.9396 162.363 31.9396C161.712 31.9396 161.155 31.3603 161.155 30.5329V30.5285ZM163.204 30.5285C163.204 30.1322 162.967 29.884 162.604 29.884C162.242 29.884 162.022 30.1322 162.022 30.5285C162.022 30.951 162.246 31.1905 162.604 31.1905C162.962 31.1905 163.204 30.951 163.204 30.5285Z" fill="#4D1635"/>
<path d="M164.89 1.7415H164.205V1.30164H166.068V1.7415H165.382V3.72306H164.89V1.7415Z" fill="#4D1635"/>
<path d="M166.702 1.27548H166.749L167.59 2.41651C167.668 2.52539 167.763 2.67782 167.763 2.67782C167.763 2.67782 167.857 2.51668 167.931 2.41651L168.754 1.27548H168.802L168.996 3.72303H168.504L168.44 2.86508C168.431 2.70395 168.418 2.43393 168.418 2.43393C168.418 2.43393 168.293 2.66911 168.194 2.79976L167.758 3.38769H167.715L167.28 2.80411C167.18 2.67346 167.042 2.43829 167.042 2.43829C167.042 2.43829 167.034 2.7083 167.025 2.86944L166.96 3.72303H166.495L166.689 1.27548H166.702Z" fill="#4D1635"/>
<path d="M126.69 8.42652H124.331C124.283 8.33942 124.232 8.25232 124.184 8.16522C126.271 6.3927 128.359 4.61583 130.627 2.69089V6.20108H135.901C135.5 6.96757 135.224 7.59035 134.849 8.1478C134.728 8.33071 134.353 8.4091 134.09 8.41346C132.982 8.44394 131.873 8.42652 130.718 8.42652C130.696 8.68347 130.662 8.88816 130.662 9.09285C130.662 11.8104 130.636 14.528 130.683 17.2455C130.696 17.8901 130.86 18.5695 131.11 19.1661C131.52 20.1634 132.537 20.4596 133.495 19.9718C134.646 19.3839 135.599 17.6941 135.384 16.4311C134.37 10.4386 140.041 5.5783 145.221 5.92235C146.618 6.01381 147.959 6.20108 149.136 7.02854C150.085 7.69487 150.629 8.60508 150.637 9.7853C150.646 10.6476 150.292 11.1136 149.434 11.1615C147.903 11.253 146.368 11.2704 144.833 11.2878C142.957 11.3052 141.076 11.2922 139.213 11.2922C138.48 15.0462 140.304 18.0991 143.513 19.1052C147.588 20.3812 151.034 18.6392 152.914 14.4757C153.445 13.2999 153.708 12.0978 153.544 10.8349C153.479 10.334 153.233 9.82886 152.979 9.38028C152.759 8.99704 152.405 8.69654 152.026 8.26538C152.461 8.03456 152.845 7.84294 153.22 7.62954C154.027 7.17226 154.859 6.74982 155.618 6.22721C156.114 5.88751 156.438 5.98768 156.606 6.47109C156.955 7.4684 157.231 8.49185 157.524 9.50658C157.58 9.70256 157.585 9.91596 157.615 10.1381C158.141 9.23221 158.59 8.33071 159.159 7.51196C160.086 6.17059 161.436 5.77428 162.997 5.98332C163.92 6.10962 164.213 6.61046 163.898 7.49889C163.303 9.16688 162.574 9.72869 160.845 9.68078C158.029 9.60675 157.779 10.2121 157.693 12.8339C157.593 15.8389 157.671 18.8482 157.671 21.9795H160.021C160.021 22.0579 160.021 22.1363 160.021 22.2103H151.707C151.922 22.0884 152.03 21.9708 152.142 21.9664C153.082 21.9447 153.479 21.3916 153.488 20.5336C153.509 18.465 153.496 16.392 153.496 14.1665C153.121 14.9243 152.824 15.5819 152.479 16.2178C151.228 18.5216 149.658 20.5293 147.269 21.7574C143.746 23.5604 139.011 22.6676 136.785 19.7541C136.402 19.2532 136.117 18.674 135.742 18.0687C135.379 18.5608 135.052 19.1008 134.633 19.5581C133.952 20.2985 133.266 21.0475 132.49 21.6703C131.278 22.6371 129.864 23.0422 128.402 22.3541C126.905 21.6485 126.754 20.1373 126.724 18.7263C126.655 15.6124 126.698 12.4898 126.694 9.37593C126.694 9.09285 126.694 8.80541 126.694 8.43959L126.69 8.42652ZM139.261 11.0265C141.305 10.9089 143.332 10.8087 145.359 10.6737C146.083 10.6258 146.398 10.1381 146.437 9.42819C146.523 7.86907 145.531 6.72804 143.953 6.59303C141.551 6.38835 139.468 8.30458 139.261 11.0265Z" fill="#4D1635"/>
<path d="M71.5883 0.1214C71.8169 0.108335 72.0411 0.0822048 72.2697 0.0822048C75.4998 0.0822048 78.7299 0.0125236 81.96 0.0996251C85.5739 0.199792 88.7393 1.43663 91.0939 4.33711C92.9397 6.61046 93.4744 9.28012 93.2718 12.1283C92.8146 18.5042 87.8638 21.8184 83.2494 22.1799C82.5939 22.2321 81.9341 22.3062 81.2743 22.3062C78.2857 22.3192 75.2928 22.3149 72.3042 22.3062C72.0411 22.3062 71.7737 22.2757 71.5063 22.0928C71.5883 22.0492 71.6659 21.9795 71.7522 21.9665C73.171 21.7313 73.3737 21.5571 73.5591 20.2157C73.654 19.5058 73.7101 18.7873 73.7144 18.0687C73.7273 13.326 73.7273 8.58767 73.7144 3.84499C73.7144 3.18302 73.6454 2.51669 73.5721 1.85472C73.4858 1.04903 73.0761 0.530777 72.2222 0.456741C72.0023 0.439321 71.7867 0.37835 71.571 0.334799C71.5797 0.260763 71.5883 0.186727 71.6012 0.11269L71.5883 0.1214ZM77.8846 21.8968C78.8981 21.8968 80.0021 21.9142 81.1061 21.8968C82.3567 21.875 83.5815 21.7095 84.6941 21.0562C86.5959 19.9413 87.4973 18.1471 88.0191 16.1089C88.6401 13.6831 88.7134 11.2094 88.4676 8.74009C88.2865 6.91096 87.838 5.13845 86.8461 3.53578C85.0693 0.67014 81.8737 0.117045 78.9584 0.583038C78.6738 0.626589 78.2943 1.00113 78.2253 1.28421C78.0399 2.0507 77.9148 2.85203 77.9105 3.6403C77.876 7.92569 77.8846 12.2154 77.8803 16.5008C77.8803 18.2254 77.8803 19.9544 77.8803 21.8968H77.8846Z" fill="#4D1635"/>
<path d="M6.38248 11.0613C8.06006 11.1484 9.63414 11.1833 11.0098 10.1555C12.4028 9.11898 12.4977 7.53809 12.558 5.93978L12.847 6.00946V17.1802C12.7564 17.202 12.6615 17.2238 12.571 17.2412C12.502 15.2771 12.3252 13.3521 10.4104 12.2677C9.18133 11.5709 7.8315 11.5927 6.51617 11.6101C6.45148 11.7059 6.39542 11.7494 6.39542 11.793C6.42992 14.5062 6.39542 17.2238 6.52911 19.9326C6.61105 21.6398 7.0768 21.9403 8.81045 21.9577C9.09939 21.9577 9.38401 21.9969 9.67296 22.0187C9.67296 22.0884 9.66864 22.1581 9.66433 22.2234H0.15517C0.146545 22.1755 0.142232 22.1232 0.133607 22.0753C0.288858 22.0361 0.439798 21.9752 0.595049 21.9577C1.69044 21.814 1.96213 21.5701 2.04838 20.4509C2.14757 19.2053 2.23813 17.9554 2.24244 16.7055C2.24675 12.3113 2.22088 7.91263 2.18638 3.51836C2.18638 2.93478 2.11738 2.34684 2.02681 1.77197C1.87587 0.809501 1.54812 0.535132 0.547611 0.43061C0.370797 0.41319 0.198295 0.382704 -0.00439453 0.208501C0.142232 0.16495 0.284546 0.086559 0.42686 0.0822039C5.72266 0.0647836 11.0185 0.0386532 16.3186 0.0517184C17.5994 0.0517184 17.414 0.025588 17.4916 1.16662C17.6727 3.9016 17.9229 6.62788 18.1428 9.36287C18.1644 9.60675 18.1428 9.85935 18.1428 10.1032C18.0393 10.1207 17.9315 10.1381 17.828 10.1555C17.759 9.81144 17.6641 9.47174 17.621 9.12334C17.4097 7.44663 17 5.8309 16.1073 4.37631C14.6065 1.95924 12.5796 0.44803 9.60395 0.548197C8.8622 0.574327 8.12044 0.569972 7.37868 0.548197C6.78355 0.530777 6.50755 0.835632 6.41698 1.38437C6.39973 1.48889 6.37817 1.59341 6.37817 1.70229C6.37817 4.79004 6.37817 7.88214 6.37817 11.0613H6.38248Z" fill="#4D1635"/>
<path d="M29.2906 18.6697C28.2297 19.6887 27.2249 20.8123 26.0605 21.7313C24.8358 22.6937 23.3609 22.9246 21.8385 22.4934C19.251 21.7618 18.3368 18.87 20.0273 16.7752C21.0235 15.5427 22.369 14.7806 23.7663 14.136C25.4697 13.3477 27.212 12.6422 28.9542 11.9324C29.3639 11.7669 29.5623 11.5665 29.4933 11.1136C29.3337 10.0379 29.2647 8.94477 29.0189 7.89084C28.8119 7.00676 28.178 6.42318 27.2249 6.31866C26.2115 6.20543 25.3619 6.54512 24.8789 7.45969C24.4606 8.25231 24.1199 9.10155 23.8525 9.9595C23.2876 11.7712 21.6876 11.9062 20.3162 11.4359C19.4192 11.131 19.1475 10.199 19.8289 9.34979C20.4283 8.60943 21.2262 7.96488 22.0542 7.48582C24.37 6.15317 26.8583 5.56523 29.5321 6.12268C31.7747 6.59303 33.1849 8.07375 33.4134 10.3732C33.5428 11.6667 33.4997 12.9776 33.4997 14.2797C33.4997 15.9826 33.4479 17.6898 33.4307 19.3926C33.4307 19.6016 33.4393 19.8325 33.5255 20.0197C33.6377 20.268 33.7886 20.6164 33.9913 20.673C34.194 20.7296 34.5606 20.551 34.7201 20.3594C35.0694 19.9326 35.3152 19.4231 35.643 18.9745C35.7422 18.8351 35.9621 18.7829 36.126 18.6914C36.126 18.8831 36.2036 19.1182 36.1174 19.2532C35.2592 20.5989 34.194 21.7487 32.7148 22.3932C30.8992 23.1902 29.5451 22.4063 29.3079 20.4509C29.2302 19.8237 29.2949 19.1792 29.2949 18.6609L29.2906 18.6697ZM29.5623 12.1196C27.6519 12.9471 25.8665 13.535 24.4261 14.8023C23.4902 15.6211 23.0633 16.675 23.1582 17.9336C23.3134 19.9718 25.5603 21.0998 27.199 19.9021C27.8459 19.4318 28.4281 18.7829 28.8378 18.0948C29.9289 16.27 29.213 14.2231 29.5623 12.124V12.1196Z" fill="#4D1635"/>
<path d="M124.874 17.4023C124.874 17.5461 124.93 17.7246 124.865 17.8291C123.757 19.6365 122.545 21.3785 120.536 22.2408C119.824 22.55 118.936 22.6154 118.151 22.5457C116.909 22.4368 116.128 21.4613 115.904 19.9196C115.788 19.1052 115.753 18.2777 115.749 17.4546C115.732 14.6586 115.744 11.8627 115.74 9.06673C115.74 8.88381 115.71 8.7009 115.688 8.44395H113.398L113.269 8.21749C115.274 6.32738 117.439 4.6289 119.699 2.69525V6.17496H124.973C124.542 6.98064 124.244 7.61213 123.865 8.19136C123.757 8.35249 123.404 8.40475 123.158 8.40911C122.049 8.43088 120.941 8.41782 119.79 8.41782C119.759 8.63557 119.716 8.81413 119.716 8.98833C119.716 11.732 119.699 14.4757 119.738 17.2151C119.746 17.8117 119.88 18.4388 120.096 18.9919C120.6 20.2767 121.881 20.6164 122.921 19.7018C123.464 19.2271 123.822 18.5434 124.262 17.9511C124.417 17.742 124.564 17.5286 124.715 17.3152C124.766 17.3414 124.818 17.3675 124.87 17.3936L124.874 17.4023Z" fill="#4D1635"/>
<path d="M41.8147 21.9621H44.0917C44.0917 22.0361 44.0917 22.1145 44.0874 22.1886H35.8936C35.9108 22.132 35.9108 22.0492 35.9367 22.0448C37.4116 21.6137 37.6013 21.483 37.6315 19.9588C37.6919 16.8972 37.6919 13.8355 37.6186 10.7739C37.6056 10.2252 37.1658 9.67208 36.8639 9.15383C36.6871 8.84462 36.3938 8.60509 36.1307 8.30895C37.459 7.52939 38.7183 6.76725 40.012 6.07044C40.1285 6.00511 40.6029 6.30126 40.6805 6.51901C41.1074 7.67746 41.4654 8.8664 41.8319 10.0074C41.8794 9.90726 41.957 9.67208 42.0907 9.47175C42.6427 8.60945 43.1214 7.67311 43.7984 6.91532C44.7601 5.83962 46.0798 5.80042 47.408 6.06608C47.9256 6.17061 48.1282 6.53208 48.0679 7.07646C47.9126 8.53106 46.6534 9.68951 45.1957 9.69386C44.7213 9.69386 44.2426 9.6808 43.7683 9.70257C42.6384 9.75048 42.1381 10.1642 41.9096 11.2835C41.8147 11.7495 41.7586 12.2329 41.7543 12.7076C41.7371 15.6081 41.7371 18.5129 41.7371 21.4134C41.7371 21.5658 41.7759 21.7226 41.8104 21.9708L41.8147 21.9621Z" fill="#4D1635"/>
<path d="M67.5817 15.8214C67.2798 15.4687 66.9392 15.1638 66.5769 14.8372C66.4389 14.7152 66.3009 14.5889 66.1672 14.4627L67.6248 12.1675H66.344C64.9338 12.1675 63.5322 12.1675 62.1307 12.1719C62.0056 12.1719 61.7641 12.2111 61.6692 12.3548C61.2983 12.8992 60.949 13.4436 60.5738 14.0228L60.0908 14.7675H61.7253C62.6956 14.7675 63.6271 14.7675 64.5543 14.7675C65.1926 14.7675 65.5879 15.0898 65.7403 15.7343C66.1068 17.2543 66.1845 18.7698 65.9818 20.2331C65.9343 20.5685 65.8438 20.7732 65.7101 20.8428C65.5807 20.9125 65.3694 20.8777 65.0891 20.7383C64.3602 20.3812 63.7824 20.011 63.3209 19.6103C60.7506 17.3806 58.3227 14.6891 55.9033 11.3836C55.5066 10.8392 55.1875 10.2121 54.9805 9.5719C54.7691 8.91864 54.8511 8.25231 55.209 7.69051C55.5756 7.11564 56.188 6.7411 56.8909 6.65836C58.0337 6.5277 58.9178 7.05902 59.5173 8.23489C59.8407 8.87073 60.0736 9.57626 60.2935 10.26C60.3927 10.5649 60.4919 10.8697 60.5997 11.1746C60.6299 11.266 60.6601 11.3531 60.6989 11.4751L60.8714 12.0151L61.0266 11.7364C61.0655 11.6667 61.0956 11.6188 61.1215 11.5752C61.169 11.4968 61.2035 11.4402 61.2121 11.3662L61.238 10.9829C61.3156 9.71997 61.3975 8.4091 61.4493 7.11999C61.4579 6.91966 61.1991 6.64529 61.0008 6.59303C59.8493 6.27511 58.327 5.93977 56.727 6.13139C55.3902 6.29253 54.1481 7.18097 53.4064 8.50491C52.6776 9.80272 52.5611 11.2965 53.0959 12.5029C53.3029 12.9645 53.553 13.3913 53.8204 13.8442C53.911 13.9967 53.9972 14.1447 54.0878 14.3015C53.1088 14.5498 52.242 15.0854 51.4399 15.9303C50.6852 16.7273 50.3186 17.6854 50.379 18.6958C50.4437 19.7846 51.0302 20.9125 51.9056 21.6398C52.6258 22.2365 53.4193 22.537 54.2344 22.537C55.1098 22.537 56.0112 22.1929 56.8694 21.5005C57.3567 21.1085 57.7966 20.6686 58.2278 20.2418C58.3917 20.0807 58.5512 19.9196 58.7108 19.7671C58.9523 19.9631 59.1938 20.1591 59.431 20.3551C60.0434 20.8603 60.6816 21.3829 61.3328 21.8619C62.3161 22.5849 63.4244 22.6894 64.619 22.1842C65.9041 21.6398 66.965 20.7949 67.7715 19.6713C68.6814 18.4127 68.6124 17.0017 67.586 15.8127L67.5817 15.8214ZM55.0279 19.9413C53.967 19.275 53.2943 18.465 52.9708 17.4633C52.7552 16.7926 52.7768 16.1916 53.0398 15.7169C53.2684 15.3032 53.6651 15.0157 54.1956 14.8807C54.2215 14.8764 54.2473 14.872 54.2775 14.872C54.3983 14.872 54.5406 14.9199 54.5837 14.9678C55.567 16.1132 56.5157 17.2499 57.5206 18.4563L58.2149 19.2837C57.3481 20.551 56.3346 20.7557 55.0279 19.937V19.9413Z" fill="#4D1635"/>
<path d="M112.76 14.1055C112.773 13.2563 112.674 12.3766 112.437 11.4838C112.062 10.064 111.29 8.86204 110.212 7.93441C108.914 6.71063 107.223 6.09657 105.265 5.93107C105.256 5.93107 105.248 5.93107 105.244 5.93107C105.231 5.93107 105.222 5.93107 105.209 5.93107C105.175 5.93107 105.14 5.92672 105.101 5.92236C104.795 5.89623 104.489 5.88752 104.183 5.89188C99.8141 5.9093 96.446 8.77058 95.5834 12.6118C95.5834 12.6205 95.5791 12.6248 95.5748 12.6335C95.4196 13.2128 95.3549 13.8138 95.3678 14.4148C95.3549 15.264 95.4541 16.1437 95.6913 17.0365C96.0665 18.4563 96.8384 19.6583 97.9165 20.5815C99.2189 21.8053 100.905 22.4194 102.863 22.5849C102.872 22.5849 102.88 22.5849 102.885 22.5849C102.898 22.5849 102.906 22.5849 102.919 22.5849C102.954 22.5849 102.992 22.5892 103.027 22.5936C103.333 22.6197 103.639 22.6284 103.941 22.6241C108.31 22.6067 111.678 19.7454 112.54 15.9042C112.54 15.8955 112.545 15.8911 112.549 15.8824C112.704 15.3032 112.769 14.7022 112.756 14.1012L112.76 14.1055ZM107.296 19.9849C107.223 20.2462 107.12 20.4857 106.994 20.7078C106.856 20.9343 106.701 21.1434 106.524 21.3176C106.447 21.3916 106.365 21.4569 106.283 21.5266C105.834 21.8706 105.269 22.0753 104.61 22.1232C103.221 22.2234 102.113 21.5919 101.543 20.3899C100.953 19.1357 100.504 17.7769 100.237 16.4137C99.9391 14.8938 99.9348 13.3608 100.094 11.8322C100.31 10.7217 100.53 9.61111 100.84 8.5267C100.914 8.26539 101.017 8.02586 101.142 7.80376C101.28 7.57729 101.436 7.36825 101.612 7.19404C101.69 7.12001 101.772 7.05468 101.854 6.985C102.302 6.64095 102.867 6.43626 103.527 6.38836C104.916 6.28819 106.024 6.91968 106.593 8.12168C107.184 9.37594 107.633 10.7347 107.9 12.0979C108.198 13.6178 108.202 15.1508 108.042 16.6794C107.827 17.7899 107.607 18.9005 107.296 19.9849Z" fill="#4D1635"/>
</g>
<defs>
<clipPath id="clip0_41_220">
<rect width="169" height="32" fill="white"/>
</clipPath>
</defs>
</svg>
