<?xml version="1.0" encoding="UTF-8"?>
<svg viewBox="0 0 565 73" version="1.1" xmlns="http://www.w3.org/2000/svg" xmlns:xlink="http://www.w3.org/1999/xlink">
    <!-- Generator: Sketch 55.2 (78181) - https://sketchapp.com -->
    <title>Group 28</title>
    <desc>Created with Sketch.</desc>
    <defs>
        <polygon id="path-1" points="0.218851351 0.190611111 72.6841106 0.190611111 72.6841106 72.9995944 0.218851351 72.9995944"></polygon>
    </defs>
    <g id="Page-1" stroke="none" stroke-width="1" fill="none" fill-rule="evenodd">
        <g id="Home-v2" transform="translate(-1000.000000, -126.000000)">
            <g id="Group-15">
                <g id="Group-14">
                    <g id="Group-12" transform="translate(819.000000, 126.000000)">
                        <g id="Group-28" transform="translate(181.000000, 0.000000)">
                            <path d="M17.5347207,54.8038381 C22.7484777,54.8038381 27.5082559,52.2355071 27.5082559,47.3860257 C27.5082559,40.7666159 19.7746163,39.7400982 17.4827231,39.7400982 L11.9189824,39.7400982 C11.8109874,39.7400982 10.6310424,39.5710487 10.6310424,39.5710487 L10.8010345,40.8827102 L10.8010345,51.2680549 C10.8010345,53.2070328 10.9150292,53.8913779 11.5849979,54.2885425 C12.3149639,54.6918173 15.9107964,54.8038381 16.6947598,54.8038381 L17.5347207,54.8038381 Z M10.8010345,35.8621425 L10.6310424,37.1758407 L11.9189824,37.0027177 L15.4628172,37.0027177 C17.6467155,37.0027177 19.610624,36.7746027 21.3465431,35.5199699 C22.9684675,34.2633004 24.3124048,33.3508403 24.3124048,29.6989628 C24.3124048,25.191654 21.2885458,23.1956473 16.6947598,23.1956473 C15.9107964,23.1956473 12.3149639,23.2506394 11.5849979,23.6539142 C10.9150292,24.0510788 10.8010345,24.7333872 10.8010345,26.735504 L10.8010345,35.8621425 Z M0.379520128,57.9974487 C-0.012461605,57.7163783 -0.124456386,55.1500841 0.155530566,54.8588301 L2.11543923,54.7529195 C5.36528779,54.5186943 5.64527474,54.6918173 5.64527474,50.4126235 L5.64527474,27.5888987 C5.64527474,23.3056314 5.36528779,23.4787544 2.11543923,23.2506394 L0.155530566,23.1386186 C-0.124456386,22.851438 -0.012461605,20.2851438 0.379520128,20 C0.379520128,20 5.42128518,20.2851438 8.22515452,20.2851438 C9.06511538,20.2851438 12.548953,20 14.2308746,20 C18.3786814,20 22.0725092,20.4603036 24.9883733,22.2281952 C27.7342454,23.8779557 29.7501514,25.7619416 29.7501514,29.53195 C29.7501514,33.9781566 27.8422404,36.6035164 24.1484125,37.6911363 C23.7564308,37.8011204 22.1285066,37.9722066 21.6805275,38.0862642 C22.0725092,38.1432929 23.5884386,38.3164159 24.0364177,38.4304735 C27.8422404,39.4590279 33,41.8562726 33,47.95835 C33,52.0114655 30.9280966,54.0054354 28.0122324,55.6063142 C25.3243577,57.0849885 20.9545613,58.0565142 17.2547337,57.9974487 C17.2547337,57.9974487 11.0230241,57.7163783 8.22515452,57.7163783 C5.42128518,57.7163783 0.379520128,57.9974487 0.379520128,57.9974487 L0.379520128,57.9974487 Z" id="Fill-1" fill="#3E683D"></path>
                            <path d="M111.106169,43.8637991 L97.5931805,43.8637991 L96.3498645,44.0904374 L97.3126271,43.1838842 L103.474711,29.1828984 L104.092333,26.347896 L104.716009,29.1828984 L111.388741,43.1838842 L112.521047,44.3170757 L111.106169,43.8637991 Z M59.310752,39.9826182 C57.0501773,39.9826182 55.91989,39.5880247 55.2962136,39.4200695 C55.0721745,39.3613864 54.6745556,39.1873606 54.6160228,39.1327245 L54.9026314,37.9428734 L54.9026314,27.3090852 C54.9026314,25.3280237 55.0156601,24.6481088 55.7503469,24.3081513 C56.4830153,23.9074872 59.4237808,23.7982151 60.2149819,23.7982151 C65.5878835,23.7982151 68.528649,27.2139781 68.528649,31.1255124 C68.528649,34.8690915 67.2288185,37.3196181 65.5293508,38.5114928 C63.7774054,39.7580034 61.458298,39.9826182 59.310752,39.9826182 L59.310752,39.9826182 Z M127.842495,55.2584445 L126.371104,55.2017849 C123.149785,55.0904893 121.738944,52.652104 120.209019,49.4204846 L106.865573,20.6252789 C106.698049,20.2792508 106.017858,20 105.622257,20 C104.944085,20.7325274 103.531226,21.5864681 102.231395,21.8717896 C102.340387,22.8329788 102.172863,24.3587402 101.268633,26.4612152 C101.268633,26.4612152 92.3333077,46.6967779 90.6923727,50.0457635 C89.0958418,53.2531002 88.4439082,54.936699 85.4203896,55.1754786 C85.4163528,55.1754786 85.4102977,55.1734551 85.406261,55.1734551 C81.983105,55.2624916 79.3289482,55.315104 77.6900315,54.863851 C73.5624644,53.6739999 70.2805943,48.374306 67.057257,44.9160484 C66.0965128,43.9548591 64.8531967,42.9349868 63.6643767,42.1377056 C64.173006,42.0830696 64.6251209,42.02641 65.1337502,41.9090437 C66.0965128,41.6864526 67.057257,41.3991076 67.9049725,40.945831 C70.8477564,39.527318 74.0145793,35.3810512 74.0145793,30.9029212 C74.0145793,27.9545997 71.919511,24.47813 68.9827823,23.0009339 C66.2660559,21.6411041 62.7581284,20.5099362 57.1632061,20.6252789 C57.1632061,20.6252789 53.2616964,20.9045297 52.3009521,20.9045297 C49.4732154,20.9045297 44.3828857,20.6252789 44.3828857,20.6252789 C43.9893035,20.9045297 43.872238,23.4562341 44.1588466,23.7415555 L46.134831,23.848804 C49.4167011,24.081513 49.6972545,23.9074872 49.6972545,29.2699113 L49.6972545,51.9479064 C49.6972545,55.0904893 49.4167011,54.9205106 46.134831,55.1491724 L44.1588466,55.2584445 C43.872238,55.5417423 43.9893035,58.0934468 44.3828857,58.3747211 C44.3828857,58.3747211 49.4732154,58.0934468 52.3009521,58.0934468 C55.1266705,58.0934468 60.2149819,58.3747211 60.2149819,58.3747211 C60.6105825,58.0934468 60.7256296,55.5417423 60.4430577,55.2584445 L58.4630365,55.1491724 C55.1831849,54.9205106 54.9026314,55.0904893 54.9026314,50.836974 L54.9026314,43.7828568 C54.9026314,43.7828568 54.8440987,42.423027 55.0156601,41.9677269 C55.0721745,41.7977481 55.4112607,42.1377056 55.5787854,42.1943652 C56.0874147,42.3643439 59.9344284,43.7261973 62.8731755,47.4657293 C67.2833145,52.9677788 69.4348972,59 77.4619557,59 C79.3249114,59 86.7706793,58.1845068 90.9224669,58.0934468 C93.7441485,58.0327401 96.9695041,58.3747211 96.9695041,58.3747211 C97.3651047,58.0934468 97.4781334,55.5417423 97.19758,55.2584445 L95.6131593,55.2017849 C92.4463364,55.0904893 92.841937,53.4433145 93.463595,51.8568464 L95.6131593,47.0367353 L113.197201,47.0367353 L115.629337,52.0834847 C115.855395,52.5913973 116.646596,55.1491724 114.101431,55.2017849 L112.292971,55.2584445 C112.010399,55.5417423 112.125446,58.0934468 112.521047,58.3747211 C112.521047,58.3747211 117.383301,58.0934468 120.209019,58.0934468 C123.038774,58.0934468 127.616438,58.3747211 127.616438,58.3747211 C128.014057,58.0934468 128.125067,55.5417423 127.842495,55.2584445 L127.842495,55.2584445 Z" id="Fill-3" fill="#3E683D"></path>
                            <path d="M166.708574,20.0170997 C167.0523,19.9066609 168.427202,20.3544402 168.772973,20.6917806 C168.484489,23.3362887 169.000077,30.7055709 169.343803,33.7978582 C169.059411,34.19343 166.593999,34.3058768 166.307561,34.0227518 C165.16181,29.1293075 162.813019,23.2780573 151.406653,23.2780573 C142.979242,23.2780573 137.076575,30.7055709 137.076575,38.9764355 C137.076575,47.355731 143.322967,55.6225797 153.812732,55.6225797 C157.595758,55.6225797 161.033012,54.2772339 162.354719,53.600545 C163.557758,52.9780716 163.557758,51.6287099 163.557758,50.2211167 L163.557758,49.3797736 C163.557758,45.1630182 163.269274,45.2192416 159.946594,45.1067947 L156.44796,44.99234 C156.163568,44.7132309 156.278143,42.2916085 156.679156,42.0124994 C156.679156,42.0124994 164.073346,42.2353851 165.963836,42.2353851 C167.968901,42.2353851 169.286515,42.1209303 172.611241,42.0124994 C173.012254,42.2916085 173.126829,44.7132309 172.842437,44.99234 L171.751927,45.1067947 C169.059411,45.3859038 168.427202,45.1630182 168.427202,49.3797736 L168.427202,50.3375795 C168.427202,52.5845078 169.116699,53.8214227 170.203117,54.2190025 C170.4916,54.5001195 170.434313,55.9057047 170.090587,56.1868217 C169.343803,56.1868217 167.797038,56.4137233 166.651287,56.6948403 C164.816038,57.1426196 156.963548,59 151.807666,59 C146.590405,59 140.97213,57.0301728 137.133863,53.7712232 C133.350837,50.5082577 131,45.835691 131,40.0988956 C131,28.9606373 140.456542,20.3002248 151.750379,20.3002248 C153.184614,20.3002248 154.78662,20.4126716 156.392719,20.5773258 C159.087281,20.8624588 162.123522,21.5933631 164.531646,21.5351317 C165.505535,21.4789083 166.250274,20.9769136 166.708574,20.0170997" id="Fill-5" fill="#3E683D"></path>
                            <path d="M217.707811,20.0170997 C218.051529,19.9066609 219.428447,20.3544402 219.772165,20.6917806 C219.483687,23.3362887 220.001311,30.7055709 220.345029,33.7978582 C220.058597,34.19343 217.593238,34.3058768 217.306806,34.0227518 C216.161079,29.1293075 213.812339,23.2780573 202.402125,23.2780573 C193.978985,23.2780573 188.076445,30.7055709 188.076445,38.9764355 C188.076445,47.355731 194.322703,55.6225797 204.812244,55.6225797 C208.595189,55.6225797 212.036462,54.2772339 213.354048,53.600545 C214.557061,52.9780716 214.557061,51.6287099 214.557061,50.2211167 L214.557061,49.3797736 C214.557061,45.1630182 214.270629,45.2192416 210.945975,45.1067947 L207.449462,44.99234 C207.16303,44.7132309 207.277603,42.2916085 207.678607,42.0124994 C207.678607,42.0124994 215.072638,42.2353851 216.963088,42.2353851 C218.96811,42.2353851 220.289788,42.1209303 223.610351,42.0124994 C224.011355,42.2916085 224.127974,44.7132309 223.841542,44.99234 L222.751055,45.1067947 C220.058597,45.3859038 219.428447,45.1630182 219.428447,49.3797736 L219.428447,50.3375795 C219.428447,52.5845078 220.115883,53.8214227 221.208416,54.2190025 C221.490756,54.5001195 221.433469,55.9057047 221.089751,56.1868217 C220.345029,56.1868217 218.798297,56.4137233 217.650524,56.6948403 C215.817361,57.1426196 207.962993,59 202.807221,59 C197.590071,59 191.973963,57.0301728 188.133732,53.7712232 C184.350786,50.5082577 182,45.835691 182,40.0988956 C182,28.9606373 191.45634,20.3002248 202.749935,20.3002248 C204.18414,20.3002248 205.788157,20.4126716 207.392175,20.5773258 C210.08668,20.8624588 213.122856,21.5933631 215.530929,21.5351317 C216.504797,21.4789083 217.24952,20.9769136 217.707811,20.0170997" id="Fill-7" fill="#3E683D"></path>
                            <path d="M370.347848,21.0176723 C370.688101,20.9052271 372.049114,21.3529998 372.391392,21.6923433 C372.105823,24.3348045 372.616203,31.7039785 372.956456,34.7982283 C372.674937,35.1897784 370.23443,35.3042316 369.950886,35.0271346 C368.814684,30.1277383 366.491646,24.2785819 355.196456,24.2785819 C346.858228,24.2785819 341.01519,31.7039785 341.01519,39.9707057 C341.01519,48.355902 347.198481,56.6246372 357.582278,56.6246372 C367.569114,56.6246372 370.517975,50.9983633 372.105823,46.9483295 C372.391392,46.6692246 374.720506,46.8338764 375,47.2274345 C374.432911,51.1128164 372.731646,56.2290712 371.538734,57.6366437 C370.631392,57.7470809 369.383797,58.0864243 368.476456,58.3695452 C366.829873,58.9277551 360.642532,60 355.540759,60 C350.374177,60 344.871392,58.0281938 341.071899,54.7713 C337.327089,51.5043665 335,46.8338764 335,41.0971653 C335,29.9590705 344.361013,21.2967772 355.540759,21.2967772 C356.960506,21.2967772 358.548354,21.4112303 360.136203,21.5778901 C362.803544,21.861011 365.809114,22.5919045 368.192911,22.533674 C369.156962,22.4794594 369.894177,21.9694403 370.347848,21.0176723" id="Fill-9" fill="#3E683D"></path>
                            <path d="M406.318431,44.8606697 L392.710566,44.8606697 L391.458521,45.0872783 L392.428043,44.1828672 L398.633392,30.1837174 L399.25535,27.3490869 L399.883405,30.1837174 L406.602987,44.1828672 L407.74121,45.3159102 L406.318431,44.8606697 Z M468.613795,21.6251969 C468.613795,21.6251969 463.487726,21.9064343 460.6442,21.9064343 C457.796609,21.9064343 453.922585,21.6251969 453.922585,21.6251969 C453.524207,21.9064343 453.412417,24.4557809 453.696973,24.7430882 L455.686831,24.8543692 C458.991744,25.0809778 459.278332,24.908998 459.278332,29.1599322 L459.278332,47.581996 L459.560855,50.8111683 L458.30881,48.4358247 L438.550474,27.1771071 C435.418328,23.7800017 435.021982,21.7324313 435.021982,21.7324313 C435.021982,21.7324313 432.402036,21.9064343 430.578846,21.9064343 C427.731256,21.9064343 422.607219,21.6251969 422.607219,21.6251969 C422.206808,21.9064343 422.092986,24.4557809 422.379574,24.7430882 L424.371465,24.8543692 C427.672312,25.0809778 427.956868,24.908998 427.956868,29.1599322 L427.956868,51.8329302 C427.956868,56.0858877 427.672312,55.9159312 424.371465,56.1384932 C424.371465,56.1384932 423.65601,56.1830056 422.932425,56.2012152 C422.497462,56.2113317 421.690543,56.1971687 421.690543,56.1971687 C418.446606,56.0858877 417.02586,53.6478221 415.485193,50.4166265 L402.048062,21.6251969 C401.879361,21.2812374 401.194394,21 400.796016,21 C400.113082,21.7324313 398.690303,22.5842368 397.381346,22.8715441 C397.491104,23.8326073 397.322403,25.3601919 396.411824,27.4603679 C396.411824,27.4603679 387.413763,47.6953003 385.761307,51.0438467 C384.112916,54.3256246 383.48486,56.0292355 380.238892,56.1971687 L379.159612,56.2538208 C378.873024,56.5391048 378.986846,59.0884514 379.385224,59.3717121 C379.385224,59.3717121 383.143393,59.0884514 385.993017,59.0884514 C388.836542,59.0884514 392.082511,59.3717121 392.082511,59.3717121 C392.480889,59.0884514 392.594711,56.5391048 392.312188,56.2538208 L390.716643,56.1971687 C387.527585,56.0858877 387.925963,54.4389289 388.551986,52.8567154 L390.716643,48.0331898 L408.424144,48.0331898 L410.873357,53.0792774 C411.101001,53.5891467 411.897758,56.1384932 409.334723,56.1971687 L407.513566,56.2538208 C407.22901,56.5391048 407.344865,59.0884514 407.74121,59.3717121 C407.74121,59.3717121 416.812443,58.9549142 423.084866,58.9549142 C428.532077,58.9549142 437.241517,59.3717121 437.241517,59.3717121 C437.637863,59.0884514 437.753718,56.5391048 437.465097,56.2538208 L435.477271,56.1384932 C432.172359,55.9159312 431.889836,56.0858877 431.889836,51.8329302 L431.889836,30.6369346 L431.601215,27.5756955 L432.743503,29.6698015 L452.444928,49.5668444 C455.97342,53.0792774 460.6442,59.996909 460.6442,59.996909 C461.382013,60.0535611 463.032436,59.3191065 463.262113,58.8092372 L463.262113,29.1599322 C463.262113,24.908998 463.544637,25.0809778 466.849549,24.8543692 L468.843472,24.7430882 C469.125996,24.4557809 469.012173,21.9064343 468.613795,21.6251969 L468.613795,21.6251969 Z" id="Fill-11" fill="#3E683D"></path>
                            <path d="M511.231976,29.4627559 C511.231976,25.2535612 510.944037,25.4218489 507.627624,25.1994688 L505.624298,25.087277 C505.336358,24.8047942 505.450717,22.2804794 505.850974,22 C505.850974,22 509.743266,22.2804794 512.604285,22.2804794 C515.463262,22.2804794 520.613504,22 520.613504,22 C521.011719,22.2804794 521.12812,24.8047942 520.84018,25.087277 L518.838896,25.1994688 C515.520441,25.4218489 515.234544,25.2535612 515.234544,29.4627559 L515.234544,58.8189337 C515.005826,59.3237966 513.347619,60.0530431 512.604285,59.9969472 C512.604285,59.9969472 507.911479,53.1472392 504.366348,49.667291 L484.57202,29.9696223 L483.426387,27.8920712 L483.712284,30.9232523 L483.712284,51.9151332 C483.712284,56.1243278 483.998182,55.9580436 487.316637,56.1764169 L489.319963,56.2926155 C489.603818,56.5710915 489.491501,59.0974096 489.089203,59.3798925 C489.089203,59.3798925 485.256132,59.0974096 482.399197,59.0974096 C479.536136,59.0974096 474.387936,59.3798925 474.387936,59.3798925 C473.98768,59.0974096 473.871279,56.5710915 474.16126,56.2926155 L476.160502,56.1764169 C479.480999,55.9580436 479.762812,56.1243278 479.762812,51.9151332 L479.762812,29.4627559 C479.762812,25.2535612 479.480999,25.4218489 476.160502,25.1994688 L474.16126,25.087277 C473.871279,24.8047942 473.98768,22.2804794 474.387936,22 C474.387936,22 479.536136,22.2804794 482.399197,22.2804794 C484.2269,22.2804794 486.859201,22.1081849 486.859201,22.1081849 C486.859201,22.1081849 487.259458,24.133647 490.406374,27.5014034 L510.257882,48.5473767 L511.515832,50.9014004 L511.231976,47.7019317 L511.231976,29.4627559 Z" id="Fill-13" fill="#3E683D"></path>
                            <path d="M534.323343,43.9590847 L533.367102,44.8566909 L534.607794,44.6322894 L548.114191,44.6322894 L549.528378,45.0830961 L548.396625,43.9590847 L541.727148,30.0962775 L541.107811,27.2872509 L540.486456,30.0962775 L534.323343,43.9590847 Z M550.20622,47.7739112 L532.628739,47.7739112 L530.48224,52.5464515 C529.858868,54.1172625 529.463461,55.7461774 532.628739,55.8563746 L534.212386,55.912475 C534.49482,56.1949805 534.379829,58.719498 533.986439,59 C533.986439,59 530.762657,58.719498 527.938317,58.719498 C525.113977,58.719498 521.381814,59 521.381814,59 C520.988423,58.719498 520.873432,56.1949805 521.157884,55.912475 L522.231133,55.8563746 C525.45088,55.690077 526.074253,54.0030581 527.71237,50.7492355 C529.352504,47.4393125 538.281453,27.4014552 538.281453,27.4014552 C539.187259,25.3217336 539.352685,23.8090267 539.241729,22.8533165 C540.542943,22.5728145 541.95713,21.7293051 542.632954,21 C543.026344,21 543.708221,21.280502 543.875664,21.623115 L557.214618,50.1321312 C558.737744,53.3298534 560.151931,55.7461774 563.373696,55.8563746 L564.842353,55.912475 C565.124787,56.1949805 565.013831,58.719498 564.62044,59 C564.62044,59 560.040975,58.719498 557.214618,58.719498 C554.386243,58.719498 549.528378,59 549.528378,59 C549.130953,58.719498 549.019997,56.1949805 549.300414,55.912475 L551.110009,55.8563746 C553.653932,55.8002742 552.863117,53.2757566 552.635152,52.7688495 L550.20622,47.7739112 Z" id="Fill-15" fill="#3E683D"></path>
                            <path d="M303.119,51.086 L302.829,50.928 C302.947,50.922 303.061,50.92 303.171,50.914 C303.155,50.968 303.137,51.028 303.119,51.086" id="Fill-17" fill="#3E683D"></path>
                            <path d="M264.023,11.026 C264.009,11.022 263.991,11.02 263.977,11.018 L263.989,10.974 C264.001,10.99 264.013,11.006 264.023,11.026" id="Fill-19" fill="#3E683D"></path>
                            <path d="M263.835217,55.1062124 L261.819586,56.7955912 L260.810734,57.6392786 C260.727872,57.7094188 260.638795,57.7815631 260.562147,57.8517034 L260.32806,58.0721443 L259.853672,58.5250501 C259.420716,58.9378758 259.09548,59.4348697 258.836535,59.9699399 C258.766102,60.1082164 258.666667,60.246493 258.534087,60.3747495 C258.449153,60.4589178 258.358004,60.5270541 258.266855,60.5811623 C258.19435,60.6873747 258.119774,60.7855711 258.032768,60.8757515 C257.92919,60.98998 257.804896,61.0841683 257.682674,61.1783567 C257.564595,61.2785571 257.427872,61.3607214 257.284934,61.4388778 C257.144068,61.5170341 257.013559,61.6072144 256.918267,61.7274549 C256.818832,61.8416834 256.764972,62.002004 256.677966,62.1322645 C256.59096,62.258517 256.47081,62.3587174 256.344444,62.4509018 C256.216008,62.5410822 256.079284,62.6212425 255.905273,62.6693387 L255.872128,62.6372745 C255.913559,62.4709419 255.988136,62.3286573 256.075141,62.2024048 C256.168362,62.0781563 256.261582,61.9559118 256.39209,61.8677355 C256.52467,61.7795591 256.688324,61.7234469 256.808475,61.6212425 C256.930697,61.5250501 257.021846,61.4008016 257.100565,61.258517 C257.135782,61.1963928 257.175141,61.1302605 257.216573,61.0701403 L257.158569,61.1142285 C257.013559,61.238477 256.856121,61.3466934 256.686252,61.4488978 C256.520527,61.5511022 256.367232,61.6653307 256.245009,61.8116232 C256.124859,61.9559118 256.046139,62.1402806 255.936347,62.2945892 C255.826554,62.4509018 255.679473,62.5711423 255.534463,62.6933868 C255.383239,62.8096192 255.227872,62.9158317 255.037288,63 L255,62.9739479 C255.053861,62.7755511 255.151224,62.6072144 255.261017,62.4488978 C255.374953,62.2945892 255.495104,62.1462926 255.646328,62.0300601 C255.803766,61.9138277 255.992279,61.8316633 256.137288,61.7094188 C256.282298,61.5851703 256.398305,61.4368737 256.499812,61.2725451 C256.60339,61.1082164 256.711111,60.9519038 256.839548,60.8096192 L256.953484,60.6733467 C256.856121,60.745491 256.750471,60.8096192 256.638606,60.8697395 C256.495669,60.9498998 256.36516,61.0420842 256.263653,61.1643287 C256.164218,61.2885772 256.106215,61.4488978 256.017137,61.5791583 C255.92806,61.7134269 255.801695,61.8116232 255.67533,61.9078156 C255.54275,61.995992 255.401883,62.0841683 255.227872,62.1402806 L255.190584,62.1102204 C255.236158,61.9358717 255.316949,61.7915832 255.406026,61.6613226 C255.499247,61.5310621 255.598682,61.4048096 255.731262,61.3126253 C255.867985,61.2244489 256.03371,61.1603206 256.155932,61.0621242 C256.278154,60.9619238 256.373446,60.8336673 256.454237,60.6933868 C256.532957,60.5531062 256.619962,60.4168337 256.725612,60.2985972 C256.825047,60.1763527 256.924482,60.0561122 257.042561,59.9498998 C257.16064,59.8436874 257.289077,59.749499 257.429944,59.6633267 C257.479661,59.5991984 257.535593,59.5350701 257.599812,59.4709419 C257.732392,59.3446894 257.879473,59.244489 258.024482,59.1783567 C258.577589,58.9298597 259.09548,58.6212425 259.528437,58.2084168 L260.006968,57.753507 L260.247269,57.5270541 C260.332203,57.4488978 260.415066,57.3847695 260.5,57.3126253 L261.508851,56.4649299 L263.528625,54.7755511 L265.647834,53 C265.763842,53.0981964 265.881921,53.1983968 266,53.2925852 L263.835217,55.1062124 Z" id="Fill-21" fill="#3E683D"></path>
                            <path d="M261.793462,54.2103004 L259.805535,55.8919235 L259.304978,56.3133047 C259.14153,56.4537651 258.971954,56.5922747 258.818722,56.7444401 L257.880944,57.6437768 C257.453938,58.0515021 257.131129,58.5450644 256.869614,59.0678892 C256.800149,59.2083496 256.700037,59.3449083 256.567236,59.469762 C256.48347,59.5516972 256.393574,59.6180258 256.303678,59.6765509 C256.230126,59.7779945 256.154532,59.8735856 256.068722,59.9613734 C255.964525,60.0725712 255.841939,60.1681623 255.717311,60.2598517 C255.598811,60.3554428 255.463967,60.4393289 255.322994,60.5115099 C255.179978,60.5914943 255.051263,60.6753804 254.953195,60.7924307 C254.853083,60.9094811 254.795877,61.067499 254.705981,61.1904019 C254.616085,61.3172064 254.493499,61.4108467 254.366828,61.4986344 C254.234027,61.5864222 254.095097,61.6644557 253.921434,61.7112758 L253.888744,61.6761607 C253.937779,61.5122903 254.017459,61.3776824 254.107355,61.2508779 C254.20338,61.1299259 254.299406,61.0109247 254.430163,60.9250878 C254.562964,60.8412017 254.726412,60.7865782 254.846954,60.6909871 C254.969539,60.595396 255.063522,60.4724932 255.141159,60.3398361 C255.179978,60.2715568 255.218796,60.2091299 255.259658,60.1486539 L255.202452,60.1935232 C255.059435,60.3144752 254.900074,60.4217714 254.730498,60.5193133 C254.565007,60.6168552 254.411776,60.7300039 254.28919,60.8704643 C254.162519,61.0089739 254.080795,61.188451 253.968425,61.3406165 C253.851969,61.4888802 253.702823,61.6059306 253.551634,61.72103 C253.39636,61.8283262 253.230869,61.9297698 253.032689,62 L253,61.9687866 C253.073551,61.7795552 253.177749,61.6215373 253.294205,61.4732735 C253.412704,61.3269606 253.53529,61.1825985 253.690565,61.0772532 C253.847883,60.9641046 254.035847,60.8880218 254.180906,60.7670698 C254.328009,60.6519703 254.446508,60.5056574 254.550706,60.3437378 C254.654903,60.183769 254.767273,60.0316036 254.891902,59.8891924 L255.008358,59.7623878 C254.912333,59.8306672 254.804049,59.8911432 254.693722,59.9496684 C254.550706,60.0296528 254.421991,60.1154897 254.32188,60.2383925 C254.217682,60.3554428 254.158432,60.5115099 254.068536,60.6402653 C253.976597,60.7670698 253.849926,60.8626609 253.719168,60.9543504 C253.58841,61.0421381 253.445394,61.1201717 253.271731,61.1708935 L253.236999,61.1396801 C253.288076,60.9699571 253.371842,60.8353492 253.463782,60.7065938 C253.559807,60.583691 253.657875,60.4607881 253.790676,60.3749512 C253.92552,60.2871635 254.09101,60.23254 254.213596,60.1330472 C254.338224,60.0374561 254.432207,59.9126024 254.515973,59.7779945 C254.595654,59.6355833 254.683507,59.5048771 254.787704,59.3878268 C254.887816,59.2707764 254.987927,59.1478736 255.106426,59.04643 C255.224926,58.9469372 255.351597,58.8493952 255.490527,58.76746 L255.490527,58.7655092 C255.541605,58.7030823 255.596768,58.6387046 255.660104,58.5782286 C255.792905,58.4514241 255.935921,58.3538822 256.080981,58.2895045 C256.628529,58.041748 257.139302,57.7393679 257.568351,57.3296918 L258.506129,56.4323059 C258.661404,56.2781896 258.830981,56.1377292 258.994428,55.9972688 L259.494985,55.5758876 L261.486999,53.8923137 L263.726226,52 C263.812036,52.1170503 263.903975,52.230199 264,52.3452985 L261.793462,54.2103004 Z" id="Fill-23" fill="#3E683D"></path>
                            <g id="Group-27" transform="translate(244.000000, 0.000000)">
                                <mask id="mask-2" fill="white">
                                    <use xlink:href="#path-1"></use>
                                </mask>
                                <g id="Clip-26"></g>
                                <path d="M21.2512838,14.1372611 C21.5958784,14.2934 21.940473,14.4475111 22.2952027,14.5793167 C23.3229054,14.9706778 24.340473,15.4005667 25.3519595,15.8426222 C25.3925,15.8608722 25.4675,15.7777333 25.5222297,15.6601222 L25.5384459,15.6215944 C25.5931757,15.4999278 25.6012838,15.3904278 25.5587162,15.3742056 C24.5431757,14.9240389 23.5175,14.4961778 22.4756081,14.0967056 C22.1188514,13.9628722 21.7519595,13.8493167 21.3729054,13.7702333 C20.9938514,13.6931778 20.6026351,13.6343722 20.2134459,13.6647889 C20.5742568,13.8026778 20.9066892,13.98315 21.2512838,14.1372611 L21.2512838,14.1372611 Z M22.4269595,17.4040111 C22.7634459,17.5054 23.1060135,17.6088167 23.4485811,17.6879 C24.4539865,17.9271778 25.4533108,18.2070111 26.4485811,18.5010389 C26.4891216,18.5111778 26.5519595,18.4199278 26.5884459,18.2962333 L26.6026351,18.25365 C26.6391216,18.1299556 26.6370946,18.0184278 26.594527,18.0042333 C25.5931757,17.7081778 24.5877703,17.4324 23.5681757,17.1850111 C23.2175,17.1059278 22.8607432,17.0450944 22.4979054,17.0227889 C22.1350676,17.0004833 21.7641216,16.9964278 21.4033108,17.0775389 C21.7560135,17.1687889 22.0864189,17.2985667 22.4269595,17.4040111 L22.4269595,17.4040111 Z M24.7316892,21.0519833 C25.7127703,21.1391778 26.6958784,21.2608444 27.6729054,21.3967056 C27.7114189,21.4027889 27.7600676,21.3034278 27.7803378,21.17365 L27.7843919,21.1290389 C27.8046622,21.0012889 27.7843919,20.8938167 27.7438514,20.8877333 C26.7566892,20.7478167 25.7715541,20.6281778 24.7762838,20.5389556 C24.4337162,20.5105667 24.0891216,20.5065111 23.740473,20.5308444 C23.3979054,20.5632889 23.0472297,20.6160111 22.7147973,20.7315944 C23.3979054,20.8532611 24.0526351,20.9972333 24.7316892,21.0519833 L24.7316892,21.0519833 Z M26.1384459,24.5052889 C27.0952027,24.4404 28.0600676,24.3957889 29.0208784,24.3674 C29.0593919,24.3674 29.0877703,24.2599278 29.0877703,24.1321778 L29.0857432,24.0835111 C29.0816892,23.9557611 29.0452027,23.8523444 29.0066892,23.8543722 C28.0377703,23.8827611 27.0708784,23.9253444 26.0999324,23.9942889 C25.4370946,24.0409278 24.7661486,24.1788167 24.1458784,24.4606778 C24.8208784,24.5174556 25.4776351,24.5539556 26.1384459,24.5052889 L26.1384459,24.5052889 Z M25.4675,27.7112056 C26.1465541,27.7030944 26.8053378,27.6321222 27.4499324,27.4800389 C28.3864189,27.2610389 29.3269595,27.0521778 30.2675,26.8453444 C30.3060135,26.8352056 30.3161486,26.7277333 30.2897973,26.6040389 L30.2776351,26.5553722 C30.2512838,26.42965 30.1985811,26.3343444 30.1580405,26.3424556 C29.215473,26.5472611 28.2749324,26.7601778 27.3343919,26.9812056 C26.6877703,27.1292333 26.0573649,27.3705389 25.4675,27.7112056 L25.4675,27.7112056 Z M29.0289865,30.7082611 C29.9431757,30.3371778 30.8553378,29.9539278 31.7634459,29.5706778 C31.7999324,29.5524278 31.7897973,29.4429278 31.7411486,29.3232889 L31.7229054,29.2807056 C31.6702027,29.1630944 31.5992568,29.0779278 31.5647973,29.09415 C30.6566892,29.4834833 29.7465541,29.8626778 28.8343919,30.2357889 C28.2060135,30.4852056 27.6141216,30.8177611 27.040473,31.2091222 C27.7316892,31.13815 28.3985811,30.9657889 29.0289865,30.7082611 L29.0289865,30.7082611 Z M30.6465541,33.7904833 C31.5425,33.2612333 32.4181757,32.70765 33.2857432,32.1398722 C33.3222297,32.1155389 33.2938514,32.0121222 33.2229054,31.9005944 L33.1965541,31.8640944 C33.1235811,31.75865 33.0384459,31.6876778 33.0019595,31.7099833 C32.1425,32.2757333 31.2708784,32.8252611 30.3870946,33.3464 C29.7769595,33.7032889 29.2134459,34.1210111 28.6438514,34.5630667 C29.3593919,34.4312611 30.0323649,34.1494 30.6465541,33.7904833 L30.6465541,33.7904833 Z M32.3127703,36.7145389 C33.1884459,36.0311778 34.0215541,35.3133444 34.8384459,34.5630667 C34.8729054,34.5346778 34.8303378,34.4312611 34.7411486,34.3359556 L34.7107432,34.3035111 C34.6215541,34.2102333 34.5262838,34.1554833 34.4918243,34.1838722 C33.6850676,34.9219833 32.8560135,35.6398167 31.9965541,36.3089833 C31.4026351,36.7713167 30.865473,37.2762333 30.2857432,37.7770944 C31.0337162,37.5783722 31.7127703,37.1809278 32.3127703,36.7145389 L32.3127703,36.7145389 Z M41.4364189,45.8496778 C41.7181757,45.6732611 41.9796622,45.4664278 42.2107432,45.2372889 C42.8938514,44.5681222 43.5181757,43.8604278 44.1242568,43.1284 C44.1465541,43.0979833 44.0857432,43.0067333 43.9864189,42.9256222 L43.9519595,42.8952056 C43.8506081,42.8161222 43.7492568,42.7735389 43.7249324,42.8019278 C43.1330405,43.5197611 42.5127703,44.2193444 41.8539865,44.8682333 C41.6249324,45.0912889 41.4060135,45.3163722 41.1931757,45.5515944 C40.9742568,45.7787056 40.769527,46.0200111 40.5141216,46.2329278 C40.844527,46.17615 41.1526351,46.0220389 41.4364189,45.8496778 L41.4364189,45.8496778 Z M45.4316892,47.23465 C45.640473,47.01565 45.8229054,46.7702889 45.9749324,46.5107333 C46.4188514,45.7584278 46.8060135,44.9858444 47.1647973,44.1990667 C47.1810135,44.1645944 47.0979054,44.09565 46.9783108,44.0429278 L46.9357432,44.02265 C46.8181757,43.9719556 46.7107432,43.9537056 46.6965541,43.9841222 C46.3438514,44.7567056 45.9627703,45.5211778 45.5330405,46.24915 C45.3850676,46.5005944 45.2492568,46.7500111 45.1175,47.0115944 C44.9796622,47.2630389 44.8620946,47.5286778 44.6877703,47.7780944 C44.9756081,47.6604833 45.2168243,47.45365 45.4316892,47.23465 L45.4316892,47.23465 Z M49.4066892,48.5993444 C49.540473,48.3316778 49.6418243,48.0498167 49.7127703,47.7639 C49.9175,46.9304833 50.0675,46.0950389 50.1931757,45.2535111 C50.1992568,45.2190389 50.0979054,45.1724 49.9681757,45.1582056 L49.9235811,45.1521222 C49.7958784,45.1338722 49.6884459,45.1460389 49.6843919,45.1805111 C49.5607432,46.0037889 49.4107432,46.83315 49.2141216,47.6381778 C49.1431757,47.9139556 49.090473,48.1958167 49.0418243,48.47565 C48.9850676,48.7534556 48.9546622,49.0373444 48.8634459,49.3212333 C49.1006081,49.1306222 49.2647973,48.8629556 49.4066892,48.5993444 L49.4066892,48.5993444 Z M52.8992568,49.0353167 C52.9093919,49.3415111 52.9357432,49.64365 52.9661486,49.9457889 C52.990473,50.2479278 53.0452027,50.5500667 53.0370946,50.8664 C53.2114189,50.59265 53.2925,50.2722611 53.3512838,49.9620111 C53.4080405,49.6477056 53.4222297,49.3354278 53.4141216,49.0211222 C53.3816892,48.11065 53.3046622,47.2103167 53.1992568,46.3120111 C53.1952027,46.2755111 53.0877703,46.2552333 52.9580405,46.2734833 L52.9134459,46.2795667 C52.7857432,46.2957889 52.6843919,46.3363444 52.6884459,46.3708167 C52.7918243,47.2569556 52.8688514,48.1512056 52.8992568,49.0353167 L52.8992568,49.0353167 Z M55.7087162,47.5509833 C56.0330405,48.5040389 56.3391216,49.4652056 56.5985811,50.4344833 C56.6837162,50.7670389 56.7911486,51.0935111 56.8985811,51.4179556 C57.0019595,51.7464556 57.1337162,52.0648167 57.2107432,52.4095389 C57.3060135,52.0607611 57.2999324,51.6977889 57.2776351,51.3409 C57.2512838,50.9880667 57.1823649,50.6413167 57.0952027,50.30065 C56.8296622,49.31515 56.5235811,48.3479 56.1931757,47.3826778 C56.1810135,47.34415 56.069527,47.3461778 55.9458784,47.3928167 L55.9033108,47.4029556 C55.7816892,47.4475667 55.694527,47.5144833 55.7087162,47.5509833 L55.7087162,47.5509833 Z M58.3215541,51.3713167 C58.3418243,51.3125111 58.3600676,51.2537056 58.3762838,51.1989556 C58.2627703,51.2030111 58.1472297,51.2070667 58.0296622,51.2111222 L58.3215541,51.3713167 Z M58.7310135,48.7169556 C59.2823649,49.7389556 59.815473,50.77515 60.3039865,51.8235111 C60.4702027,52.1844556 60.6526351,52.5372889 60.8391216,52.8880944 C61.0215541,53.2409278 61.2262838,53.5795667 61.3864189,53.9526778 C61.394527,53.5410389 61.3033108,53.1375111 61.1958784,52.7441222 C61.0884459,52.3527611 60.940473,51.9735667 60.7702027,51.6065389 C60.2756081,50.5399278 59.740473,49.5037333 59.1830405,48.4695667 C59.1587162,48.4290111 59.0492568,48.4432056 58.9357432,48.5060667 L58.8931757,48.5283722 C58.7816892,48.5912333 58.7066892,48.6743722 58.7310135,48.7169556 L58.7310135,48.7169556 Z M0.784391892,6.93662222 C1.15533784,6.90417778 1.70668919,6.85551111 2.41006757,6.85551111 C3.02628378,6.84334444 3.76209459,6.85956667 4.60128378,6.9204 C4.35804054,6.81901111 4.13101351,6.72167778 3.91614865,6.63042778 C3.65060811,6.51281667 3.40939189,6.39926111 3.18641892,6.28570556 C2.96344595,6.18026111 2.76277027,6.08292778 2.57831081,5.97748333 C2.20939189,5.78281667 1.91547297,5.58206667 1.67628378,5.42187222 C1.19993243,5.08728889 0.956689189,4.80542778 0.835067568,4.60062222 C0.715472973,4.4019 0.7175,4.28226111 0.7175,4.28226111 C0.7175,4.28226111 0.908040541,4.26806667 1.27898649,4.26401111 C1.46344595,4.26198333 1.6925,4.26198333 1.96412162,4.26401111 C2.23371622,4.26806667 2.5397973,4.2924 2.88844595,4.31876111 C3.30398649,4.35120556 3.77831081,4.4019 4.2952027,4.47692778 C3.61006757,4.02067778 3.13777027,3.63134444 2.81344595,3.29473333 C2.41412162,2.89323333 2.23574324,2.57487222 2.15871622,2.36195556 C2.08168919,2.14295556 2.10601351,2.0294 2.10601351,2.0294 C2.10601351,2.0294 2.28844595,2.04562222 2.63709459,2.09631667 C2.98168919,2.14701111 3.49452703,2.22609444 4.13912162,2.37412222 C4.7675,2.51403889 5.52763514,2.70870556 6.39317568,2.98042778 C5.68371622,2.37006667 5.22763514,1.87731667 4.92560811,1.4819 C4.60533784,1.06012222 4.45736486,0.749872222 4.40060811,0.524788889 C4.34182432,0.305788889 4.3702027,0.190205556 4.3702027,0.190205556 C4.3702027,0.190205556 4.54452703,0.216566667 4.88101351,0.287538889 C5.22560811,0.3504 5.68777027,0.486261111 6.29385135,0.682955556 C7.47763514,1.08648333 9.12560811,1.79823333 11.0168243,2.92770556 C12.9100676,4.05515 14.9634459,5.55367778 16.5384459,6.77034444 C17.3249324,7.37867778 17.9918243,7.91603889 18.4641216,8.30334444 C18.7803378,8.5629 19.0053378,8.75148333 19.1229054,8.85084444 C19.1249324,8.84678889 19.1269595,8.84476111 19.1289865,8.84070556 L20.3249324,9.74915 C20.3249324,9.74915 26.6208784,12.5373444 27.2918243,14.5448444 C27.9627703,16.5543722 31.9215541,25.77265 32.5762838,26.8859 C33.2289865,28.0011778 36.4499324,31.6876778 37.3702027,31.7282333 C38.144527,31.7647333 40.3033108,31.5234278 41.3979054,31.5173444 C41.7262838,31.5153167 42.0364189,31.3956778 42.2796622,31.1766778 C42.4316892,31.0347333 42.6202027,30.8644 42.8208784,30.6839278 C42.7215541,30.7305667 42.6141216,30.77315 42.4702027,30.8015389 C42.3952027,30.8157333 42.3060135,30.8238444 42.1985811,30.8116778 C42.1479054,30.8055944 42.0891216,30.7934278 42.0323649,30.7690944 C42.0039865,30.7609833 41.9735811,30.7508444 41.9452027,30.7325944 C41.9107432,30.7123167 41.8762838,30.6920389 41.8418243,30.6656778 C41.7789865,30.6109278 41.7242568,30.5399556 41.6877703,30.4689833 C41.6512838,30.3939556 41.6350676,30.3290667 41.6249324,30.2702611 C41.6087162,30.1546778 41.6188514,30.0715389 41.6289865,29.9944833 C41.6553378,29.8484833 41.6958784,29.7410111 41.7364189,29.6396222 C41.8215541,29.4388722 41.9168243,29.2685389 42.0120946,29.1042889 C42.1073649,28.9380111 42.2087162,28.7798444 42.3100676,28.6277611 L42.4438514,28.4128167 L42.4620946,28.3864556 L42.4580405,28.3925389 L42.4661486,28.3742889 L42.4864189,28.3296778 C42.5127703,28.2708722 42.5512838,28.2039556 42.5897973,28.1471778 L42.6485811,28.0701222 C42.6485811,28.0701222 42.6526351,28.0599833 42.6607432,28.03565 C42.6668243,28.0153722 42.6749324,27.9809 42.6810135,27.9464278 C42.6850676,27.9322333 42.6891216,27.9119556 42.6931757,27.8916778 L42.6952027,27.8632889 L42.7073649,27.8024556 C42.7134459,27.7781222 42.7215541,27.7477056 42.7296622,27.7254 L42.7499324,27.67065 C42.7661486,27.63415 42.7783108,27.6057611 42.7925,27.5794 C42.8188514,27.5205944 42.8452027,27.4800389 42.8735811,27.4293444 C42.9262838,27.34215 42.9830405,27.2590111 43.0377703,27.1799278 C43.2587162,26.8656222 43.4877703,26.5797056 43.7208784,26.2958167 C44.1870946,25.7300667 44.665473,25.1845944 45.1458784,24.6431778 L45.3242568,24.4444556 C45.4397973,24.31265 45.5512838,24.2497889 45.6425,24.1950389 C45.8350676,24.0855389 46.0114189,24.0145667 46.1877703,23.9435944 C46.544527,23.8057056 46.8931757,23.6941778 47.2458784,23.5867056 L47.7668243,23.4305667 C47.8093919,23.4184 47.8560135,23.4062333 47.8823649,23.40015 C47.890473,23.3940667 47.8925,23.3960944 47.9066892,23.3879833 L47.9533108,23.36365 C48.0202027,23.3291778 48.0952027,23.2865944 48.1702027,23.2440111 C48.4681757,23.0675944 48.7681757,22.8749556 49.0620946,22.6762333 C49.2100676,22.5789 49.3560135,22.4775111 49.4958784,22.37815 L49.5992568,22.3031222 L49.7006081,22.2220111 C49.7816892,22.1550944 49.8526351,22.1064278 49.9276351,22.0516778 L50.8114189,21.4149556 L54.3465541,18.9065944 L54.5675,18.7524833 L54.6222297,18.7119278 L54.6485811,18.6936778 L54.6566892,18.6875944 C54.6506081,18.69165 54.6708784,18.6774556 54.7012838,18.6632611 C54.7539865,18.6308167 54.8289865,18.6085111 54.9039865,18.6166222 C55.0580405,18.6287889 55.165473,18.7180111 55.2202027,18.8335944 C55.2465541,18.8903722 55.2627703,18.9613444 55.2546622,19.0343444 C55.2465541,19.1053167 55.2141216,19.1783167 55.1816892,19.2209 C55.1553378,19.2533444 55.1553378,19.2492889 55.1553378,19.2533444 L55.1492568,19.2594278 L55.1391216,19.2675389 L55.1147973,19.2959278 L54.7479054,19.6933722 L54.0120946,20.4902889 C53.515473,21.0195389 53.0188514,21.5447333 52.5202027,22.0679 C51.5188514,23.1142333 50.5053378,24.1484 49.4573649,25.15215 C48.9343919,25.6530111 48.4073649,26.1518444 47.8539865,26.6283722 C47.5823649,26.8696778 47.2985811,27.1049 47.0107432,27.3340389 C46.9742568,27.3583722 46.9397973,27.3867611 46.9033108,27.41515 C46.9438514,27.4252889 46.9843919,27.4415111 47.0269595,27.4658444 C47.1202027,27.5104556 47.2235811,27.6017056 47.2803378,27.7193167 C47.3350676,27.8328722 47.3411486,27.9484556 47.3350676,28.0457889 C47.3269595,28.1410944 47.3066892,28.2242333 47.2823649,28.3012889 C47.1769595,28.5953167 47.0168243,28.8264833 46.8627703,29.0394 C46.7127703,29.2543444 46.5587162,29.4652333 46.4026351,29.6740944 C45.7742568,30.5095389 45.1073649,31.3105111 44.4080405,32.0851222 C44.0614189,32.4724278 43.7046622,32.85365 43.3377703,33.2267611 C43.1553378,33.4133167 42.9708784,33.5958167 42.7823649,33.7762889 L42.5776351,33.9729833 C42.5756081,33.9892056 42.5715541,34.0034 42.5675,34.0196222 C42.4519595,34.0439556 42.3647973,34.1210111 42.3566892,34.2224 C42.2918243,34.9807889 42.1093919,35.7412056 41.8681757,36.4772889 C41.6208784,37.2113444 41.3006081,37.9210667 40.9215541,38.6024 C40.165473,39.9630389 39.1600676,41.1776778 38.0026351,42.2240111 C36.415473,43.6718444 34.6073649,44.8682333 32.7080405,45.9368722 C34.765473,45.2393167 36.7560135,44.1706778 38.4080405,42.6680944 C39.6060135,41.5832333 40.6539865,40.3158722 41.4465541,38.8944 C41.8499324,38.1644 42.194527,37.3958722 42.4580405,36.6009833 C42.4803378,36.8260667 42.5026351,36.9578722 42.5026351,36.9578722 C42.5026351,36.9578722 43.3093919,39.7359278 46.4066892,41.3257056 C49.5080405,42.9215667 54.6141216,43.21965 57.6080405,44.5458167 C60.2431757,45.7138167 63.7762838,51.9269278 64.5850676,53.3990944 C66.1479054,55.2991222 67.9884459,57.7040667 69.3222297,59.7886222 C71.7647973,63.8036222 72.4864189,66.2024833 72.6485811,67.5164833 C72.7256081,68.1815944 72.6647973,68.5749833 72.5857432,68.8102056 C72.5087162,69.0413722 72.4134459,69.1103167 72.4134459,69.1103167 C72.4134459,69.1103167 72.2735811,68.9440389 72.0242568,68.6195944 C71.7729054,68.29515 71.4181757,67.8125389 70.9580405,67.1879833 C70.5202027,66.5857333 69.9911486,65.8476222 69.3952027,64.9817611 C69.5816892,65.5029 69.7337162,65.9814556 69.8634459,66.4194556 C70.0580405,67.1170111 70.1979054,67.7091222 70.2850676,68.2180944 C70.3702027,68.7311222 70.4087162,69.1529 70.4168243,69.5016778 C70.4269595,70.2073444 70.3134459,70.6108722 70.2100676,70.8339278 C70.1046622,71.0610389 69.9992568,71.1137611 69.9992568,71.1137611 C69.9992568,71.1137611 69.8796622,70.9211222 69.6688514,70.5520667 C69.5614189,70.3655111 69.4458784,70.1384 69.2837162,69.8666778 C69.1256081,69.5929278 68.9472297,69.28065 68.7506081,68.9237611 C68.3897973,68.2809556 67.9560135,67.5083722 67.469527,66.6080389 C67.9600676,68.5810667 68.0938514,69.8950667 68.069527,70.7609278 C68.0492568,71.4645667 67.9256081,71.8701222 67.8141216,72.0952056 C67.7026351,72.3243444 67.5972297,72.3730111 67.5972297,72.3730111 C67.5972297,72.3730111 67.4837162,72.1742889 67.2830405,71.7869833 C67.0884459,71.4017056 66.7884459,70.8278444 66.4316892,70.0816222 C66.0019595,69.1914278 65.4729054,68.0457333 64.8911486,66.6749556 C64.9681757,67.3420944 65.0229054,67.9423167 65.0411486,68.4817056 C65.0715541,69.1894 65.0675,69.7855667 65.0269595,70.2925111 C64.9884459,70.7974278 64.9357432,71.2070389 64.8587162,71.5416222 C64.7006081,72.2148444 64.5080405,72.5778167 64.3560135,72.7724833 C64.2019595,72.96715 64.090473,72.9995944 64.090473,72.9995944 C64.090473,72.9995944 64.015473,72.78465 63.8918243,72.3851778 C63.7702027,71.9775944 63.5938514,71.3773722 63.3688514,70.6189833 C63.1012838,69.6862056 62.7668243,68.4959 62.3979054,67.0764556 C62.2418243,68.5648444 61.9479054,69.5402056 61.6418243,70.15665 C61.3742568,70.6940111 61.1066892,70.9515389 60.9222297,71.0833444 C60.7377703,71.21515 60.6202027,71.21515 60.6202027,71.21515 C60.6202027,71.21515 60.5857432,71.0285944 60.5411486,70.6859 C60.5046622,70.3492889 60.4175,69.8301778 60.3364189,69.17115 C60.2046622,68.2241778 60.0364189,66.9669556 59.8884459,65.4400389 C59.5985811,66.3322611 59.2803378,66.9385667 58.990473,67.3400667 C58.6661486,67.7699556 58.390473,67.9646222 58.1938514,68.0579 C57.9972297,68.14915 57.8816892,68.1390111 57.8816892,68.1390111 C57.8816892,68.1390111 57.8634459,67.9727333 57.8472297,67.6685667 C57.8391216,67.5124278 57.8330405,67.3258722 57.8229054,67.1048444 C57.8107432,66.8777333 57.7985811,66.61615 57.794527,66.3261778 C57.7661486,65.4501778 57.7458784,64.28015 57.790473,62.8607056 C57.3911486,63.6211222 57.0019595,64.1199556 56.6553378,64.4302056 C56.4810135,64.6005389 56.2985811,64.7140944 56.1526351,64.7891222 C56.0046622,64.86415 55.8789865,64.9047056 55.7776351,64.9229556 C55.5729054,64.9655389 55.4634459,64.9249833 55.4634459,64.9249833 C55.4634459,64.9249833 55.4675,64.7769556 55.4938514,64.5113167 C55.5262838,64.2578444 55.5506081,63.8380944 55.6134459,63.3230389 C55.6438514,63.0371222 55.6803378,62.7126778 55.7249324,62.3557889 L55.4289865,62.7207889 C55.0134459,63.2358444 54.2918243,63.3838722 53.7060135,63.0776778 C50.0229054,61.1634556 40.6722297,55.1369 32.1506081,52.3669556 L31.2870946,56.2420389 C31.2526351,56.4022333 31.1147973,56.5239 30.9485811,56.5299833 C30.640473,56.5482333 30.0870946,56.5624278 29.3776351,56.5239 C29.1729054,56.5157889 29.0147973,56.3312611 29.0330405,56.1244278 L29.0431757,56.0027611 C29.1242568,55.00915 28.9235811,53.9952611 28.4350676,52.9590667 C27.7823649,53.9019833 27.415473,54.8692333 27.3343919,55.8608167 C27.3141216,56.0838722 27.1073649,56.2400111 26.8884459,56.1933722 C26.1120946,56.0270944 25.2830405,55.7857889 24.4499324,55.4451222 C24.2492568,55.3619833 24.1600676,55.1267611 24.2573649,54.9341222 C24.6181757,54.2183167 24.8249324,53.4051778 24.8776351,52.4926778 C23.9918243,52.9408167 23.2843919,53.5085944 22.7553378,54.1960111 C22.6357432,54.3501222 22.4188514,54.3845944 22.2566892,54.2750944 C21.9931757,54.0946222 21.7316892,53.9040111 21.4762838,53.6931222 L23.3026351,52.1094278 C23.6958784,51.7707889 24.1276351,51.4767611 24.5958784,51.2577611 C24.7377703,51.1949 24.8857432,51.0975667 25.0256081,50.9759 C25.2161486,50.8136778 25.3620946,50.6352333 25.4492568,50.4628722 C25.5769595,50.2134556 25.7512838,49.9924278 25.9641216,49.8160111 C26.3370946,49.4814278 26.744527,49.1874 27.1397973,48.8791778 L28.3337162,47.9666778 L30.7175,46.1355944 C30.8168243,46.0585389 30.8330405,45.9145667 30.7560135,45.8152056 C30.6769595,45.7138167 30.5350676,45.6935389 30.4357432,45.7685667 L28.015473,47.6280389 L26.8033108,48.5587889 C26.4019595,48.8690389 25.994527,49.1732056 25.6093919,49.5118444 C25.4046622,49.6842056 25.1634459,49.8079 24.9100676,49.9052333 C24.7418243,49.9660667 24.5573649,50.0755667 24.3810135,50.2235944 C24.2411486,50.3472889 24.1256081,50.4770667 24.0384459,50.6109 C23.7506081,51.0448444 23.4019595,51.4301222 23.0087162,51.7707889 L21.1296622,53.3990944 C20.8053378,53.1070944 20.4911486,52.7968444 20.1891216,52.4500944 C20.065473,52.3101778 19.9499324,52.1641778 19.8364189,52.0202056 L21.5938514,50.4628722 C21.9870946,50.1161222 22.4168243,49.8160111 22.8891216,49.5889 C23.0330405,49.5179278 23.1789865,49.4205944 23.3208784,49.2948722 C23.3837162,49.2380944 23.4425,49.1772611 23.4972297,49.1184556 C23.5235811,49.0900667 23.5499324,49.0576222 23.5742568,49.0272056 L23.6066892,48.9805667 C23.6269595,48.9582611 23.6492568,48.9359556 23.665473,48.91365 C23.6816892,48.8872889 23.6958784,48.8629556 23.7100676,48.8386222 C23.7222297,48.8163167 23.7242568,48.80415 23.7323649,48.7899556 C23.7425,48.7575111 23.7526351,48.7291222 23.7627703,48.6966778 C23.8438514,48.4269833 23.9756081,48.1735111 24.1519595,47.9545111 L27.9789865,43.2297889 C28.0580405,43.1304278 28.0418243,42.9864556 27.9425,42.9094 C27.8411486,42.8282889 27.6992568,42.8404556 27.6202027,42.9377889 L23.7425,47.7314556 C23.5722297,47.9382889 23.3573649,48.1086222 23.1262838,48.2505667 C23.1060135,48.2627333 23.0877703,48.2769278 23.0675,48.2870667 C23.0452027,48.3053167 23.0431757,48.2972056 23.0310135,48.3032889 L23.0066892,48.3053167 L22.9600676,48.3357333 C22.9256081,48.3560111 22.8931757,48.3762889 22.8587162,48.3985944 C22.7938514,48.4452333 22.7269595,48.4979556 22.6641216,48.5547333 C22.5222297,48.6784278 22.4046622,48.8142889 22.3215541,48.9481222 C22.0357432,49.38815 21.6850676,49.7795111 21.2938514,50.1282889 L19.5627703,51.6612889 C19.394527,51.4240389 19.2343919,51.1847611 19.0884459,50.9475111 C18.9810135,50.7690667 19.0397973,50.5399278 19.2161486,50.4365111 C19.8546622,50.0512333 20.4364189,49.5219833 20.9512838,48.8487611 C20.0735811,48.73115 19.2607432,48.7777889 18.5107432,48.9805667 C18.3222297,49.0312611 18.1276351,48.9278444 18.0627703,48.7453444 C17.7343919,47.7841778 17.5418243,46.83315 17.4364189,45.9429556 C17.4120946,45.7239556 17.5803378,45.5394278 17.7992568,45.5353722 C18.5979054,45.5150944 19.4107432,45.3143444 20.2337162,44.9392056 C19.4877703,44.4079278 18.7215541,44.0611778 17.9350676,43.8969278 C17.594527,43.8259556 17.3573649,43.5177333 17.3735811,43.1709833 L17.3816892,42.9235944 C17.4060135,41.7637056 17.5053378,41.7434278 17.590473,41.3074556 C17.6229054,41.1350944 17.7729054,41.0053167 17.9492568,41.0032889 L20.7303378,40.9749 C19.8181757,39.0870389 17.6269595,34.5387333 16.540473,32.1581222 C15.3039865,29.4449556 13.6783108,23.6069833 11.5093919,19.6954 C11.0877703,18.9309278 11.3897973,17.9717889 12.1702027,17.5844833 C12.5208784,17.4121222 12.9141216,17.2174556 13.3337162,17.0085944 C11.0857432,17.5074278 9.77425676,17.4689 8.98777027,17.2762611 C8.54993243,17.1728444 8.27425676,17.0187333 8.11209459,16.8889556 C7.94993243,16.75715 7.89722973,16.6537333 7.89722973,16.6537333 C7.89722973,16.6537333 8.00668919,16.5645111 8.22763514,16.4104 C8.33912162,16.3353722 8.47493243,16.2420944 8.63912162,16.1407056 C8.80533784,16.0413444 8.99587838,15.9237333 9.2147973,15.8020667 C9.59182432,15.5932056 10.0499324,15.3620389 10.5850676,15.1247889 C7.62763514,15.3397333 6.00398649,15.0882889 5.10195946,14.7658722 C4.61344595,14.5894556 4.33371622,14.3968167 4.17763514,14.23865 C4.02155405,14.0845389 3.98912162,13.9709833 3.98912162,13.9709833 C3.98912162,13.9709833 4.14114865,13.9020389 4.43506757,13.7844278 C4.73101351,13.6668167 5.1647973,13.5147333 5.73236486,13.3362889 C6.30195946,13.1659556 7.00128378,12.9773722 7.8202027,12.8009556 C4.92560811,12.52315 3.33844595,12.0790667 2.44655405,11.6714833 C1.92763514,11.4342333 1.64182432,11.20915 1.48777027,11.0347611 C1.33371622,10.8624 1.31344595,10.7447889 1.31344595,10.7447889 C1.31344595,10.7447889 1.49385135,10.6940944 1.84655405,10.6150111 C2.19925676,10.5298444 2.71209459,10.4365667 3.38101351,10.3432889 C4.43304054,10.2033722 5.86209459,10.0837333 7.59317568,10.0837333 C4.07628378,9.30709444 2.25398649,8.62981667 1.28506757,8.06001111 C0.770202703,7.76598333 0.502635135,7.50034444 0.364797297,7.30973333 C0.226959459,7.11709444 0.218851351,6.99948333 0.218851351,6.99948333 C0.218851351,6.99948333 0.413445946,6.97109444 0.784391892,6.93662222 L0.784391892,6.93662222 Z" id="Fill-25" fill="#3E683D" mask="url(#mask-2)"></path>
                            </g>
                        </g>
                    </g>
                </g>
            </g>
        </g>
    </g>
</svg>